{
.appVersion = "3248";
.formatVersion = 3;
DisplayStrings = (
"A/thinspace B/thinspace C/thinspace D/thinspace E/thinspace F/thinspace G/thinspace/_all.comp/thinspace I/thinspace J/thinspace K/thinspace L/thinspace M/thinspace N/thinspace O/thinspace P/thinspace Q/thinspace R/thinspace S/thinspace T/thinspace U/thinspace V/thinspace W/thinspace X/thinspace Y/thinspace Z",
"Hermann
Zapf präsentiert:
Mergenthaler
Antiqua Kursive ",
HHHMHHN,
"nnſhnn",
l,
"2",
Z,
HRHH
);
axes = (
{
name = "Optical size";
tag = opsz;
},
{
name = Weight;
tag = wght;
},
{
name = Italic;
tag = ital;
}
);
classes = (
{
automatic = 1;
code = "A Adieresis B C Cdotaccent D E Edieresis Edotaccent F G Gdotaccent H I Idieresis J K L M N O Odieresis P Q R S T U Udieresis V W Wdieresis X Y Ydieresis Z Zdotaccent";
name = Uppercase;
}
);
customParameters = (
{
name = "Virtual Master";
value = (
{
Axis = "Optical size";
Location = 9;
},
{
Axis = Weight;
Location = 160;
},
{
Axis = Italic;
Location = 0;
}
);
}
);
date = "2012-03-18 19:20:00 +0000";
familyName = "Mergenthaler Antiqua";
featurePrefixes = (
{
code = "languagesystem DFLT dflt; languagesystem latn dflt; ";
name = Languagesystems;
}
);
features = (
{
automatic = 1;
code = "feature case;
feature locl;
";
tag = aalt;
},
{
automatic = 1;
code = "lookup ccmp_Other_1 {
	@CombiningTopAccents = [dieresiscomb dotaccentcomb];
	sub [i]' @CombiningTopAccents by [idotless];
	@Markscomb = [dieresiscomb dotaccentcomb];
	@MarkscombCase = [dieresiscomb.case dotaccentcomb.case];
	sub @Markscomb @Markscomb' by @MarkscombCase;
	sub @Uppercase @Markscomb' by @MarkscombCase;
} ccmp_Other_1;

lookup ccmp_Other_2 {
	sub @Markscomb' @MarkscombCase by @MarkscombCase;
	sub @MarkscombCase @Markscomb' by @MarkscombCase;
} ccmp_Other_2;

lookup ccmp_latn_1 {
	sub fi by f i;
	sub fl by f l;
} ccmp_latn_1;

script latn;
lookup ccmp_latn_1;
";
tag = ccmp;
},
{
automatic = 1;
code = "lookup locl_latn_0 {
	script latn;
	language AZE;
	sub i by idotaccent;
	language CRT;

glyphs = (
{
glyphname = A;
kernLeft = A;
kernRight = A;
lastChange = "2023-11-28 22:13:05 +0000";
layers = (
{
anchors = (
{
name = top;
pos = (650,1210);
}
);
background = {
shapes = (
{
closed = 1;
nodes = (
(88,8,o),
(172,16,o),
(229,16,cs),
(279,16,o),
(420,8,o),
(461,8,c),
(471,18,l),
(471,56,l),
(461,66,l),
(404,69,o),
(354,85,o),
(332,111,cs),
(305,143,o),
(310,200,o),
(329,253,cs),
(635,1068,l),
(610,1068,l),
(905,229,ls),
(924,176,o),
(938,115,o),
(900,92,c),
(875,74,o),
(835,70,o),
(779,66,c),
(769,56,l),
(769,18,l),
(779,8,l),
(826,8,o),
(1002,16,o),
(1050,16,cs),
(1094,16,o),
(1196,8,o),
(1263,8,c),
(1273,18,l),
(1273,56,l),
(1263,66,l),
(1183,70,o),
(1141,86,o),
(1123,108,cs),
(1104,133,o),
(1082,193,o),
(1064,244,cs),
(825,920,ls),
(791,1016,o),
(760,1111,o),
(731,1207,c),
(719,1218,l),
(616,1218,l),
(605,1209,l),
(586,1146,o),
(571,1100,o),
(550,1044,cs),
(256,264,ls),
(229,193,o),
(201,148,o),
(175,122,cs),
(143,90,o),
(101,72,o),
(47,66,c),
(37,56,l),
(37,18,l),
(47,8,l)
);
},
{
closed = 1;
nodes = (
(942,409,l),
(942,469,l),
(361,469,l),
(361,409,l)
);
}
);
};
hints = (
{
name = _corner.universal;
origin = (0,50);
type = Corner;
},
{
name = _corner.universal;
origin = (0,51);
type = Corner;
},
{
name = _corner.universal;
origin = (0,5);
type = Corner;
},
{
name = _corner.universal;
origin = (0,6);
type = Corner;
},
{
name = _corner.universal;
origin = (0,21);
type = Corner;
},
{
name = _corner.universal;
origin = (0,22);
type = Corner;
},
{
name = _corner.universal;
origin = (0,28);
type = Corner;
},
{
name = _corner.universal;
origin = (0,29);
type = Corner;
},
{
name = _corner.universal;
origin = (0,39);
type = Corner;
},
{
name = _corner.universal;
origin = (0,40);
type = Corner;
}
);
layerId = "CA4EC710-46DE-40B5-AF89-3BCF48EEB297";
shapes = (
{
closed = 1;
nodes = (
(105,0,o),
(163,6,o),
(229,6,cs),
(308,6,o),
(399,-2,o),
(471,-2,c),
(471,56,l),
(401,60,o),
(353,75,o),
(332,101,cs),
(315,122,o),
(302,169,o),
(329,242,cs),
(631,1068,l),
(614,1068,l),
(905,219,ls),
(924,164,o),
(937,106,o),
(901,82,cs),
(876,65,o),
(835,60,o),
(769,57,c),
(769,-2,l),
(873,-2,o),
(959,6,o),
(1050,6,cs),
(1110,6,o),
(1177,-2,o),
(1273,-2,c),
(1273,56,l),
(1182,61,o),
(1141,76,o),
(1123,98,cs),
(1102,123,o),
(1081,183,o),
(1064,234,cs),
(825,930,ls),
(792,1025,o),
(761,1119,o),
(728,1228,c),
(607,1228,l),
(587,1161,o),
(570,1108,o),
(550,1054,cs),
(256,254,ls),
(229,182,o),
(202,139,o),
(175,112,cs),
(144,81,o),
(101,64,o),
(37,59,c),
(37,0,l)
);
},
{
closed = 1;
nodes = (
(942,409,l),
(942,469,l),
(361,469,l),
(361,409,l)
);
}
);
width = 1300;
},
{
anchors = (
{
name = top;
pos = (650,1210);
}
);
background = {
shapes = (
{
closed = 1;
nodes = (
(100,-2,o),
(161,6,o),
(229,6,cs),
(311,6,o),
(407,-2,o),
(465,-2,c),
(481,14,l),
(481,60,l),
(465,76,l),
(408,79,o),
(359,93,o),
(340,117,cs),
(325,136,o),
(312,179,o),
(338,249,cs),
(645,1068,l),
(600,1068,l),
(896,226,ls),
(915,172,o),
(925,120,o),
(895,100,cs),
(871,84,o),
(830,80,o),
(775,76,c),
(759,60,l),
(759,14,l),
(775,-2,l),
(868,-2,o),
(957,6,o),
(1050,6,cs),
(1112,6,o),
(1181,-2,o),
(1267,-2,c),
(1283,14,l),
(1283,60,l),
(1267,76,l),
(1188,80,o),
(1147,94,o),
(1131,114,cs),
(1111,138,o),
(1091,196,o),
(1073,247,cs),
(834,923,ls),
(800,1020,o),
(769,1116,o),
(740,1213,c),
(722,1228,l),
(612,1228,l),
(595,1213,l),
(578,1158,o),
(562,1103,o),
(541,1048,cs),
(247,268,ls),
(220,196,o),
(194,155,o),
(168,129,cs),
(137,98,o),
(95,82,o),
(43,76,c),
(27,60,l),
(27,14,l),
(43,-2,l)
);
},
{
closed = 1;
nodes = (
(952,399,l),
(952,479,l),
(351,479,l),
(351,399,l)
);
}
);
};
backgroundImage = {
imagePath = "Mergenthaler docs/Microscope/Roman-39.tiff";
locked = 1;
pos = (-2080,-676);
scale = (5.12,5.12);
};
hints = (
{
name = _corner.universal;
origin = (0,50);
type = Corner;
},
{
name = _corner.universal;
origin = (0,51);
type = Corner;
},
{
name = _corner.universal;
origin = (0,5);
type = Corner;
},
{
name = _corner.universal;
origin = (0,6);
type = Corner;
},
{
name = _corner.universal;
origin = (0,21);
type = Corner;
},
{
name = _corner.universal;
origin = (0,22);
type = Corner;
},
{
name = _corner.universal;
origin = (0,28);
type = Corner;
},
{
name = _corner.universal;
origin = (0,29);
type = Corner;
},
{
name = _corner.universal;
origin = (0,39);
type = Corner;
},
{
name = _corner.universal;
origin = (0,40);
type = Corner;
}
);
layerId = "25879A17-30FE-49F5-8BDD-4D78448C8558";
shapes = (
{
closed = 1;
nodes = (
(103,-2,o),
(161,6,o),
(229,6,cs),
(311,6,o),
(407,-2,o),
(481,-2,c),
(481,76,l),
(408,79,o),
(359,93,o),
(340,117,cs),
(325,136,o),
(312,179,o),
(338,249,cs),
(645,1068,l),
(600,1068,l),
(896,226,ls),
(915,172,o),
(925,120,o),
(895,100,cs),
(871,84,o),
(830,80,o),
(759,76,c),
(759,-2,l),
(868,-2,o),
(957,6,o),
(1050,6,cs),
(1112,6,o),
(1181,-2,o),
(1283,-2,c),
(1283,76,l),
(1188,80,o),
(1147,94,o),
(1131,114,cs),
(1111,138,o),
(1090,198,o),
(1073,247,cs),
(834,923,ls),
(800,1020,o),
(769,1116,o),
(735,1228,c),
(600,1228,l),
(579,1158,o),
(562,1103,o),
(541,1048,cs),
(247,268,ls),
(220,196,o),
(194,155,o),
(168,129,cs),
(137,98,o),
(95,82,o),
(27,78,c),
(27,-2,l)
);
},
{
closed = 1;
nodes = (
(952,399,l),
(952,479,l),
(351,479,l),
(351,399,l)
);
}
);
width = 1300;
},
{
anchors = (
{
name = top;
pos = (909,1210);
}
);
hints = (
{
name = _corner.universal;
origin = (0,50);
type = Corner;
},
{
name = _corner.universal;
origin = (0,51);
type = Corner;
},
{
name = _corner.universal;
origin = (0,5);
type = Corner;
},
{
name = _corner.universal;
origin = (0,6);
type = Corner;
},
{
name = _corner.universal;
origin = (0,21);
type = Corner;
},
{
name = _corner.universal;
origin = (0,22);
type = Corner;
},
{
name = _corner.universal;
origin = (0,28);
type = Corner;
},
{
name = _corner.universal;
origin = (0,29);
type = Corner;
},
{
name = _corner.universal;
origin = (0,39);
type = Corner;
},
{
name = _corner.universal;
origin = (0,40);
type = Corner;
}
);
layerId = master01;
shapes = (
{
closed = 1;
nodes = (
(3,-1,o),
(61,6,o),
(163,6,cs),
(237,6,o),
(362,-1,o),
(440,-2,c),
(440,56,l),
(310,59,o),
(258,84,o),
(258,145,cs),
(258,175,o),
(274,210,o),
(303,254,cs),
(845,1067,l),
(815,1067,l),
(816,216,ls),
(816,161,o),
(813,107,o),
(780,82,cs),
(756,63,o),
(715,58,o),
(643,56,c),
(643,-2,l),
(741,-1,o),
(815,6,o),
(899,6,cs),
(959,6,o),
(1047,-1,o),
(1147,-2,c),
(1147,56,l),
(1063,59,o),
(1021,64,o),
(996,98,cs),
(974,128,o),
(970,185,o),
(970,237,cs),
(966,932,ls),
(965,1026,o),
(967,1132,o),
(969,1228,c),
(859,1228,l),
(829,1174,o),
(788,1104,o),
(752,1051,cs),
(211,252,ls),
(163,181,o),
(131,151,o),
(98,123,cs),
(69,99,o),
(15,67,o),
(-60,57,c),
(-60,-2,l)
);
},
{
closed = 1;
nodes = (
(903,409,l),
(911,469,l),
(410,469,l),
(353,409,l)
);
}
);
width = 1300;
},
{
anchors = (
{
name = top;
pos = (855,1210);
}
);
background = {
shapes = (
{
closed = 1;
nodes = (
(4,-2,o),
(62,6,o),
(169,6,cs),
(242,6,o),
(379,-2,o),
(437,-2,c),
(456,14,l),
(456,60,l),
(440,76,l),
(324,78,o),
(274,100,o),
(274,155,cs),
(274,183,o),
(288,215,o),
(317,258,cs),
(862,1068,l),
(803,1068,l),
(806,226,ls),
(806,172,o),
(803,122,o),
(774,100,cs),
(751,82,o),
(711,78,o),
(649,76,c),
(633,60,l),
(633,14,l),
(650,-2,l),
(736,-2,o),
(813,6,o),
(899,6,cs),
(961,6,o),
(1052,-2,o),
(1138,-2,c),
(1157,14,l),
(1157,60,l),
(1141,76,l),
(1067,79,o),
(1027,83,o),
(1004,114,cs),
(984,141,o),
(980,196,o),
(980,247,cs),
(974,923,ls),
(973,1020,o),
(975,1114,o),
(977,1212,c),
(961,1228,l),
(863,1228,l),
(842,1213,l),
(812,1158,o),
(779,1102,o),
(742,1048,cs),
(209,268,ls),
(160,197,o),
(130,168,o),
(98,141,cs),
(68,116,o),
(13,84,o),
(-64,76,c),
(-80,60,l),
(-80,14,l),
(-63,-2,l)
);
},
{
closed = 1;
nodes = (
(913,409,l),
(923,489,l),
(407,489,l),
(330,409,l)
);
}
);
};
backgroundImage = {
imagePath = "Mergenthaler docs/Microscope/Italic-33.tiff";
locked = 1;
pos = (-1523,-543);
scale = (5.12,5.12);
};
hints = (
{
name = _corner.universal;
origin = (0,50);
type = Corner;
},
{
name = _corner.universal;
origin = (0,51);
type = Corner;
},
{
name = _corner.universal;
origin = (0,5);
type = Corner;
},
{
name = _corner.universal;
origin = (0,6);
type = Corner;
},
{
name = _corner.universal;
origin = (0,21);
type = Corner;
},
{
name = _corner.universal;
origin = (0,22);
type = Corner;
},
{
name = _corner.universal;
origin = (0,28);
type = Corner;
},
{
name = _corner.universal;
origin = (0,29);
type = Corner;
},
{
name = _corner.universal;
origin = (0,39);
type = Corner;
},
{
name = _corner.universal;
origin = (0,40);
type = Corner;
}
);
layerId = m004;
shapes = (
{
closed = 1;
nodes = (
(1,-2,o),
(60,6,o),
(169,6,cs),
(246,6,o),
(379,-2,o),
(456,-2,c),
(456,76,l),
(324,78,o),
(274,100,o),
(274,155,cs),
(274,183,o),
(288,215,o),
(317,258,cs),
(862,1068,l),
(791,1068,l),
(806,226,ls),
(807,172,o),
(803,122,o),
(774,100,cs),
(751,82,o),
(711,78,o),
(633,76,c),
(633,-2,l),
(736,-2,o),
(813,6,o),
(899,6,cs),
(961,6,o),
(1052,-2,o),
(1157,-2,c),
(1157,76,l),
(1067,79,o),
(1027,83,o),
(1004,114,cs),
(984,141,o),
(981,196,o),
(980,247,cs),
(962,923,ls),
(959,1020,o),
(959,1130,o),
(961,1228,c),
(851,1229,l),
(821,1174,o),
(779,1102,o),
(742,1048,cs),
(209,268,ls),
(160,197,o),
(130,168,o),
(98,141,cs),
(68,116,o),
(11,84,o),
(-68,76,c),
(-68,-2,l)
);
},
{
closed = 1;
nodes = (
(912,399,l),
(922,479,l),
(406,479,l),
(329,399,l)
);
}
);
width = 1300;
}
);
unicode = 65;
},
{
glyphname = B;
kernLeft = E;
lastChange = "2023-11-28 22:19:29 +0000";
layers = (
{
background = {
hints = (
{
name = _corner.universal;
origin = (0,24);
type = Corner;
},
{
name = _corner.universal;
origin = (0,25);
type = Corner;
},
{
name = _corner.universal;
origin = (0,38);
type = Corner;
},
{
name = _corner.universal;
origin = (0,39);
type = Corner;
}
);
shapes = (
{
closed = 1;
nodes = (
(726,-8,o),
(829,15,o),
(910,58,cs),
(1032,123,o),
(1075,224,o),
(1075,333,cs),
(1075,532,o),
(931,671,o),
(625,671,c),
(620,639,l),
(875,660,o),
(1002,785,o),
(1002,942,cs),
(1002,1048,o),
(950,1132,o),
(847,1178,cs),
(782,1207,o),
(696,1218,o),
(602,1218,cs),
(490,1218,o),
(380,1204,o),
(295,1204,cs),
(218,1204,o),
(132,1216,o),
(32,1216,c),
(32,1158,l),
(115,1158,o),
(166,1154,o),
(189,1129,cs),
(206,1111,o),
(212,1062,o),
(212,977,cs),
(212,220,ls),
(212,124,o),
(202,100,o),
(172,80,cs),
(145,62,o),
(98,57,o),
(32,54,c),
(32,-4,l),
(136,-4,o),
(215,6,o),
(306,6,cs),
(384,6,o),
(490,-8,o),
(583,-8,cs)
);
},
{
closed = 1;
nodes = (
(502,52,o),
(429,56,o),
(400,76,cs),
(371,96,o),
(366,144,o),
(366,277,cs),
(366,879,ls),
(366,955,o),
(366,1066,o),
(387,1108,cs),
(409,1153,o),
(487,1158,o),
(553,1158,cs),
(754,1158,o),
(832,1074,o),
(832,935,cs),
(832,785,o),
(748,681,o),
(576,681,cs),
(295,681,l),
(295,621,l),
(546,621,ls),
(811,621,o),
(895,524,o),
(895,336,cs),
(895,170,o),
(818,52,o),
(565,52,cs)
);
}
);
};
hints = (
{
name = _corner.universal;
origin = (0,24);
type = Corner;
},
{
name = _corner.universal;
origin = (0,25);
type = Corner;
},
{
name = _corner.universal;
origin = (0,38);
type = Corner;
},
{
name = _corner.universal;
origin = (0,39);
type = Corner;
}
);
layerId = "CA4EC710-46DE-40B5-AF89-3BCF48EEB297";
shapes = (
{
closed = 1;
nodes = (
(744,-8,o),
(899,25,o),
(992,118,cs),
(1052,178,o),
(1075,253,o),
(1075,333,cs),
(1075,532,o),
(931,671,o),
(625,671,c),
(620,639,l),
(875,660,o),
(1002,785,o),
(1002,942,cs),
(1002,1010,o),
(979,1074,o),
(938,1115,cs),
(849,1204,o),
(726,1218,o),
(602,1218,cs),
(490,1218,o),
(380,1204,o),
(295,1204,cs),
(218,1204,o),
(132,1216,o),
(32,1216,c),
(32,1158,l),
(115,1158,o),
(166,1154,o),
(189,1129,cs),
(206,1111,o),
(212,1062,o),
(212,977,cs),
(212,220,ls),
(212,124,o),
(202,100,o),
(172,80,cs),
(145,62,o),
(98,57,o),
(32,54,c),
(32,-4,l),
(136,-4,o),
(215,6,o),
(306,6,cs),
(384,6,o),
(490,-8,o),
(583,-8,cs)
);
},
{
closed = 1;
nodes = (
(502,52,o),
(429,56,o),
(400,76,cs),
(371,96,o),
(366,144,o),
(366,277,cs),
(366,879,ls),
(366,955,o),
(366,1066,o),
(387,1108,cs),
(409,1153,o),
(487,1158,o),
(553,1158,cs),
(754,1158,o),
(832,1074,o),
(832,935,cs),
(832,785,o),
(748,681,o),
(576,681,cs),
(295,681,l),
(295,621,l),
(546,621,ls),
(811,621,o),
(895,524,o),
(895,336,cs),
(895,170,o),
(818,52,o),
(565,52,cs)
);
}
);
userData = {
com.typemytype.robofont.mark = (
0.967,
0.6,
1,
1
);
};
width = 1200;
},
{
background = {
hints = (
{
name = _corner.universal;
origin = (0,24);
type = Corner;
},
{
name = _corner.universal;
origin = (0,25);
type = Corner;
},
{
name = _corner.universal;
origin = (0,38);
type = Corner;
},
{
name = _corner.universal;
origin = (0,39);
type = Corner;
}
);
shapes = (
{
closed = 1;
nodes = (
(727,-8,o),
(832,16,o),
(915,59,cs),
(1039,123,o),
(1085,227,o),
(1085,335,cs),
(1085,530,o),
(934,668,o),
(621,668,c),
(591,642,l),
(869,655,o),
(1012,782,o),
(1012,940,cs),
(1012,1045,o),
(956,1129,o),
(851,1177,cs),
(785,1207,o),
(697,1218,o),
(602,1218,cs),
(489,1218,o),
(379,1204,o),
(295,1204,cs),
(216,1204,o),
(136,1216,o),
(22,1216,c),
(22,1138,l),
(110,1138,o),
(161,1135,o),
(182,1112,cs),
(196,1097,o),
(202,1053,o),
(202,972,cs),
(202,225,ls),
(202,136,o),
(193,116,o),
(166,98,cs),
(140,81,o),
(93,77,o),
(22,73,c),
(22,-4,l),
(140,-4,o),
(213,6,o),
(306,6,cs),
(383,6,o),
(489,-8,o),
(583,-8,cs)
);
},
{
closed = 1;
nodes = (
(502,72,o),
(432,76,o),
(406,94,cs),
(381,111,o),
(376,154,o),
(376,282,cs),
(376,874,ls),
(376,948,o),
(376,1054,o),
(396,1094,cs),
(415,1133,o),
(488,1138,o),
(553,1138,cs),
(747,1138,o),
(822,1061,o),
(822,930,cs),
(822,788,o),
(742,691,o),
(576,691,cs),
(285,691,l),
(285,611,l),
(546,611,ls),
(804,611,o),
(885,521,o),
(885,341,cs),
(885,182,o),
(811,72,o),
(565,72,cs)
);
}
);
};
backgroundImage = {
imagePath = "Mergenthaler docs/Microscope/Roman-38.tiff";
locked = 1;
pos = (-2189,-646);
scale = (5.1195,5.1195);
};
hints = (
{
name = _corner.universal;
origin = (0,24);
type = Corner;
},
{
name = _corner.universal;
origin = (0,25);
type = Corner;
},
{
name = _corner.universal;
origin = (0,38);
type = Corner;
},
{
name = _corner.universal;
origin = (0,39);
type = Corner;
}
);
layerId = "25879A17-30FE-49F5-8BDD-4D78448C8558";
shapes = (
{
closed = 1;
nodes = (
(745,-8,o),
(906,27,o),
(1000,120,cs),
(1061,181,o),
(1085,257,o),
(1085,335,cs),
(1085,530,o),
(934,668,o),
(621,668,c),
(591,642,l),
(869,655,o),
(1012,782,o),
(1012,940,cs),
(1012,1010,o),
(987,1070,o),
(940,1117,cs),
(855,1202,o),
(725,1218,o),
(602,1218,cs),
(489,1218,o),
(379,1204,o),
(295,1204,cs),
(216,1204,o),
(136,1216,o),
(22,1216,c),
(22,1138,l),
(110,1138,o),
(161,1135,o),
(182,1112,cs),
(196,1097,o),
(202,1053,o),
(202,972,cs),
(202,225,ls),
(202,136,o),
(193,116,o),
(166,98,cs),
(140,81,o),
(93,77,o),
(22,73,c),
(22,-4,l),
(140,-4,o),
(213,6,o),
(306,6,cs),
(383,6,o),
(489,-8,o),
(583,-8,cs)
);
},
{
closed = 1;
nodes = (
(502,72,o),
(423,76,o),
(400,99,cs),
(383,116,o),
(376,154,o),
(376,282,cs),
(376,874,ls),
(376,948,o),
(376,1054,o),
(396,1094,cs),
(415,1133,o),
(488,1138,o),
(553,1138,cs),
(747,1138,o),
(822,1061,o),
(822,930,cs),
(822,788,o),
(742,691,o),
(576,691,cs),
(285,691,l),
(285,611,l),
(546,611,ls),
(804,611,o),
(885,521,o),
(885,341,cs),
(885,182,o),
(811,72,o),
(565,72,cs)
);
}
);
width = 1200;
},
{
backgroundImage = {
imagePath = "Mergenthaler docs/Kursiv/uppercase.tif";
locked = 1;
pos = (-1793,-483);
scale = (189.9767,189.9767);
};
hints = (
{
name = _corner.universal;
origin = (0,24);
type = Corner;
},
{
name = _corner.universal;
origin = (0,25);
type = Corner;
},
{
name = _corner.universal;
origin = (0,38);
type = Corner;
},
{
name = _corner.universal;
origin = (0,39);
type = Corner;
}
);
layerId = master01;
shapes = (
{
closed = 1;
nodes = (
(692,-8,o),
(858,16,o),
(963,121,cs),
(1040,198,o),
(1066,291,o),
(1066,361,cs),
(1066,526,o),
(938,646,o),
(681,658,c),
(690,633,l),
(943,634,o),
(1152,750,o),
(1152,969,cs),
(1152,1034,o),
(1130,1094,o),
(1089,1135,cs),
(1027,1197,o),
(955,1218,o),
(850,1218,cs),
(757,1218,o),
(654,1204,o),
(558,1204,cs),
(481,1204,o),
(400,1215,o),
(302,1216,c),
(302,1159,l),
(384,1154,o),
(416,1135,o),
(428,1108,cs),
(441,1081,o),
(429,1033,o),
(416,980,cs),
(224,212,ls),
(210,160,o),
(194,124,o),
(171,101,cs),
(149,78,o),
(112,59,o),
(42,54,c),
(42,-4,l),
(113,-3,o),
(192,6,o),
(264,6,cs),
(342,6,o),
(445,-8,o),
(551,-8,cs)
);
},
{
closed = 1;
nodes = (
(457,52,o),
(408,66,o),
(388,86,cs),
(360,114,o),
(364,145,o),
(396,274,cs),
(561,934,ls),
(581,1017,o),
(595,1070,o),
(626,1107,cs),
(661,1148,o),
(734,1158,o),
(800,1158,cs),
(920,1158,o),
(983,1091,o),
(983,978,cs),
(983,859,o),
(922,681,o),
(688,681,cs),
(425,681,l),
(410,621,l),
(638,621,ls),
(803,621,o),
(891,536,o),
(891,392,cs),
(891,210,o),
(782,52,o),
(547,52,cs)
);
}
);
width = 1200;
},
{
background = {
hints = (
{
name = _corner.universal;
place = (1030,0);
type = Corner;
},
{
name = _corner.universal;
place = (1116,0);
type = Corner;
},
{
name = _corner.universal;
place = (1210,0);
type = Corner;
},
{
name = _corner.universal;
place = (289,0);
type = Corner;
},
{
name = _corner.universal;
place = (289,0);
type = Corner;
},
{
name = _corner.universal;
place = (35,0);
type = Corner;
},
{
name = _corner.universal;
place = (35,0);
type = Corner;
},
{
name = _corner.universal;
place = (946,0);
type = Corner;
},
{
name = _corner.universal;
place = (1068,0);
type = Corner;
},
{
name = _corner.universal;
place = (984,0);
type = Corner;
},
{
name = _corner.universal;
place = (289,0);
type = Corner;
},
{
name = _corner.universal;
place = (289,0);
type = Corner;
},
{
name = _corner.universal;
place = (35,0);
type = Corner;
},
{
name = _corner.universal;
place = (35,0);
type = Corner;
},
{
name = _corner.universal;
place = (289,0);
type = Corner;
},
{
name = _corner.universal;
place = (289,0);
type = Corner;
},
{
name = _corner.universal;
place = (35,0);
type = Corner;
},
{
name = _corner.universal;
place = (35,0);
type = Corner;
},
{
name = _corner.universal;
place = (289,0);
type = Corner;
},
{
name = _corner.universal;
place = (289,0);
type = Corner;
},
{
name = _corner.universal;
place = (35,0);
type = Corner;
},
{
name = _corner.universal;
place = (35,0);
type = Corner;
},
{
name = _corner.universal;
origin = (0,5);
type = Corner;
},
{
name = _corner.universal;
origin = (0,6);
type = Corner;
},
{
name = _corner.universal;
origin = (0,19);
type = Corner;
},
{
name = _corner.universal;
origin = (0,20);
type = Corner;
},
{
name = _corner.universal;
origin = (0,26);
type = Corner;
},
{
name = _corner.universal;
origin = (0,27);
type = Corner;
},
{
name = _corner.universal;
origin = (0,40);
type = Corner;
},
{
name = _corner.universal;
origin = (0,41);
type = Corner;
}
);
shapes = (
{
closed = 1;
nodes = (
(129,-2,o),
(214,6,o),
(280,6,cs),
(342,6,o),
(415,-2,o),
(522,-2,c),
(522,75,l),
(448,78,o),
(416,90,o),
(403,103,cs),
(383,123,o),
(389,161,o),
(403,218,cs),
(591,972,ls),
(611,1054,o),
(638,1085,o),
(649,1096,cs),
(681,1128,o),
(730,1135,o),
(776,1135,c),
(776,1212,l),
(675,1212,o),
(608,1204,o),
(537,1204,cs),
(470,1204,o),
(385,1212,o),
(286,1212,c),
(286,1134,l),
(366,1134,o),
(415,1119,o),
(425,1094,cs),
(436,1067,o),
(426,1027,o),
(411,968,cs),
(226,227,ls),
(213,173,o),
(198,140,o),
(176,118,cs),
(154,96,o),
(118,77,o),
(58,75,c),
(58,-2,l)
);
}
);
};
backgroundImage = {
imagePath = "Mergenthaler docs/Microscope/Italic-33.tiff";
locked = 1;
pos = (-2986,-543);
scale = (5.12,5.12);
};
hints = (
{
name = _corner.universal;
origin = (0,24);
type = Corner;
},
{
name = _corner.universal;
origin = (0,25);
type = Corner;
},
{
name = _corner.universal;
origin = (0,38);
type = Corner;
},
{
name = _corner.universal;
origin = (0,39);
type = Corner;
}
);
layerId = m004;
shapes = (
{
closed = 1;
nodes = (
(752,-8,o),
(892,44,o),
(979,131,cs),
(1040,192,o),
(1081,278,o),
(1081,368,cs),
(1081,538,o),
(935,659,o),
(647,659,c),
(697,633,l),
(949,633,o),
(1161,748,o),
(1161,967,cs),
(1161,1031,o),
(1139,1088,o),
(1097,1130,cs),
(1043,1184,o),
(955,1218,o),
(842,1218,cs),
(762,1218,o),
(659,1204,o),
(564,1204,cs),
(481,1204,o),
(394,1216,o),
(286,1216,c),
(286,1139,l),
(380,1135,o),
(414,1118,o),
(425,1094,cs),
(436,1070,o),
(425,1025,o),
(412,972,cs),
(226,227,ls),
(213,175,o),
(198,140,o),
(176,118,cs),
(155,97,o),
(124,77,o),
(58,73,c),
(58,-4,l),
(127,-4,o),
(206,6,o),
(276,6,cs),
(353,6,o),
(456,-8,o),
(563,-8,cs)
);
},
{
closed = 1;
nodes = (
(471,72,o),
(425,85,o),
(407,103,cs),
(383,127,o),
(387,154,o),
(419,282,cs),
(579,924,ls),
(599,1006,o),
(610,1055,o),
(640,1090,cs),
(672,1128,o),
(741,1138,o),
(791,1138,cs),
(910,1138,o),
(976,1065,o),
(976,960,cs),
(976,860,o),
(918,691,o),
(697,691,cs),
(426,691,l),
(406,611,l),
(647,611,ls),
(806,611,o),
(890,533,o),
(890,399,cs),
(890,224,o),
(786,72,o),
(559,72,cs)
);
}
);
width = 1200;
}
);
unicode = 66;
},
{
glyphname = C;
kernLeft = G;
kernRight = C;
lastChange = "2023-11-28 22:41:22 +0000";
layers = (
{
anchors = (
{
name = bottom;
pos = (590,0);
},
{
name = top;
pos = (590,1210);
}
);
hints = (
{
name = _corner.universal;
origin = (0,2);
type = Corner;
},
{
name = _corner.universal;
origin = (0,3);
type = Corner;
},
{
name = _corner.universal;
origin = (0,19);
type = Corner;
},
{
name = _corner.universal;
origin = (0,20);
type = Corner;
},
{
name = _corner.universal;
origin = (0,15);
type = Corner;
},
{
name = _corner.universal;
origin = (0,16);
type = Corner;
}
);
layerId = "CA4EC710-46DE-40B5-AF89-3BCF48EEB297";
shapes = (
{
closed = 1;
nodes = (
(855,-30,o),
(1001,149,o),
(1002,422,c),
(936,422,l),
(919,151,o),
(784,40,o),
(591,40,cs),
(363,40,o),
(266,249,o),
(266,610,cs),
(266,954,o),
(377,1178,o),
(599,1178,cs),
(777,1178,o),
(887,1057,o),
(925,826,c),
(985,826,l),
(985,956,o),
(987,1090,o),
(993,1220,c),
(939,1220,l),
(877,1073,l),
(919,1065,l),
(851,1178,o),
(737,1240,o),
(598,1240,cs),
(301,1240,o),
(85,994,o),
(85,610,cs),
(85,215,o),
(275,-30,o),
(580,-30,cs)
);
}
);
width = 1100;
},
{
anchors = (
{
name = bottom;
pos = (590,0);
},
{
name = top;
pos = (590,1210);
}
);
background = {
shapes = (
{
closed = 1;
nodes = (
(904,164,o),
(775,50,o),
(591,50,cs),
(371,50,o),
(276,254,o),
(276,610,cs),
(276,944,o),
(384,1160,o),
(599,1160,cs),
(768,1160,o),
(874,1044,o),
(913,824,c),
(929,806,l),
(980,806,l),
(995,822,l),
(995,949,o),
(997,1077,o),
(1003,1204,c),
(988,1220,l),
(944,1220,l),
(926,1206,l),
(863,1055,l),
(938,1041,l),
(871,1168,o),
(747,1242,o),
(598,1242,cs),
(296,1242,o),
(75,992,o),
(75,610,cs),
(75,218,o),
(270,-32,o),
(580,-32,cs),
(861,-32,o),
(1021,160,o),
(1018,426,c),
(1001,442,l),
(935,442,l),
(918,426,l)
);
}
);
};
backgroundImage = {
imagePath = "Mergenthaler docs/Microscope/Roman-37.tiff";
locked = 1;
pos = (-2153,-672);
scale = (5.12,5.12);
};
hints = (
{
name = _corner.universal;
origin = (0,2);
type = Corner;
},
{
name = _corner.universal;
origin = (0,3);
type = Corner;
},
{
name = _corner.universal;
origin = (0,19);
type = Corner;
},
{
name = _corner.universal;
origin = (0,20);
type = Corner;
},
{
name = _corner.universal;
origin = (0,15);
type = Corner;
},
{
name = _corner.universal;
origin = (0,16);
type = Corner;
}
);
layerId = "25879A17-30FE-49F5-8BDD-4D78448C8558";
shapes = (
{
closed = 1;
nodes = (
(863,-30,o),
(1015,160,o),
(1012,442,c),
(919,442,l),
(904,170,o),
(776,60,o),
(595,60,cs),
(371,60,o),
(276,259,o),
(276,610,cs),
(276,944,o),
(384,1158,o),
(599,1158,cs),
(773,1158,o),
(874,1038,o),
(916,806,c),
(995,806,l),
(991,943,o),
(995,1083,o),
(1004,1220,c),
(927,1220,l),
(852,1055,l),
(938,1041,l),
(871,1168,o),
(747,1240,o),
(596,1240,cs),
(296,1240,o),
(75,992,o),
(75,610,cs),
(75,218,o),
(270,-30,o),
(580,-30,cs)
);
}
);
width = 1100;
},
{
anchors = (
{
name = bottom;
pos = (500,0);
},
{
name = top;
pos = (760,1210);
}
);
backgroundImage = {
imagePath = "Mergenthaler docs/Kursiv/uppercase.tif";
locked = 1;
pos = (-3279,-477);
scale = (189.9767,189.9767);
};
hints = (
{
name = _corner.universal;
origin = (0,2);
type = Corner;
},
{
name = _corner.universal;
origin = (0,3);
type = Corner;
},
{
name = _corner.universal;
origin = (0,19);
type = Corner;
},
{
name = _corner.universal;
origin = (0,20);
type = Corner;
},
{
name = _corner.universal;
origin = (0,15);
type = Corner;
},
{
name = _corner.universal;
origin = (0,16);
type = Corner;
}
);
layerId = master01;
shapes = (
{
closed = 1;
nodes = (
(721,-30,o),
(874,124,o),
(948,376,c),
(881,398,l),
(794,144,o),
(667,40,o),
(512,40,cs),
(355,40,o),
(276,154,o),
(276,351,cs),
(276,741,o),
(509,1178,o),
(742,1178,cs),
(911,1178,o),
(1015,1023,o),
(996,780,c),
(1059,780,l),
(1075,921,o),
(1096,1051,o),
(1136,1212,c),
(1084,1229,l),
(988,1077,l),
(1041,1083,l),
(983,1172,o),
(879,1240,o),
(748,1240,cs),
(420,1240,o),
(111,842,o),
(111,412,cs),
(111,133,o),
(252,-30,o),
(500,-30,cs)
);
}
);
width = 1100;
},
{
anchors = (
{
name = bottom;
pos = (500,0);
},
{
name = top;
pos = (760,1210);
}
);
background = {
hints = (
{
name = _corner.universal;
place = (966,0);
type = Corner;
},
{
name = _corner.universal;
place = (1045,0);
type = Corner;
},
{
name = _corner.universal;
place = (1151,0);
type = Corner;
},
{
name = _corner.universal;
place = (1083,0);
type = Corner;
},
{
name = _corner.universal;
origin = (0,2);
type = Corner;
},
{
name = _corner.universal;
origin = (0,3);
type = Corner;
},
{
name = _corner.universal;
origin = (0,15);
type = Corner;
},
{
name = _corner.universal;
origin = (0,16);
type = Corner;
},
{
name = _corner.universal;
origin = (0,19);
type = Corner;
},
{
name = _corner.universal;
origin = (0,20);
type = Corner;
}
);
shapes = (
{
closed = 1;
nodes = (
(734,-32,o),
(892,128,o),
(966,383,c),
(881,410,l),
(795,161,o),
(669,58,o),
(516,58,cs),
(308,58,o),
(243,267,o),
(328,610,cs),
(408,932,o),
(586,1158,o),
(745,1158,cs),
(910,1158,o),
(1011,1004,o),
(988,760,c),
(1071,760,l),
(1082,907,o),
(1104,1040,o),
(1151,1209,c),
(1083,1231,l),
(971,1055,l),
(1061,1065,l),
(1003,1162,o),
(892,1240,o),
(741,1240,cs),
(509,1240,o),
(208,970,o),
(135,640,cs),
(42,227,o),
(188,-32,o),
(504,-32,cs)
);
}
);
};
backgroundImage = {
imagePath = "Mergenthaler docs/Microscope/Italic-33.tiff";
locked = 1;
pos = (-4464,-546);
scale = (5.12,5.12);
};
hints = (
{
name = _corner.universal;
origin = (0,2);
type = Corner;
},
{
name = _corner.universal;
origin = (0,3);
type = Corner;
},
{
name = _corner.universal;
origin = (0,19);
type = Corner;
},
{
name = _corner.universal;
origin = (0,20);
type = Corner;
},
{
name = _corner.universal;
origin = (0,15);
type = Corner;
},
{
name = _corner.universal;
origin = (0,16);
type = Corner;
}
);
layerId = m004;
shapes = (
{
closed = 1;
nodes = (
(728,-30,o),
(886,135,o),
(960,402,c),
(867,428,l),
(793,179,o),
(663,60,o),
(508,60,cs),
(361,60,o),
(286,165,o),
(286,351,cs),
(286,731,o),
(515,1156,o),
(741,1156,cs),
(896,1156,o),
(988,1006,o),
(970,768,c),
(1059,768,l),
(1070,912,o),
(1086,1043,o),
(1133,1209,c),
(1054,1239,l),
(942,1063,l),
(1047,1065,l),
(990,1162,o),
(882,1240,o),
(745,1240,cs),
(412,1240,o),
(101,842,o),
(101,412,cs),
(101,134,o),
(245,-30,o),
(496,-30,cs)
);
}
);
width = 1100;
}
);
unicode = 67;
},
{
glyphname = D;
kernLeft = E;
kernRight = D;
lastChange = "2023-11-28 22:24:04 +0000";
layers = (
{
hints = (
{
name = _corner.universal;
origin = (0,11);
type = Corner;
},
{
name = _corner.universal;
origin = (0,12);
type = Corner;
},
{
name = _corner.universal;
origin = (0,25);
type = Corner;
},
{
name = _corner.universal;
origin = (0,26);
type = Corner;
}
);
layerId = "CA4EC710-46DE-40B5-AF89-3BCF48EEB297";
shapes = (
{
closed = 1;
nodes = (
(1001,-8,o),
(1239,242,o),
(1239,605,cs),
(1239,998,o),
(1011,1218,o),
(615,1218,cs),
(538,1218,o),
(428,1204,o),
(343,1204,cs),
(266,1204,o),
(192,1216,o),
(80,1216,c),
(80,1158,l),
(168,1158,o),
(214,1154,o),
(237,1129,cs),
(254,1111,o),
(260,1064,o),
(260,982,cs),
(260,215,ls),
(260,123,o),
(250,100,o),
(220,80,cs),
(192,62,o),
(152,58,o),
(80,54,c),
(80,-4,l),
(192,-4,o),
(263,6,o),
(354,6,cs),
(432,6,o),
(538,-8,o),
(623,-8,cs)
);
},
{
closed = 1;
nodes = (
(550,52,o),
(477,56,o),
(448,76,cs),
(419,96,o),
(414,143,o),
(414,272,cs),
(414,884,ls),
(414,958,o),
(414,1066,o),
(435,1108,cs),
(457,1153,o),
(535,1158,o),
(594,1158,cs),
(931,1158,o),
(1069,957,o),
(1069,605,cs),
(1069,328,o),
(932,52,o),
(593,52,cs)
);
}
);
width = 1333;
},
{
background = {
shapes = (
{
closed = 1;
nodes = (
(1059,336,o),
(925,72,o),
(593,72,cs),
(550,72,o),
(480,76,o),
(454,94,cs),
(429,111,o),
(424,154,o),
(424,282,cs),
(424,874,ls),
(424,948,o),
(424,1054,o),
(444,1094,cs),
(463,1133,o),
(536,1138,o),
(594,1138,cs),
(925,1138,o),
(1059,946,o),
(1059,605,cs)
);
},
{
closed = 1;
nodes = (
(1249,996,o),
(1015,1218,o),
(615,1218,cs),
(537,1218,o),
(427,1204,o),
(343,1204,cs),
(268,1204,o),
(184,1216,o),
(86,1216,c),
(70,1200,l),
(70,1154,l),
(86,1138,l),
(164,1138,o),
(210,1134,o),
(230,1112,cs),
(244,1097,o),
(250,1053,o),
(250,972,cs),
(250,225,ls),
(250,136,o),
(241,116,o),
(214,98,cs),
(190,82,o),
(148,78,o),
(86,74,c),
(70,58,l),
(70,12,l),
(86,-4,l),
(188,-4,o),
(266,6,o),
(354,6,cs),
(431,6,o),
(537,-8,o),
(623,-8,cs),
(1005,-8,o),
(1249,244,o),
(1249,605,cs)
);
}
);
};
backgroundImage = {
imagePath = "Mergenthaler docs/Microscope/Roman-36.tiff";
locked = 1;
pos = (-1452,-658);
scale = (5.12,5.12);
};
hints = (
{
name = _corner.universal;
origin = (0,11);
type = Corner;
},
{
name = _corner.universal;
origin = (0,12);
type = Corner;
},
{
name = _corner.universal;
origin = (0,25);
type = Corner;
},
{
name = _corner.universal;
origin = (0,26);
type = Corner;
}
);
layerId = "25879A17-30FE-49F5-8BDD-4D78448C8558";
shapes = (
{
closed = 1;
nodes = (
(1005,-8,o),
(1249,244,o),
(1249,605,cs),
(1249,996,o),
(1015,1218,o),
(615,1218,cs),
(537,1218,o),
(427,1204,o),
(343,1204,cs),
(264,1204,o),
(184,1216,o),
(70,1216,c),
(70,1138,l),
(164,1138,o),
(209,1135,o),
(230,1112,cs),
(244,1097,o),
(250,1053,o),
(250,972,cs),
(250,225,ls),
(250,136,o),
(241,116,o),
(214,98,cs),
(188,81,o),
(148,78,o),
(70,73,c),
(70,-4,l),
(188,-4,o),
(261,6,o),
(354,6,cs),
(431,6,o),
(537,-8,o),
(623,-8,cs)
);
},
{
closed = 1;
nodes = (
(550,72,o),
(480,76,o),
(454,94,cs),
(429,111,o),
(424,154,o),
(424,282,cs),
(424,874,ls),
(424,948,o),
(424,1054,o),
(444,1094,cs),
(463,1133,o),
(536,1138,o),
(594,1138,cs),
(925,1138,o),
(1059,946,o),
(1059,605,cs),
(1059,336,o),
(925,72,o),
(593,72,cs)
);
}
);
width = 1333;
},
{
backgroundImage = {
imagePath = "Mergenthaler docs/Kursiv/uppercase.tif";
locked = 1;
pos = (-4688,-472);
scale = (189.9767,189.9767);
};
hints = (
{
name = _corner.universal;
origin = (0,11);
type = Corner;
},
{
name = _corner.universal;
origin = (0,12);
type = Corner;
},
{
name = _corner.universal;
origin = (0,25);
type = Corner;
},
{
name = _corner.universal;
origin = (0,26);
type = Corner;
}
);
layerId = master01;
shapes = (
{
closed = 1;
nodes = (
(889,-8,o),
(1148,155,o),
(1246,550,cs),
(1337,914,o),
(1178,1218,o),
(823,1218,cs),
(747,1218,o),
(647,1204,o),
(566,1204,cs),
(495,1204,o),
(401,1215,o),
(302,1216,c),
(302,1158,l),
(384,1153,o),
(417,1135,o),
(428,1108,cs),
(442,1077,o),
(430,1036,o),
(416,980,cs),
(224,212,ls),
(211,160,o),
(194,124,o),
(171,101,cs),
(149,78,o),
(112,59,o),
(42,54,c),
(42,-4,l),
(118,-3,o),
(208,6,o),
(252,6,cs),
(346,6,o),
(437,-8,o),
(536,-8,cs)
);
},
{
closed = 1;
nodes = (
(444,52,o),
(404,66,o),
(384,86,cs),
(359,111,o),
(365,152,o),
(396,274,cs),
(562,934,ls),
(583,1017,o),
(601,1080,o),
(636,1113,cs),
(670,1145,o),
(738,1158,o),
(812,1158,cs),
(1071,1158,o),
(1169,928,o),
(1076,546,cs),
(1003,247,o),
(852,52,o),
(531,52,cs)
);
}
);
width = 1333;
},
{
background = {
shapes = (
{
ref = B;
}
);
};
backgroundImage = {
imagePath = "Mergenthaler docs/Microscope/Italic-32.tiff";
locked = 1;
pos = (-949,-538);
scale = (5.12,5.12);
};
hints = (
{
name = _corner.universal;
origin = (0,11);
type = Corner;
},
{
name = _corner.universal;
origin = (0,12);
type = Corner;
},
{
name = _corner.universal;
origin = (0,25);
type = Corner;
},
{
name = _corner.universal;
origin = (0,26);
type = Corner;
}
);
layerId = m004;
shapes = (
{
closed = 1;
nodes = (
(903,-8,o),
(1167,154,o),
(1265,548,cs),
(1357,917,o),
(1192,1218,o),
(829,1218,cs),
(750,1218,o),
(648,1204,o),
(566,1204,cs),
(491,1204,o),
(391,1216,o),
(286,1216,c),
(286,1139,l),
(380,1135,o),
(415,1118,o),
(425,1094,cs),
(437,1066,o),
(426,1029,o),
(412,972,cs),
(226,225,ls),
(213,173,o),
(198,140,o),
(176,118,cs),
(155,97,o),
(124,77,o),
(58,73,c),
(58,-4,l),
(132,-4,o),
(225,6,o),
(268,6,cs),
(360,6,o),
(449,-8,o),
(548,-8,cs)
);
},
{
closed = 1;
nodes = (
(458,72,o),
(421,85,o),
(403,103,cs),
(382,124,o),
(389,161,o),
(419,282,cs),
(578,921,ls),
(598,1003,o),
(616,1065,o),
(649,1096,cs),
(680,1125,o),
(745,1138,o),
(818,1138,cs),
(1070,1138,o),
(1167,924,o),
(1075,548,cs),
(1004,258,o),
(856,72,o),
(543,72,cs)
);
}
);
width = 1333;
}
);
unicode = 68;
},
{
glyphname = E;
kernLeft = E;
kernRight = E;
lastChange = "2023-11-28 22:33:37 +0000";
layers = (
{
anchors = (
{
name = top;
pos = (625,1210);
}
);
hints = (
{
name = _corner.universal;
origin = (0,19);
type = Corner;
},
{
name = _corner.universal;
origin = (0,20);
type = Corner;
},
{
name = _corner.universal;
origin = (0,33);
type = Corner;
},
{
name = _corner.universal;
origin = (0,34);
type = Corner;
},
{
name = _corner.universal;
origin = (0,44);
type = Corner;
},
{
name = _corner.universal;
origin = (0,45);
type = Corner;
},
{
name = _corner.universal;
origin = (0,41);
type = Corner;
},
{
name = _corner.universal;
origin = (1,2);
type = Corner;
},
{
name = _corner.universal;
origin = (1,3);
type = Corner;
},
{
name = _corner.universal;
origin = (1,9);
type = Corner;
},
{
name = _corner.universal;
origin = (1,10);
type = Corner;
},
{
name = _corner.universal;
origin = (0,8);
type = Corner;
},
{
name = _corner.universal;
origin = (0,9);
type = Corner;
},
{
name = _corner.universal;
origin = (0,12);
type = Corner;
}
);
layerId = "CA4EC710-46DE-40B5-AF89-3BCF48EEB297";
shapes = (
{
closed = 1;
nodes = (
(411,1015,o),
(411,1087,o),
(432,1111,cs),
(461,1145,o),
(532,1150,o),
(601,1150,cs),
(890,1150,o),
(957,1076,o),
(1025,832,c),
(1085,832,l),
(1073,967,o),
(1065,1092,o),
(1059,1229,c),
(864,1214,o),
(689,1210,o),
(540,1210,cs),
(347,1210,ls),
(277,1210,o),
(186,1216,o),
(77,1216,c),
(77,1158,l),
(166,1158,o),
(212,1153,o),
(234,1129,cs),
(251,1111,o),
(257,1064,o),
(257,982,cs),
(257,215,ls),
(257,123,o),
(247,100,o),
(217,80,cs),
(192,63,o),
(150,58,o),
(93,55,c),
(93,-4,l),
(203,-4,o),
(265,0,o),
(331,0,cs),
(679,0,ls),
(810,0,o),
(937,-3,o),
(1081,-8,c),
(1089,133,o),
(1104,267,o),
(1121,410,c),
(1060,410,l),
(985,127,o),
(916,60,o),
(630,60,cs),
(553,60,o),
(462,64,o),
(438,84,cs),
(411,107,o),
(411,197,o),
(411,272,cs),
(411,932,ls)
);
},
{
closed = 1;
nodes = (
(674,587,o),
(710,534,o),
(738,351,c),
(803,351,l),
(793,445,o),
(788,514,o),
(788,592,cs),
(788,663,o),
(794,750,o),
(805,875,c),
(745,875,l),
(711,715,o),
(685,647,o),
(543,647,cs),
(340,647,l),
(340,587,l),
(521,587,ls)
);
}
);
userData = {
com.typemytype.robofont.mark = (
0.656,
1,
0.6,
1
);
};
width = 1200;
},
{
anchors = (
{
name = top;
pos = (625,1210);
}
);
background = {
shapes = (
{
closed = 1;
nodes = (
(421,1004,o),
(421,1074,o),
(439,1094,cs),
(466,1125,o),
(533,1130,o),
(601,1130,cs),
(887,1130,o),
(950,1059,o),
(1014,825,c),
(1031,811,l),
(1082,811,l),
(1096,827,l),
(1083,956,o),
(1075,1085,o),
(1069,1213,c),
(1052,1228,l),
(870,1214,o),
(692,1210,o),
(540,1210,cs),
(347,1210,ls),
(275,1210,o),
(181,1216,o),
(83,1216,c),
(67,1200,l),
(67,1154,l),
(83,1138,l),
(161,1138,o),
(207,1134,o),
(227,1112,cs),
(241,1097,o),
(247,1053,o),
(247,972,cs),
(247,225,ls),
(247,136,o),
(238,116,o),
(211,98,cs),
(187,82,o),
(145,78,o),
(83,74,c),
(67,58,l),
(67,12,l),
(83,-4,l),
(200,-4,o),
(263,0,o),
(331,0,cs),
(679,0,ls),
(813,0,o),
(943,-4,o),
(1077,-8,c),
(1093,8,l),
(1098,140,o),
(1114,280,o),
(1130,414,c),
(1114,430,l),
(1066,430,l),
(1048,416,l),
(976,144,o),
(913,80,o),
(630,80,cs),
(553,80,o),
(475,81,o),
(445,101,cs),
(418,119,o),
(421,207,o),
(421,282,cs),
(421,922,ls)
);
},
{
closed = 1;
nodes = (
(670,577,o),
(702,528,o),
(727,355,c),
(748,341,l),
(796,341,l),
(812,357,l),
(803,440,o),
(798,511,o),
(798,592,cs),
(798,665,o),
(804,754,o),
(815,869,c),
(799,885,l),
(751,885,l),
(733,871,l),
(702,720,o),
(680,657,o),
(543,657,cs),
(330,657,l),
(330,577,l),
(521,577,ls)
);
}
);
};
backgroundImage = {
imagePath = "Mergenthaler docs/Microscope/Roman-36.tiff";
locked = 1;
pos = (-3063,-670);
scale = (5.12,5.12);
};
hints = (
{
name = _corner.universal;
origin = (0,19);
type = Corner;
},
{
name = _corner.universal;
origin = (0,20);
type = Corner;
},
{
name = _corner.universal;
origin = (0,33);
type = Corner;
},
{
name = _corner.universal;
origin = (0,34);
type = Corner;
},
{
name = _corner.universal;
origin = (0,44);
type = Corner;
},
{
name = _corner.universal;
origin = (0,45);
type = Corner;
},
{
name = _corner.universal;
origin = (0,41);
type = Corner;
},
{
name = _corner.universal;
origin = (1,2);
type = Corner;
},
{
name = _corner.universal;
origin = (1,3);
type = Corner;
},
{
name = _corner.universal;
origin = (1,9);
type = Corner;
},
{
name = _corner.universal;
origin = (1,10);
type = Corner;
},
{
name = _corner.universal;
origin = (0,8);
type = Corner;
},
{
name = _corner.universal;
origin = (0,9);
type = Corner;
},
{
name = _corner.universal;
origin = (0,12);
type = Corner;
}
);
layerId = "25879A17-30FE-49F5-8BDD-4D78448C8558";
shapes = (
{
closed = 1;
nodes = (
(421,1028,o),
(424,1089,o),
(452,1107,cs),
(472,1120,o),
(533,1130,o),
(643,1130,cs),
(875,1130,o),
(952,1057,o),
(1019,801,c),
(1096,810,l),
(1083,955,o),
(1075,1085,o),
(1068,1230,c),
(870,1214,o),
(692,1210,o),
(540,1210,cs),
(347,1210,ls),
(275,1210,o),
(181,1216,o),
(67,1216,c),
(67,1138,l),
(161,1138,o),
(207,1134,o),
(227,1112,cs),
(241,1097,o),
(247,1053,o),
(247,972,cs),
(247,225,ls),
(247,136,o),
(238,116,o),
(211,98,cs),
(187,82,o),
(145,78,o),
(83,74,c),
(83,-4,l),
(200,-4,o),
(263,0,o),
(331,0,cs),
(679,0,ls),
(813,0,o),
(943,-3,o),
(1091,-8,c),
(1098,145,o),
(1115,290,o),
(1133,445,c),
(1053,455,l),
(1009,182,o),
(906,80,o),
(662,80,cs),
(564,80,o),
(475,88,o),
(450,109,cs),
(421,133,o),
(421,207,o),
(421,282,cs),
(421,922,ls)
);
},
{
closed = 1;
nodes = (
(692,577,o),
(710,528,o),
(729,341,c),
(814,341,l),
(803,440,o),
(798,511,o),
(798,592,cs),
(798,665,o),
(804,754,o),
(816,885,c),
(737,885,l),
(710,738,o),
(667,657,o),
(578,657,cs),
(330,657,l),
(330,577,l),
(577,577,ls)
);
}
);
width = 1200;
},
{
anchors = (
{
name = top;
pos = (785,1210);
}
);
backgroundImage = {
imagePath = "Mergenthaler docs/Kursiv/uppercase.tif";
locked = 1;
pos = (-6317,-457);
scale = (189.9767,189.9767);
};
hints = (
{
name = _corner.universal;
origin = (0,19);
type = Corner;
},
{
name = _corner.universal;
origin = (0,20);
type = Corner;
},
{
name = _corner.universal;
origin = (0,33);
type = Corner;
},
{
name = _corner.universal;
origin = (0,34);
type = Corner;
},
{
name = _corner.universal;
origin = (0,44);
type = Corner;
},
{
name = _corner.universal;
origin = (0,45);
type = Corner;
},
{
name = _corner.universal;
origin = (0,41);
type = Corner;
},
{
name = _corner.universal;
origin = (1,2);
type = Corner;
},
{
name = _corner.universal;
origin = (1,3);
type = Corner;
},
{
name = _corner.universal;
origin = (1,9);
type = Corner;
},
{
name = _corner.universal;
origin = (1,10);
type = Corner;
},
{
name = _corner.universal;
origin = (0,8);
type = Corner;
},
{
name = _corner.universal;
origin = (0,9);
type = Corner;
},
{
name = _corner.universal;
origin = (0,12);
type = Corner;
}
);
layerId = master01;
shapes = (
{
closed = 1;
nodes = (
(582,1017,o),
(601,1081,o),
(636,1113,cs),
(666,1141,o),
(731,1150,o),
(799,1150,cs),
(1009,1150,o),
(1071,1059,o),
(1044,771,c),
(1110,771,l),
(1118,928,o),
(1158,1090,o),
(1199,1228,c),
(1005,1215,o),
(908,1210,o),
(759,1210,cs),
(566,1210,ls),
(493,1210,o),
(401,1216,o),
(302,1216,c),
(302,1159,l),
(384,1154,o),
(418,1135,o),
(428,1108,cs),
(439,1079,o),
(430,1037,o),
(416,980,cs),
(224,212,ls),
(210,160,o),
(194,124,o),
(171,101,cs),
(149,78,o),
(112,59,o),
(42,54,c),
(42,-4,l),
(114,-4,o),
(201,0,o),
(242,0,cs),
(590,0,ls),
(722,0,o),
(788,-4,o),
(935,-8,c),
(961,148,o),
(1006,306,o),
(1051,450,c),
(988,450,l),
(899,187,o),
(789,60,o),
(533,60,cs),
(446,60,o),
(403,67,o),
(384,86,cs),
(359,111,o),
(366,152,o),
(396,274,cs),
(562,934,ls)
);
},
{
closed = 1;
nodes = (
(696,587,o),
(745,553,o),
(717,368,c),
(773,362,l),
(786,452,o),
(803,518,o),
(822,594,cs),
(839,661,o),
(865,743,o),
(905,847,c),
(851,865,l),
(781,688,o),
(728,647,o),
(589,647,cs),
(388,647,l),
(373,587,l),
(585,587,ls)
);
}
);
width = 1200;
},
{
anchors = (
{
name = top;
pos = (785,1210);
}
);
background = {
shapes = (
{
ref = B;
}
);
};
backgroundImage = {
imagePath = "Mergenthaler docs/Microscope/Italic-32.tiff";
locked = 1;
pos = (-2567,-536);
scale = (5.12,5.12);
};
hints = (
{
name = _corner.universal;
origin = (0,19);
type = Corner;
},
{
name = _corner.universal;
origin = (0,20);
type = Corner;
},
{
name = _corner.universal;
origin = (0,33);
type = Corner;
},
{
name = _corner.universal;
origin = (0,34);
type = Corner;
},
{
name = _corner.universal;
origin = (0,44);
type = Corner;
},
{
name = _corner.universal;
origin = (0,45);
type = Corner;
},
{
name = _corner.universal;
origin = (0,41);
type = Corner;
},
{
name = _corner.universal;
origin = (1,2);
type = Corner;
},
{
name = _corner.universal;
origin = (1,3);
type = Corner;
},
{
name = _corner.universal;
origin = (1,9);
type = Corner;
},
{
name = _corner.universal;
origin = (1,10);
type = Corner;
},
{
name = _corner.universal;
origin = (0,8);
type = Corner;
},
{
name = _corner.universal;
origin = (0,9);
type = Corner;
},
{
name = _corner.universal;
origin = (0,12);
type = Corner;
}
);
layerId = m004;
shapes = (
{
closed = 1;
nodes = (
(598,1004,o),
(616,1065,o),
(649,1096,cs),
(676,1121,o),
(738,1130,o),
(794,1130,cs),
(994,1130,o),
(1050,1041,o),
(1021,745,c),
(1107,745,l),
(1115,911,o),
(1157,1084,o),
(1201,1229,c),
(1005,1215,o),
(911,1210,o),
(765,1210,cs),
(566,1210,ls),
(489,1210,o),
(391,1216,o),
(286,1216,c),
(286,1139,l),
(380,1135,o),
(416,1118,o),
(425,1094,cs),
(435,1068,o),
(426,1029,o),
(412,972,cs),
(226,225,ls),
(213,173,o),
(198,140,o),
(176,118,cs),
(155,97,o),
(124,77,o),
(58,73,c),
(58,-4,l),
(129,-4,o),
(218,0,o),
(259,0,cs),
(602,0,ls),
(730,0,o),
(793,-4,o),
(939,-8,c),
(966,155,o),
(1013,320,o),
(1061,470,c),
(983,491,l),
(896,212,o),
(793,80,o),
(545,80,cs),
(459,80,o),
(419,87,o),
(403,103,cs),
(382,124,o),
(389,161,o),
(419,282,cs),
(578,922,ls)
);
},
{
closed = 1;
nodes = (
(690,577,o),
(733,545,o),
(702,359,c),
(778,351,l),
(792,445,o),
(809,513,o),
(829,592,cs),
(846,660,o),
(873,745,o),
(915,853,c),
(842,877,l),
(772,696,o),
(723,657,o),
(586,657,cs),
(423,657,l),
(403,577,l),
(582,577,ls)
);
}
);
width = 1200;
}
);
unicode = 69;
},
{
glyphname = F;
kernLeft = E;
lastChange = "2023-11-28 22:36:31 +0000";
layers = (
{
hints = (
{
name = _corner.universal;
origin = (0,19);
type = Corner;
},
{
name = _corner.universal;
origin = (0,20);
type = Corner;
},
{
name = _corner.universal;
origin = (0,33);
type = Corner;
},
{
name = _corner.universal;
origin = (0,34);
type = Corner;
},
{
name = _corner.universal;
origin = (0,40);
type = Corner;
},
{
name = _corner.universal;
origin = (0,41);
type = Corner;
},
{
name = _corner.universal;
origin = (1,2);
type = Corner;
},
{
name = _corner.universal;
origin = (1,3);
type = Corner;
},
{
name = _corner.universal;
origin = (1,9);
type = Corner;
},
{
name = _corner.universal;
origin = (1,10);
type = Corner;
},
{
name = _corner.universal;
origin = (0,8);
type = Corner;
},
{
name = _corner.universal;
origin = (0,9);
type = Corner;
},
{
name = _corner.universal;
origin = (0,12);
type = Corner;
}
);
layerId = "CA4EC710-46DE-40B5-AF89-3BCF48EEB297";
shapes = (
{
closed = 1;
nodes = (
(411,983,o),
(414,1075,o),
(430,1104,cs),
(452,1143,o),
(524,1150,o),
(625,1150,cs),
(907,1150,o),
(932,1060,o),
(985,797,c),
(1047,797,l),
(1033,929,o),
(1023,1085,o),
(1024,1228,c),
(839,1214,o),
(674,1210,o),
(546,1210,cs),
(347,1210,ls),
(273,1210,o),
(177,1216,o),
(77,1216,c),
(77,1158,l),
(160,1158,o),
(211,1154,o),
(234,1129,cs),
(251,1111,o),
(257,1064,o),
(257,982,cs),
(257,217,ls),
(257,125,o),
(247,102,o),
(217,82,cs),
(190,64,o),
(143,59,o),
(77,56,c),
(77,-2,l),
(197,-2,o),
(261,6,o),
(344,6,cs),
(450,6,o),
(552,-4,o),
(629,-4,c),
(629,58,l),
(520,61,o),
(460,70,o),
(440,86,cs),
(418,105,o),
(411,150,o),
(411,208,cs),
(411,904,ls)
);
},
{
closed = 1;
nodes = (
(643,589,o),
(694,522,o),
(716,313,c),
(782,313,l),
(769,419,o),
(767,511,o),
(767,605,cs),
(767,668,o),
(771,759,o),
(785,889,c),
(723,889,l),
(694,709,o),
(648,649,o),
(506,649,cs),
(319,649,l),
(319,589,l),
(500,589,ls)
);
}
);
userData = {
com.typemytype.robofont.mark = (
0.656,
1,
0.6,
1
);
};
width = 1100;
},
{
background = {
shapes = (
{
closed = 1;
nodes = (
(421,973,o),
(424,1062,o),
(439,1089,cs),
(458,1123,o),
(525,1130,o),
(625,1130,cs),
(897,1130,o),
(922,1049,o),
(974,791,c),
(991,777,l),
(1042,777,l),
(1056,793,l),
(1043,922,o),
(1034,1073,o),
(1034,1213,c),
(1017,1228,l),
(835,1214,o),
(672,1210,o),
(546,1210,cs),
(347,1210,ls),
(275,1210,o),
(181,1216,o),
(83,1216,c),
(67,1200,l),
(67,1154,l),
(83,1138,l),
(161,1138,o),
(207,1134,o),
(227,1112,cs),
(241,1097,o),
(247,1053,o),
(247,972,cs),
(247,227,ls),
(247,138,o),
(238,118,o),
(211,100,cs),
(187,84,o),
(145,80,o),
(83,76,c),
(67,60,l),
(67,14,l),
(83,-2,l),
(200,-2,o),
(263,6,o),
(344,6,cs),
(447,6,o),
(547,-4,o),
(623,-4,c),
(639,12,l),
(639,62,l),
(623,78,l),
(519,81,o),
(463,90,o),
(447,104,cs),
(428,120,o),
(421,161,o),
(421,218,cs),
(421,894,ls)
);
},
{
closed = 1;
nodes = (
(636,579,o),
(684,518,o),
(706,317,c),
(727,303,l),
(775,303,l),
(791,319,l),
(779,422,o),
(777,513,o),
(777,605,cs),
(777,667,o),
(781,756,o),
(794,883,c),
(778,899,l),
(730,899,l),
(712,885,l),
(684,713,o),
(640,659,o),
(506,659,cs),
(309,659,l),
(309,579,l),
(500,579,ls)
);
}
);
};
backgroundImage = {
imagePath = "Mergenthaler docs/Microscope/Roman-35.tiff";
locked = 1;
pos = (-1784,-649);
scale = (5.12,5.12);
};
hints = (
{
name = _corner.universal;
origin = (0,19);
type = Corner;
},
{
name = _corner.universal;
origin = (0,20);
type = Corner;
},
{
name = _corner.universal;
origin = (0,33);
type = Corner;
},
{
name = _corner.universal;
origin = (0,34);
type = Corner;
},
{
name = _corner.universal;
origin = (0,40);
type = Corner;
},
{
name = _corner.universal;
origin = (0,41);
type = Corner;
},
{
name = _corner.universal;
origin = (1,2);
type = Corner;
},
{
name = _corner.universal;
origin = (1,3);
type = Corner;
},
{
name = _corner.universal;
origin = (1,9);
type = Corner;
},
{
name = _corner.universal;
origin = (1,10);
type = Corner;
},
{
name = _corner.universal;
origin = (0,8);
type = Corner;
},
{
name = _corner.universal;
origin = (0,9);
type = Corner;
},
{
name = _corner.universal;
origin = (0,12);
type = Corner;
}
);
layerId = "25879A17-30FE-49F5-8BDD-4D78448C8558";
shapes = (
{
closed = 1;
nodes = (
(421,1053,o),
(432,1101,o),
(458,1116,cs),
(477,1127,o),
(513,1130,o),
(618,1130,cs),
(905,1130,o),
(937,1053,o),
(981,761,c),
(1059,771,l),
(1043,910,o),
(1033,1077,o),
(1034,1229,c),
(845,1214,o),
(676,1210,o),
(546,1210,cs),
(347,1210,ls),
(271,1210,o),
(171,1216,o),
(67,1216,c),
(67,1138,l),
(155,1138,o),
(206,1135,o),
(227,1112,cs),
(241,1097,o),
(247,1053,o),
(247,972,cs),
(247,227,ls),
(247,138,o),
(238,118,o),
(211,100,cs),
(185,83,o),
(138,79,o),
(67,75,c),
(67,-2,l),
(194,-2,o),
(259,6,o),
(344,6,cs),
(454,6,o),
(561,-4,o),
(639,-4,c),
(639,78,l),
(525,80,o),
(464,89,o),
(447,104,cs),
(428,120,o),
(421,161,o),
(421,218,cs),
(421,894,ls)
);
},
{
closed = 1;
nodes = (
(666,579,o),
(681,519,o),
(707,303,c),
(793,303,l),
(779,413,o),
(777,508,o),
(777,605,cs),
(777,670,o),
(781,763,o),
(796,899,c),
(714,899,l),
(686,716,o),
(653,659,o),
(536,659,cs),
(309,659,l),
(309,579,l),
(546,579,ls)
);
}
);
width = 1100;
},
{
backgroundImage = {
imagePath = "Mergenthaler docs/Kursiv/uppercase.tif";
locked = 1;
pos = (-7790,-460);
scale = (189.9767,189.9767);
};
hints = (
{
name = _corner.universal;
origin = (0,19);
type = Corner;
},
{
name = _corner.universal;
origin = (0,20);
type = Corner;
},
{
name = _corner.universal;
origin = (0,33);
type = Corner;
},
{
name = _corner.universal;
origin = (0,34);
type = Corner;
},
{
name = _corner.universal;
origin = (0,40);
type = Corner;
},
{
name = _corner.universal;
origin = (0,41);
type = Corner;
},
{
name = _corner.universal;
origin = (1,2);
type = Corner;
},
{
name = _corner.universal;
origin = (1,3);
type = Corner;
},
{
name = _corner.universal;
origin = (1,9);
type = Corner;
},
{
name = _corner.universal;
origin = (1,10);
type = Corner;
},
{
name = _corner.universal;
origin = (0,8);
type = Corner;
},
{
name = _corner.universal;
origin = (0,9);
type = Corner;
},
{
name = _corner.universal;
origin = (0,12);
type = Corner;
}
);
layerId = master01;
shapes = (
{
closed = 1;
nodes = (
(575,986,o),
(601,1080,o),
(636,1113,cs),
(666,1143,o),
(714,1150,o),
(770,1150,cs),
(966,1150,o),
(1020,1043,o),
(992,771,c),
(1047,771,l),
(1065,938,o),
(1087,1073,o),
(1130,1228,c),
(944,1214,o),
(770,1210,o),
(764,1210,cs),
(565,1210,ls),
(486,1210,o),
(387,1216,o),
(281,1216,c),
(281,1159,l),
(379,1154,o),
(416,1138,o),
(428,1108,cs),
(442,1077,o),
(429,1036,o),
(415,980,cs),
(224,215,ls),
(210,160,o),
(194,124,o),
(171,101,cs),
(149,78,o),
(112,60,o),
(42,55,c),
(42,-2,l),
(141,-2,o),
(191,6,o),
(290,6,cs),
(380,6,o),
(482,-4,o),
(559,-5,c),
(559,54,l),
(443,58,o),
(402,68,o),
(384,86,cs),
(360,110,o),
(366,153,o),
(380,210,cs),
(555,907,ls)
);
},
{
closed = 1;
nodes = (
(674,589,o),
(712,547,o),
(683,329,c),
(740,323,l),
(755,429,o),
(773,507,o),
(795,596,cs),
(811,660,o),
(833,737,o),
(868,836,c),
(814,853,l),
(744,678,o),
(699,649,o),
(562,649,cs),
(361,649,l),
(346,589,l),
(558,589,ls)
);
}
);
width = 1100;
},
{
background = {
hints = (
{
name = _corner.universal;
place = (1030,0);
type = Corner;
},
{
name = _corner.universal;
place = (1116,0);
type = Corner;
},
{
name = _corner.universal;
place = (1210,0);
type = Corner;
},
{
name = _corner.universal;
place = (289,0);
type = Corner;
},
{
name = _corner.universal;
place = (289,0);
type = Corner;
},
{
name = _corner.universal;
place = (35,0);
type = Corner;
},
{
name = _corner.universal;
place = (35,0);
type = Corner;
},
{
name = _corner.universal;
place = (946,0);
type = Corner;
},
{
name = _corner.universal;
place = (1068,0);
type = Corner;
},
{
name = _corner.universal;
place = (984,0);
type = Corner;
},
{
name = _corner.universal;
place = (708,0);
type = Corner;
},
{
name = _corner.universal;
place = (785,0);
type = Corner;
},
{
name = _corner.universal;
place = (927,0);
type = Corner;
},
{
name = _corner.universal;
place = (848,0);
type = Corner;
},
{
name = _corner.universal;
place = (978,0);
type = Corner;
},
{
name = _corner.universal;
place = (1053,0);
type = Corner;
},
{
name = _corner.universal;
place = (1141,0);
type = Corner;
},
{
name = _corner.universal;
place = (268,0);
type = Corner;
},
{
name = _corner.universal;
place = (268,0);
type = Corner;
},
{
name = _corner.universal;
place = (35,0);
type = Corner;
},
{
name = _corner.universal;
place = (35,0);
type = Corner;
},
{
name = _corner.universal;
place = (572,0);
type = Corner;
},
{
name = _corner.universal;
place = (572,0);
type = Corner;
},
{
name = _corner.universal;
place = (676,0);
type = Corner;
},
{
name = _corner.universal;
place = (753,0);
type = Corner;
},
{
name = _corner.universal;
place = (888,0);
type = Corner;
},
{
name = _corner.universal;
place = (809,0);
type = Corner;
}
);
shapes = (
{
ref = B;
}
);
};
backgroundImage = {
imagePath = "Mergenthaler docs/Microscope/Italic-32.tiff";
locked = 1;
pos = (-4001,-540);
scale = (5.12,5.12);
};
hints = (
{
name = _corner.universal;
origin = (0,19);
type = Corner;
},
{
name = _corner.universal;
origin = (0,20);
type = Corner;
},
{
name = _corner.universal;
origin = (0,33);
type = Corner;
},
{
name = _corner.universal;
origin = (0,34);
type = Corner;
},
{
name = _corner.universal;
origin = (0,40);
type = Corner;
},
{
name = _corner.universal;
origin = (0,41);
type = Corner;
},
{
name = _corner.universal;
origin = (1,2);
type = Corner;
},
{
name = _corner.universal;
origin = (1,3);
type = Corner;
},
{
name = _corner.universal;
origin = (1,9);
type = Corner;
},
{
name = _corner.universal;
origin = (1,10);
type = Corner;
},
{
name = _corner.universal;
origin = (0,8);
type = Corner;
},
{
name = _corner.universal;
origin = (0,9);
type = Corner;
},
{
name = _corner.universal;
origin = (0,12);
type = Corner;
}
);
layerId = m004;
shapes = (
{
closed = 1;
nodes = (
(611,1054,o),
(628,1092,o),
(664,1110,cs),
(695,1126,o),
(738,1130,o),
(785,1130,cs),
(958,1130,o),
(998,1020,o),
(981,751,c),
(1062,751,l),
(1069,927,o),
(1091,1066,o),
(1144,1229,c),
(1016,1219,o),
(869,1210,o),
(747,1210,cs),
(577,1210,ls),
(497,1210,o),
(395,1216,o),
(286,1216,c),
(286,1139,l),
(382,1135,o),
(414,1120,o),
(425,1094,cs),
(437,1066,o),
(425,1029,o),
(411,972,cs),
(226,227,ls),
(213,173,o),
(198,140,o),
(176,118,cs),
(155,97,o),
(124,78,o),
(58,74,c),
(58,-2,l),
(158,-2,o),
(206,6,o),
(302,6,cs),
(396,6,o),
(503,-5,o),
(581,-5,c),
(581,74,l),
(459,77,o),
(419,87,o),
(403,103,cs),
(383,123,o),
(389,162,o),
(403,218,cs),
(571,894,ls)
);
},
{
closed = 1;
nodes = (
(678,579,o),
(711,541,o),
(681,320,c),
(758,312,l),
(773,423,o),
(791,502,o),
(814,594,cs),
(830,659,o),
(853,739,o),
(890,842,c),
(817,865,l),
(747,686,o),
(706,659,o),
(571,659,cs),
(362,659,l),
(342,579,l),
(567,579,ls)
);
}
);
width = 1100;
}
);
unicode = 70;
},
{
glyphname = G;
kernLeft = G;
kernRight = G;
lastChange = "2023-11-28 22:41:50 +0000";
layers = (
{
anchors = (
{
name = bottom;
pos = (600,0);
},
{
name = top;
pos = (600,1210);
}
);
hints = (
{
name = _corner.universal;
origin = (0,45);
type = Corner;
},
{
name = _corner.universal;
origin = (0,46);
type = Corner;
},
{
name = _corner.universal;
origin = (0,41);
type = Corner;
},
{
name = _corner.universal;
origin = (0,42);
type = Corner;
},
{
name = _corner.universal;
origin = (0,22);
type = Corner;
},
{
name = _corner.universal;
origin = (0,23);
type = Corner;
},
{
name = _corner.universal;
origin = (0,15);
type = Corner;
},
{
name = _corner.universal;
origin = (0,16);
type = Corner;
},
{
name = _corner.universal;
origin = (0,4);
type = Corner;
},
{
name = _corner.universal;
origin = (0,5);
type = Corner;
}
);
layerId = "CA4EC710-46DE-40B5-AF89-3BCF48EEB297";
shapes = (
{
closed = 1;
nodes = (
(750,-30,o),
(889,68,o),
(961,263,c),
(872,203,l),
(972,-8,l),
(1035,-8,l),
(1021,54,o),
(1009,134,o),
(1009,234,cs),
(1009,287,ls),
(1009,381,o),
(1018,422,o),
(1048,444,cs),
(1067,458,o),
(1099,464,o),
(1162,465,c),
(1162,523,l),
(1062,523,o),
(985,516,o),
(917,516,cs),
(841,516,o),
(747,520,o),
(652,520,c),
(652,464,l),
(742,464,o),
(814,461,o),
(838,431,cs),
(852,413,o),
(859,385,o),
(859,331,cs),
(859,148,o),
(745,32,o),
(569,32,cs),
(353,32,o),
(266,246,o),
(266,605,cs),
(266,946,o),
(359,1178,o),
(599,1178,cs),
(782,1178,o),
(891,1063,o),
(932,817,c),
(993,817,l),
(993,950,o),
(995,1087,o),
(1001,1220,c),
(947,1220,l),
(884,1073,l),
(927,1065,l),
(860,1178,o),
(750,1240,o),
(598,1240,cs),
(292,1240,o),
(85,985,o),
(85,605,cs),
(85,215,o),
(275,-30,o),
(554,-30,cs)
);
}
);
userData = {
com.typemytype.robofont.mark = (
0.967,
0.6,
1,
1
);
};
width = 1200;
},
{
anchors = (
{
name = bottom;
pos = (600,0);
},
{
name = top;
pos = (600,1210);
}
);
background = {
shapes = (
{
pos = (8,0);
ref = C;
}
);
};
backgroundImage = {
imagePath = "Mergenthaler docs/Microscope/Roman-35.tiff";
locked = 1;
pos = (-3156,-675);
scale = (5.12,5.12);
};
hints = (
{
name = _corner.universal;
origin = (0,45);
type = Corner;
},
{
name = _corner.universal;
origin = (0,46);
type = Corner;
},
{
name = _corner.universal;
origin = (0,41);
type = Corner;
},
{
name = _corner.universal;
origin = (0,42);
type = Corner;
},
{
name = _corner.universal;
origin = (0,22);
type = Corner;
},
{
name = _corner.universal;
origin = (0,23);
type = Corner;
},
{
name = _corner.universal;
origin = (0,15);
type = Corner;
},
{
name = _corner.universal;
origin = (0,16);
type = Corner;
},
{
name = _corner.universal;
origin = (0,4);
type = Corner;
},
{
name = _corner.universal;
origin = (0,5);
type = Corner;
}
);
layerId = "25879A17-30FE-49F5-8BDD-4D78448C8558";
shapes = (
{
closed = 1;
nodes = (
(763,-30,o),
(910,80,o),
(980,296,c),
(859,214,l),
(970,-17,l),
(1044,5,l),
(1030,65,o),
(1019,142,o),
(1019,242,cs),
(1019,287,ls),
(1019,379,o),
(1028,417,o),
(1054,436,cs),
(1072,449,o),
(1104,455,o),
(1172,455,c),
(1172,533,l),
(1067,533,o),
(987,526,o),
(917,526,cs),
(839,526,o),
(741,530,o),
(642,530,c),
(642,454,l),
(736,454,o),
(809,452,o),
(830,425,cs),
(843,409,o),
(849,383,o),
(849,331,cs),
(849,162,o),
(740,52,o),
(569,52,cs),
(361,52,o),
(276,255,o),
(276,605,cs),
(276,937,o),
(367,1158,o),
(599,1158,cs),
(778,1158,o),
(884,1045,o),
(924,797,c),
(1003,797,l),
(1003,937,o),
(1005,1080,o),
(1012,1220,c),
(935,1220,l),
(874,1087,l),
(946,1041,l),
(879,1168,o),
(761,1240,o),
(598,1240,cs),
(287,1240,o),
(75,983,o),
(75,605,cs),
(75,218,o),
(270,-30,o),
(554,-30,cs)
);
}
);
width = 1200;
},
{
anchors = (
{
name = bottom;
pos = (500,0);
},
{
name = top;
pos = (800,1210);
}
);
backgroundImage = {
imagePath = "Mergenthaler docs/Kursiv/uppercase.tif";
locked = 1;
pos = (-9136,-465);
scale = (189.9767,189.9767);
};
hints = (
{
name = _corner.universal;
origin = (0,41);
type = Corner;
},
{
name = _corner.universal;
origin = (0,42);
type = Corner;
},
{
name = _corner.universal;
origin = (0,45);
type = Corner;
},
{
name = _corner.universal;
origin = (0,46);
type = Corner;
},
{
name = _corner.universal;
origin = (0,15);
type = Corner;
},
{
name = _corner.universal;
origin = (0,16);
type = Corner;
},
{
name = _corner.universal;
origin = (0,22);
type = Corner;
},
{
name = _corner.universal;
origin = (0,23);
type = Corner;
},
{
name = _corner.universal;
origin = (0,4);
type = Corner;
},
{
name = _corner.universal;
origin = (0,5);
type = Corner;
}
);
layerId = master01;
shapes = (
{
closed = 1;
nodes = (
(710,-30,o),
(859,103,o),
(937,325,c),
(837,201,l),
(847,-10,l),
(920,-10,l),
(927,72,o),
(937,132,o),
(962,234,cs),
(973,279,ls),
(997,378,o),
(1016,419,o),
(1043,440,cs),
(1070,462,o),
(1103,465,o),
(1182,465,c),
(1182,523,l),
(1082,523,o),
(1005,516,o),
(937,516,cs),
(862,516,o),
(768,520,o),
(680,520,c),
(680,464,l),
(751,464,o),
(807,460,o),
(830,439,cs),
(850,422,o),
(859,371,o),
(836,295,cs),
(782,119,o),
(657,40,o),
(513,40,cs),
(375,40,o),
(282,151,o),
(282,378,cs),
(282,755,o),
(485,1178,o),
(767,1178,cs),
(945,1178,o),
(1057,1036,o),
(1037,780,c),
(1100,780,l),
(1120,921,o),
(1146,1051,o),
(1195,1213,c),
(1143,1229,l),
(1034,1074,l),
(1079,1072,l),
(1022,1171,o),
(900,1240,o),
(748,1240,cs),
(399,1240,o),
(117,859,o),
(117,426,cs),
(117,141,o),
(266,-30,o),
(501,-30,cs)
);
}
);
width = 1200;
},
{
anchors = (
{
name = bottom;
pos = (500,0);
},
{
name = top;
pos = (800,1210);
}
);
background = {
shapes = (
{
pos = (52,0);
ref = C;
}
);
};
backgroundImage = {
imagePath = "Mergenthaler docs/Microscope/Italic-31.tiff";
locked = 1;
pos = (-1154,-549);
scale = (5.12,5.12);
};
hints = (
{
name = _corner.universal;
origin = (0,41);
type = Corner;
},
{
name = _corner.universal;
origin = (0,42);
type = Corner;
},
{
name = _corner.universal;
origin = (0,45);
type = Corner;
},
{
name = _corner.universal;
origin = (0,46);
type = Corner;
},
{
name = _corner.universal;
origin = (0,15);
type = Corner;
},
{
name = _corner.universal;
origin = (0,16);
type = Corner;
},
{
name = _corner.universal;
origin = (0,22);
type = Corner;
},
{
name = _corner.universal;
origin = (0,23);
type = Corner;
},
{
name = _corner.universal;
origin = (0,4);
type = Corner;
},
{
name = _corner.universal;
origin = (0,5);
type = Corner;
}
);
layerId = m004;
shapes = (
{
closed = 1;
nodes = (
(734,-30,o),
(892,128,o),
(966,383,c),
(826,214,l),
(837,-10,l),
(932,-10,l),
(935,77,o),
(943,137,o),
(969,242,cs),
(980,287,ls),
(1002,378,o),
(1025,413,o),
(1049,432,cs),
(1075,453,o),
(1106,455,o),
(1192,455,c),
(1192,533,l),
(1087,533,o),
(1007,526,o),
(937,526,cs),
(859,526,o),
(761,530,o),
(670,530,c),
(670,454,l),
(745,454,o),
(802,451,o),
(823,432,cs),
(839,418,o),
(844,377,o),
(823,308,cs),
(771,137,o),
(653,60,o),
(516,60,cs),
(382,60,o),
(292,163,o),
(292,378,cs),
(292,746,o),
(492,1158,o),
(764,1158,cs),
(938,1158,o),
(1043,1020,o),
(1021,768,c),
(1111,768,l),
(1126,912,o),
(1153,1043,o),
(1204,1209,c),
(1123,1238,l),
(1012,1055,l),
(1093,1051,l),
(1038,1162,o),
(908,1240,o),
(745,1240,cs),
(391,1240,o),
(107,858,o),
(107,426,cs),
(107,142,o),
(261,-30,o),
(504,-30,cs)
);
}
);
width = 1200;
}
);
unicode = 71;
},
{
glyphname = H;
kernLeft = E;
kernRight = I;
lastChange = "2023-11-28 22:01:41 +0000";
layers = (
{
hints = (
{
name = _corner.universal;
origin = (1,26);
type = Corner;
},
{
name = _corner.universal;
origin = (1,27);
type = Corner;
},
{
name = _corner.universal;
origin = (1,40);
type = Corner;
},
{
name = _corner.universal;
origin = (1,41);
type = Corner;
},
{
name = _corner.universal;
origin = (0,26);
type = Corner;
},
{
name = _corner.universal;
origin = (0,27);
type = Corner;
},
{
name = _corner.universal;
origin = (0,40);
type = Corner;
},
{
name = _corner.universal;
origin = (0,41);
type = Corner;
},
{
name = _corner.universal;
origin = (1,5);
type = Corner;
},
{
name = _corner.universal;
origin = (1,6);
type = Corner;
},
{
name = _corner.universal;
origin = (1,19);
type = Corner;
},
{
name = _corner.universal;
origin = (1,20);
type = Corner;
},
{
name = _corner.universal;
origin = (0,5);
type = Corner;
},
{
name = _corner.universal;
origin = (0,6);
type = Corner;
},
{
name = _corner.universal;
origin = (0,19);
type = Corner;
},
{
name = _corner.universal;
origin = (0,20);
type = Corner;
}
);
layerId = "CA4EC710-46DE-40B5-AF89-3BCF48EEB297";
shapes = (
{
closed = 1;
nodes = (
(934,-2,o),
(993,6,o),
(1063,6,cs),
(1127,6,o),
(1212,-2,o),
(1321,-2,c),
(1321,56,l),
(1236,56,o),
(1182,62,o),
(1163,83,cs),
(1144,104,o),
(1143,151,o),
(1143,208,cs),
(1143,981,ls),
(1143,1075,o),
(1156,1110,o),
(1183,1127,cs),
(1210,1144,o),
(1251,1153,o),
(1323,1154,c),
(1323,1212,l),
(1198,1212,o),
(1139,1204,o),
(1069,1204,cs),
(1005,1204,o),
(918,1212,o),
(809,1212,c),
(809,1154,l),
(895,1152,o),
(950,1151,o),
(968,1129,cs),
(986,1108,o),
(989,1049,o),
(989,987,cs),
(989,217,ls),
(989,125,o),
(978,99,o),
(948,79,cs),
(920,61,o),
(872,56,o),
(809,56,c),
(809,-2,l)
);
},
{
closed = 1;
nodes = (
(202,-2,o),
(261,6,o),
(331,6,cs),
(395,6,o),
(480,-2,o),
(589,-2,c),
(589,56,l),
(500,60,o),
(454,59,o),
(433,82,cs),
(414,103,o),
(411,150,o),
(411,208,cs),
(411,982,ls),
(411,1084,o),
(420,1113,o),
(450,1133,cs),
(477,1151,o),
(536,1154,o),
(591,1154,c),
(591,1212,l),
(466,1212,o),
(407,1204,o),
(337,1204,cs),
(273,1204,o),
(186,1212,o),
(77,1212,c),
(77,1154,l),
(160,1154,o),
(211,1150,o),
(234,1125,cs),
(251,1107,o),
(257,1060,o),
(257,978,cs),
(257,217,ls),
(257,125,o),
(247,102,o),
(217,82,cs),
(190,64,o),
(143,60,o),
(77,56,c),
(77,-2,l)
);
},
{
closed = 1;
nodes = (
(1063,594,l),
(1063,654,l),
(383,654,l),
(383,594,l)
);
}
);
userData = {
com.typemytype.robofont.guides = (
{
angle = 90;
isGlobal = 0;
magnetic = 5;
x = 94;
y = 0;
}
);
com.typemytype.robofont.mark = (
0.656,
1,
0.6,
1
);
};
width = 1400;
},
{
background = {
shapes = (
{
closed = 1;
nodes = (
(932,-2,o),
(995,6,o),
(1063,6,cs),
(1125,6,o),
(1217,-2,o),
(1315,-2,c),
(1331,14,l),
(1331,60,l),
(1315,76,l),
(1235,77,o),
(1186,83,o),
(1171,100,cs),
(1155,119,o),
(1153,161,o),
(1153,218,cs),
(1153,971,ls),
(1153,1062,o),
(1165,1094,o),
(1188,1109,cs),
(1212,1125,o),
(1256,1134,o),
(1317,1134,c),
(1333,1150,l),
(1333,1196,l),
(1317,1212,l),
(1200,1212,o),
(1137,1204,o),
(1069,1204,cs),
(1007,1204,o),
(913,1212,o),
(815,1212,c),
(799,1196,l),
(799,1150,l),
(815,1134,l),
(896,1132,o),
(945,1129,o),
(960,1112,cs),
(976,1093,o),
(979,1038,o),
(979,977,cs),
(979,227,ls),
(979,138,o),
(969,115,o),
(942,97,cs),
(918,81,o),
(867,76,o),
(815,76,c),
(799,60,l),
(799,14,l),
(815,-2,l)
);
},
{
closed = 1;
nodes = (
(200,-2,o),
(263,6,o),
(331,6,cs),
(393,6,o),
(485,-2,o),
(583,-2,c),
(599,14,l),
(599,60,l),
(583,76,l),
(504,80,o),
(458,80,o),
(441,99,cs),
(425,118,o),
(421,161,o),
(421,218,cs),
(421,972,ls),
(421,1072,o),
(429,1097,o),
(456,1115,cs),
(480,1131,o),
(533,1134,o),
(585,1134,c),
(601,1150,l),
(601,1196,l),
(585,1212,l),
(468,1212,o),
(405,1204,o),
(337,1204,cs),
(275,1204,o),
(181,1212,o),
(83,1212,c),
(67,1196,l),
(67,1150,l),
(83,1134,l),
(161,1134,o),
(207,1130,o),
(227,1108,cs),
(241,1093,o),
(247,1049,o),
(247,968,cs),
(247,227,ls),
(247,138,o),
(238,118,o),
(211,100,cs),
(187,84,o),
(145,80,o),
(83,76,c),
(67,60,l),
(67,14,l),
(83,-2,l)
);
},
{
closed = 1;
nodes = (
(1073,584,l),
(1073,664,l),
(373,664,l),
(373,584,l)
);
}
);
};
backgroundImage = {
imagePath = "Mergenthaler docs/Microscope/Roman-34.tiff";
locked = 1;
pos = (-1330,-655);
scale = (5.12,5.12);
};
hints = (
{
name = _corner.universal;
origin = (1,26);
type = Corner;
},
{
name = _corner.universal;
origin = (1,27);
type = Corner;
},
{
name = _corner.universal;
origin = (1,40);
type = Corner;
},
{
name = _corner.universal;
origin = (1,41);
type = Corner;
},
{
name = _corner.universal;
origin = (0,26);
type = Corner;
},
{
name = _corner.universal;
origin = (0,27);
type = Corner;
},
{
name = _corner.universal;
origin = (0,40);
type = Corner;
},
{
name = _corner.universal;
origin = (0,41);
type = Corner;
},
{
name = _corner.universal;
origin = (1,5);
type = Corner;
},
{
name = _corner.universal;
origin = (1,6);
type = Corner;
},
{
name = _corner.universal;
origin = (1,19);
type = Corner;
},
{
name = _corner.universal;
origin = (1,20);
type = Corner;
},
{
name = _corner.universal;
origin = (0,5);
type = Corner;
},
{
name = _corner.universal;
origin = (0,6);
type = Corner;
},
{
name = _corner.universal;
origin = (0,19);
type = Corner;
},
{
name = _corner.universal;
origin = (0,20);
type = Corner;
}
);
layerId = "25879A17-30FE-49F5-8BDD-4D78448C8558";
shapes = (
{
closed = 1;
nodes = (
(932,-2,o),
(992,6,o),
(1063,6,cs),
(1128,6,o),
(1217,-2,o),
(1331,-2,c),
(1331,76,l),
(1242,76,o),
(1187,82,o),
(1171,100,cs),
(1155,119,o),
(1153,161,o),
(1153,218,cs),
(1153,971,ls),
(1153,1062,o),
(1165,1094,o),
(1188,1109,cs),
(1214,1126,o),
(1256,1134,o),
(1333,1134,c),
(1333,1212,l),
(1200,1212,o),
(1140,1204,o),
(1069,1204,cs),
(1004,1204,o),
(913,1212,o),
(799,1212,c),
(799,1134,l),
(890,1134,o),
(944,1130,o),
(960,1112,cs),
(976,1093,o),
(979,1038,o),
(979,977,cs),
(979,227,ls),
(979,138,o),
(969,115,o),
(942,97,cs),
(916,79,o),
(867,76,o),
(799,76,c),
(799,-2,l)
);
},
{
closed = 1;
nodes = (
(200,-2,o),
(260,6,o),
(331,6,cs),
(396,6,o),
(485,-2,o),
(599,-2,c),
(599,75,l),
(504,77,o),
(459,79,o),
(441,99,cs),
(424,117,o),
(421,161,o),
(421,218,cs),
(421,972,ls),
(421,1072,o),
(429,1097,o),
(456,1115,cs),
(482,1133,o),
(544,1134,o),
(601,1134,c),
(601,1212,l),
(468,1212,o),
(408,1204,o),
(337,1204,cs),
(272,1204,o),
(181,1212,o),
(67,1212,c),
(67,1134,l),
(155,1134,o),
(206,1131,o),
(227,1108,cs),
(241,1093,o),
(247,1049,o),
(247,968,cs),
(247,227,ls),
(247,138,o),
(238,118,o),
(211,100,cs),
(185,83,o),
(138,79,o),
(67,75,c),
(67,-2,l)
);
},
{
closed = 1;
nodes = (
(1073,584,l),
(1073,664,l),
(373,664,l),
(373,584,l)
);
}
);
width = 1400;
},
{
backgroundImage = {
imagePath = "Mergenthaler docs/Kursiv/uppercase.tif";
locked = 1;
pos = (-10629,-445);
scale = (189.9767,189.9767);
};
hints = (
{
name = _corner.universal;
origin = (1,26);
type = Corner;
},
{
name = _corner.universal;
origin = (1,27);
type = Corner;
},
{
name = _corner.universal;
origin = (1,40);
type = Corner;
},
{
name = _corner.universal;
origin = (1,41);
type = Corner;
},
{
name = _corner.universal;
origin = (0,26);
type = Corner;
},
{
name = _corner.universal;
origin = (0,27);
type = Corner;
},
{
name = _corner.universal;
origin = (0,40);
type = Corner;
},
{
name = _corner.universal;
origin = (0,41);
type = Corner;
},
{
name = _corner.universal;
origin = (1,5);
type = Corner;
},
{
name = _corner.universal;
origin = (1,6);
type = Corner;
},
{
name = _corner.universal;
origin = (1,19);
type = Corner;
},
{
name = _corner.universal;
origin = (1,20);
type = Corner;
},
{
name = _corner.universal;
origin = (0,5);
type = Corner;
},
{
name = _corner.universal;
origin = (0,6);
type = Corner;
},
{
name = _corner.universal;
origin = (0,19);
type = Corner;
},
{
name = _corner.universal;
origin = (0,20);
type = Corner;
}
);
layerId = master01;
shapes = (
{
closed = 1;
nodes = (
(813,-1,o),
(897,6,o),
(963,6,cs),
(1025,6,o),
(1097,-2,o),
(1200,-2,c),
(1200,55,l),
(1130,59,o),
(1098,72,o),
(1084,86,cs),
(1060,110,o),
(1066,152,o),
(1081,210,cs),
(1275,984,ls),
(1296,1069,o),
(1325,1102,o),
(1336,1113,cs),
(1365,1142,o),
(1407,1151,o),
(1460,1154,c),
(1460,1212,l),
(1368,1211,o),
(1304,1204,o),
(1237,1204,cs),
(1174,1204,o),
(1094,1211,o),
(1002,1212,c),
(1002,1154,l),
(1077,1152,o),
(1116,1137,o),
(1128,1108,cs),
(1141,1081,o),
(1130,1037,o),
(1115,976,cs),
(924,215,ls),
(910,160,o),
(894,124,o),
(871,101,cs),
(848,77,o),
(806,59,o),
(742,55,c),
(742,-2,l)
);
},
{
closed = 1;
nodes = (
(113,-1,o),
(197,6,o),
(263,6,cs),
(325,6,o),
(397,-2,o),
(500,-2,c),
(500,55,l),
(430,59,o),
(398,72,o),
(384,86,cs),
(360,110,o),
(366,152,o),
(381,210,cs),
(575,984,ls),
(596,1069,o),
(625,1102,o),
(636,1113,cs),
(668,1145,o),
(716,1154,o),
(760,1155,c),
(760,1212,l),
(668,1211,o),
(604,1204,o),
(537,1204,cs),
(474,1204,o),
(394,1211,o),
(302,1212,c),
(302,1154,l),
(372,1153,o),
(417,1137,o),
(428,1108,cs),
(440,1078,o),
(430,1035,o),
(415,976,cs),
(224,215,ls),
(210,160,o),
(194,124,o),
(171,101,cs),
(148,77,o),
(106,59,o),
(42,55,c),
(42,-2,l)
);
},
{
closed = 1;
nodes = (
(1074,594,l),
(1089,654,l),
(460,654,l),
(445,594,l)
);
}
);
userData = {
com.typemytype.robofont.guides = (
{
angle = 90;
isGlobal = 0;
magnetic = 5;
x = 94;
y = 0;
}
);
};
width = 1400;
},
{
background = {
hints = (
{
name = _corner.universal;
origin = (0,5);
type = Corner;
},
{
name = _corner.universal;
origin = (0,6);
type = Corner;
},
{
name = _corner.universal;
origin = (0,19);
type = Corner;
},
{
name = _corner.universal;
origin = (0,20);
type = Corner;
},
{
name = _corner.universal;
origin = (0,26);
type = Corner;
},
{
name = _corner.universal;
origin = (0,27);
type = Corner;
},
{
name = _corner.universal;
origin = (0,40);
type = Corner;
},
{
name = _corner.universal;
origin = (0,41);
type = Corner;
}
);
shapes = (
{
closed = 1;
nodes = (
(1373,1212,o),
(1288,1204,o),
(1222,1204,cs),
(1160,1204,o),
(1087,1212,o),
(980,1212,c),
(980,1135,l),
(1054,1132,o),
(1086,1120,o),
(1099,1107,cs),
(1119,1087,o),
(1113,1049,o),
(1099,992,cs),
(911,238,ls),
(891,156,o),
(864,125,o),
(853,114,cs),
(821,82,o),
(772,75,o),
(726,75,c),
(726,-2,l),
(827,-2,o),
(894,6,o),
(965,6,cs),
(1032,6,o),
(1117,-2,o),
(1216,-2,c),
(1216,76,l),
(1136,76,o),
(1087,91,o),
(1077,116,cs),
(1066,143,o),
(1076,183,o),
(1091,242,cs),
(1276,983,ls),
(1289,1037,o),
(1304,1070,o),
(1326,1092,cs),
(1348,1114,o),
(1384,1133,o),
(1444,1135,c),
(1444,1212,l)
);
}
);
};
backgroundImage = {
imagePath = "Mergenthaler docs/Microscope/Italic-31.tiff";
locked = 1;
pos = (-2636,-545);
scale = (5.12,5.12);
};
hints = (
{
name = _corner.universal;
origin = (1,26);
type = Corner;
},
{
name = _corner.universal;
origin = (1,27);
type = Corner;
},
{
name = _corner.universal;
origin = (1,40);
type = Corner;
},
{
name = _corner.universal;
origin = (1,41);
type = Corner;
},
{
name = _corner.universal;
origin = (0,26);
type = Corner;
},
{
name = _corner.universal;
origin = (0,27);
type = Corner;
},
{
name = _corner.universal;
origin = (0,40);
type = Corner;
},
{
name = _corner.universal;
origin = (0,41);
type = Corner;
},
{
name = _corner.universal;
origin = (1,5);
type = Corner;
},
{
name = _corner.universal;
origin = (1,6);
type = Corner;
},
{
name = _corner.universal;
origin = (1,19);
type = Corner;
},
{
name = _corner.universal;
origin = (1,20);
type = Corner;
},
{
name = _corner.universal;
origin = (0,5);
type = Corner;
},
{
name = _corner.universal;
origin = (0,6);
type = Corner;
},
{
name = _corner.universal;
origin = (0,19);
type = Corner;
},
{
name = _corner.universal;
origin = (0,20);
type = Corner;
}
);
layerId = m004;
shapes = (
{
closed = 1;
nodes = (
(800,-2,o),
(888,6,o),
(957,6,cs),
(1023,6,o),
(1102,-2,o),
(1216,-2,c),
(1216,75,l),
(1135,78,o),
(1099,89,o),
(1085,103,cs),
(1065,123,o),
(1071,161,o),
(1085,218,cs),
(1273,972,ls),
(1293,1054,o),
(1320,1085,o),
(1331,1096,cs),
(1355,1120,o),
(1382,1132,o),
(1422,1135,c),
(1422,1212,l),
(1339,1212,o),
(1283,1204,o),
(1225,1204,cs),
(1160,1204,o),
(1077,1212,o),
(980,1212,c),
(980,1134,l),
(1059,1133,o),
(1096,1119,o),
(1107,1094,cs),
(1118,1070,o),
(1108,1029,o),
(1093,968,cs),
(908,227,ls),
(895,173,o),
(880,140,o),
(858,118,cs),
(835,95,o),
(796,75,o),
(726,75,c),
(726,-2,l)
);
},
{
closed = 1;
nodes = (
(129,-2,o),
(214,6,o),
(280,6,cs),
(342,6,o),
(415,-2,o),
(522,-2,c),
(522,75,l),
(448,78,o),
(416,90,o),
(403,103,cs),
(383,123,o),
(389,161,o),
(403,218,cs),
(591,972,ls),
(611,1054,o),
(638,1085,o),
(649,1096,cs),
(681,1128,o),
(730,1135,o),
(776,1135,c),
(776,1212,l),
(675,1212,o),
(608,1204,o),
(537,1204,cs),
(470,1204,o),
(385,1212,o),
(286,1212,c),
(286,1134,l),
(366,1134,o),
(415,1119,o),
(425,1094,cs),
(436,1067,o),
(426,1027,o),
(411,968,cs),
(226,227,ls),
(213,173,o),
(198,140,o),
(176,118,cs),
(154,96,o),
(118,77,o),
(58,75,c),
(58,-2,l)
);
},
{
closed = 1;
nodes = (
(1073,584,l),
(1093,664,l),
(461,664,l),
(441,584,l)
);
}
);
userData = {
com.typemytype.robofont.guides = (
{
angle = 90;
isGlobal = 0;
magnetic = 5;
x = 94;
y = 0;
}
);
};
width = 1400;
}
);
unicode = 72;
},
{
glyphname = I;
kernLeft = E;
kernRight = I;
lastChange = "2023-11-28 22:08:46 +0000";
layers = (
{
anchors = (
{
name = top;
pos = (350,1210);
}
);
hints = (
{
name = _corner.universal;
origin = (0,5);
type = Corner;
},
{
name = _corner.universal;
origin = (0,6);
type = Corner;
},
{
name = _corner.universal;
origin = (0,19);
type = Corner;
},
{
name = _corner.universal;
origin = (0,20);
type = Corner;
},
{
name = _corner.universal;
origin = (0,26);
type = Corner;
},
{
name = _corner.universal;
origin = (0,27);
type = Corner;
},
{
name = _corner.universal;
origin = (0,40);
type = Corner;
},
{
name = _corner.universal;
origin = (0,41);
type = Corner;
}
);
layerId = "CA4EC710-46DE-40B5-AF89-3BCF48EEB297";
shapes = (
{
closed = 1;
nodes = (
(218,-2,o),
(277,6,o),
(347,6,cs),
(411,6,o),
(496,-2,o),
(605,-2,c),
(605,56,l),
(521,58,o),
(470,60,o),
(449,82,cs),
(429,102,o),
(427,150,o),
(427,208,cs),
(427,982,ls),
(427,1084,o),
(436,1113,o),
(466,1133,cs),
(493,1152,o),
(552,1154,o),
(607,1154,c),
(607,1212,l),
(482,1212,o),
(423,1204,o),
(353,1204,cs),
(289,1204,o),
(205,1212,o),
(93,1212,c),
(93,1154,l),
(176,1154,o),
(227,1150,o),
(250,1125,cs),
(267,1107,o),
(273,1060,o),
(273,978,cs),
(273,217,ls),
(273,125,o),
(263,102,o),
(233,82,cs),
(206,64,o),
(159,59,o),
(93,56,c),
(93,-2,l)
);
}
);
userData = {
com.typemytype.robofont.mark = (
0.656,
1,
0.6,
1
);
};
width = 668;
},
{
anchors = (
{
name = top;
pos = (334,1210);
}
);
background = {
shapes = (
{
closed = 1;
nodes = (
(421,1072,o),
(429,1097,o),
(456,1115,cs),
(480,1131,o),
(533,1134,o),
(585,1134,c),
(601,1150,l),
(601,1196,l),
(585,1212,l),
(468,1212,o),
(405,1204,o),
(337,1204,cs),
(275,1204,o),
(181,1212,o),
(83,1212,c),
(67,1196,l),
(67,1150,l),
(83,1134,l),
(161,1134,o),
(207,1130,o),
(227,1108,cs),
(241,1093,o),
(247,1049,o),
(247,968,cs),
(247,227,ls),
(247,138,o),
(238,118,o),
(211,100,cs),
(187,84,o),
(145,80,o),
(83,76,c),
(67,60,l),
(67,14,l),
(83,-2,l),
(200,-2,o),
(263,6,o),
(331,6,cs),
(393,6,o),
(485,-2,o),
(583,-2,c),
(599,14,l),
(599,60,l),
(583,76,l),
(504,78,o),
(458,80,o),
(441,99,cs),
(425,118,o),
(421,161,o),
(421,218,cs),
(421,972,ls)
);
}
);
};
backgroundImage = {
imagePath = "Mergenthaler docs/Microscope/Roman-34.tiff";
locked = 1;
pos = (-3005,-668);
scale = (5.12,5.12);
};
hints = (
{
name = _corner.universal;
origin = (0,5);
type = Corner;
},
{
name = _corner.universal;
origin = (0,6);
type = Corner;
},
{
name = _corner.universal;
origin = (0,19);
type = Corner;
},
{
name = _corner.universal;
origin = (0,20);
type = Corner;
},
{
name = _corner.universal;
origin = (0,26);
type = Corner;
},
{
name = _corner.universal;
origin = (0,27);
type = Corner;
},
{
name = _corner.universal;
origin = (0,40);
type = Corner;
},
{
name = _corner.universal;
origin = (0,41);
type = Corner;
}
);
layerId = "25879A17-30FE-49F5-8BDD-4D78448C8558";
shapes = (
{
closed = 1;
nodes = (
(200,-2,o),
(260,6,o),
(331,6,cs),
(396,6,o),
(485,-2,o),
(599,-2,c),
(599,76,l),
(510,78,o),
(458,79,o),
(441,99,cs),
(425,118,o),
(421,161,o),
(421,218,cs),
(421,972,ls),
(421,1072,o),
(429,1097,o),
(456,1115,cs),
(482,1133,o),
(544,1134,o),
(601,1134,c),
(601,1212,l),
(468,1212,o),
(408,1204,o),
(337,1204,cs),
(272,1204,o),
(184,1212,o),
(67,1212,c),
(67,1134,l),
(155,1134,o),
(206,1131,o),
(227,1108,cs),
(241,1093,o),
(247,1049,o),
(247,968,cs),
(247,227,ls),
(247,138,o),
(238,118,o),
(211,100,cs),
(185,83,o),
(138,79,o),
(67,75,c),
(67,-2,l)
);
}
);
width = 668;
},
{
anchors = (
{
name = top;
pos = (548,1210);
}
);
backgroundImage = {
imagePath = "Mergenthaler docs/Kursiv/uppercase.tif";
locked = 1;
pos = (-12298,-445);
scale = (189.9767,189.9767);
};
guides = (
{
angle = 76;
pos = (310,598);
}
);
hints = (
{
name = _corner.universal;
origin = (0,5);
type = Corner;
},
{
name = _corner.universal;
origin = (0,6);
type = Corner;
},
{
name = _corner.universal;
origin = (0,19);
type = Corner;
},
{
name = _corner.universal;
origin = (0,20);
type = Corner;
},
{
name = _corner.universal;
origin = (0,26);
type = Corner;
},
{
name = _corner.universal;
origin = (0,27);
type = Corner;
},
{
name = _corner.universal;
origin = (0,40);
type = Corner;
},
{
name = _corner.universal;
origin = (0,41);
type = Corner;
}
);
layerId = master01;
shapes = (
{
closed = 1;
nodes = (
(113,-1,o),
(197,6,o),
(263,6,cs),
(325,6,o),
(397,-2,o),
(500,-2,c),
(500,55,l),
(430,59,o),
(398,72,o),
(384,86,cs),
(360,110,o),
(366,152,o),
(381,210,cs),
(575,984,ls),
(598,1077,o),
(625,1102,o),
(636,1113,cs),
(668,1146,o),
(708,1151,o),
(760,1154,c),
(760,1212,l),
(668,1211,o),
(604,1204,o),
(537,1204,cs),
(474,1204,o),
(394,1211,o),
(302,1212,c),
(302,1154,l),
(378,1152,o),
(417,1135,o),
(428,1108,cs),
(441,1081,o),
(430,1037,o),
(415,976,cs),
(224,215,ls),
(210,160,o),
(194,124,o),
(171,101,cs),
(148,77,o),
(106,59,o),
(42,55,c),
(42,-2,l)
);
}
);
width = 668;
},
{
anchors = (
{
name = top;
pos = (548,1210);
}
);
background = {
shapes = (
{
closed = 1;
nodes = (
(109,-2,o),
(203,6,o),
(266,6,cs),
(326,6,o),
(404,-2,o),
(497,-2,c),
(513,14,l),
(513,60,l),
(497,76,l),
(434,80,o),
(406,91,o),
(394,103,cs),
(374,123,o),
(380,161,o),
(394,218,cs),
(582,972,ls),
(604,1062,o),
(629,1085,o),
(640,1096,cs),
(668,1124,o),
(711,1132,o),
(751,1134,c),
(767,1150,l),
(767,1196,l),
(751,1212,l),
(669,1212,o),
(599,1204,o),
(534,1204,cs),
(473,1204,o),
(386,1212,o),
(305,1212,c),
(289,1196,l),
(289,1150,l),
(305,1134,l),
(368,1133,o),
(406,1116,o),
(416,1094,cs),
(428,1066,o),
(417,1029,o),
(402,968,cs),
(217,227,ls),
(204,173,o),
(189,140,o),
(167,118,cs),
(146,97,o),
(109,80,o),
(51,76,c),
(35,60,l),
(35,14,l),
(51,-2,l)
);
}
);
};
backgroundImage = {
imagePath = "Mergenthaler docs/Microscope/Italic-31.tiff";
locked = 1;
pos = (-4302,-548);
scale = (5.12,5.12);
};
hints = (
{
name = _corner.universal;
origin = (0,5);
type = Corner;
},
{
name = _corner.universal;
origin = (0,6);
type = Corner;
},
{
name = _corner.universal;
origin = (0,19);
type = Corner;
},
{
name = _corner.universal;
origin = (0,20);
type = Corner;
},
{
name = _corner.universal;
origin = (0,26);
type = Corner;
},
{
name = _corner.universal;
origin = (0,27);
type = Corner;
},
{
name = _corner.universal;
origin = (0,40);
type = Corner;
},
{
name = _corner.universal;
origin = (0,41);
type = Corner;
}
);
layerId = m004;
shapes = (
{
closed = 1;
nodes = (
(100,-2,o),
(184,6,o),
(250,6,cs),
(313,6,o),
(388,-2,o),
(497,-2,c),
(497,75,l),
(423,78,o),
(391,90,o),
(378,103,cs),
(358,123,o),
(364,161,o),
(378,218,cs),
(566,972,ls),
(582,1035,o),
(606,1076,o),
(623,1095,cs),
(647,1121,o),
(665,1131,o),
(726,1135,c),
(726,1212,l),
(636,1212,o),
(576,1204,o),
(513,1204,cs),
(445,1204,o),
(358,1212,o),
(257,1212,c),
(257,1134,l),
(346,1134,o),
(390,1117,o),
(400,1094,cs),
(411,1070,o),
(401,1029,o),
(386,968,cs),
(201,227,ls),
(188,173,o),
(173,140,o),
(151,118,cs),
(129,96,o),
(91,77,o),
(29,75,c),
(29,-2,l)
);
}
);
width = 668;
}
);
unicode = 73;
},
{
glyphname = J;
kernLeft = J;
kernRight = U;
lastChange = "2023-11-28 21:49:49 +0000";
layers = (
{
background = {
hints = (
{
name = _corner.universal;
origin = (0,9);
type = Corner;
},
{
name = _corner.universal;
origin = (0,10);
type = Corner;
},
{
name = _corner.universal;
origin = (0,16);
type = Corner;
},
{
name = _corner.universal;
origin = (0,17);
type = Corner;
}
);
shapes = (
{
closed = 1;
nodes = (
(541,-24,o),
(640,138,o),
(640,337,cs),
(640,982,ls),
(640,1084,o),
(650,1113,o),
(679,1133,cs),
(706,1152,o),
(765,1154,o),
(820,1154,c),
(820,1212,l),
(695,1212,o),
(636,1204,o),
(566,1204,cs),
(470,1204,o),
(385,1212,o),
(276,1212,c),
(276,1154,l),
(364,1154,o),
(440,1150,o),
(463,1125,cs),
(480,1107,o),
(486,1060,o),
(486,978,cs),
(486,343,ls),
(486,178,o),
(445,35,o),
(287,35,cs),
(223,35,o),
(162,62,o),
(124,118,c),
(138,162,l),
(220,176,o),
(256,213,o),
(256,273,cs),
(256,325,o),
(217,358,o),
(161,358,cs),
(84,358,o),
(32,297,o),
(32,215,cs),
(32,146,o),
(61,87,o),
(107,45,cs),
(152,3,o),
(217,-24,o),
(306,-24,cs)
);
}
);
};
hints = (
{
name = _corner.universal;
origin = (0,9);
type = Corner;
},
{
name = _corner.universal;
origin = (0,10);
type = Corner;
},
{
name = _corner.universal;
origin = (0,16);
type = Corner;
},
{
name = _corner.universal;
origin = (0,17);
type = Corner;
}
);
layerId = "CA4EC710-46DE-40B5-AF89-3BCF48EEB297";
shapes = (
{
closed = 1;
nodes = (
(540,-24,o),
(640,139,o),
(640,337,cs),
(640,982,ls),
(640,1085,o),
(649,1113,o),
(679,1133,cs),
(706,1151,o),
(765,1154,o),
(820,1154,c),
(820,1212,l),
(695,1212,o),
(636,1204,o),
(566,1204,cs),
(470,1204,o),
(385,1212,o),
(276,1212,c),
(276,1154,l),
(364,1154,o),
(440,1150,o),
(463,1125,cs),
(480,1107,o),
(486,1060,o),
(486,978,cs),
(486,343,ls),
(486,178,o),
(445,36,o),
(287,36,cs),
(174,36,o),
(129,87,o),
(129,131,cs),
(129,163,o),
(156,169,o),
(182,173,cs),
(240,182,o),
(277,207,o),
(277,261,cs),
(277,314,o),
(242,360,o),
(171,360,cs),
(96,360,o),
(40,299,o),
(40,208,cs),
(40,88,o),
(123,-24,o),
(306,-24,cs)
);
}
);
userData = {
com.typemytype.robofont.mark = (
0.656,
1,
0.6,
1
);
};
width = 850;
},
{
background = {
hints = (
{
name = _corner.universal;
place = (830,0);
type = Corner;
},
{
name = _corner.universal;
place = (830,0);
type = Corner;
},
{
name = _corner.universal;
place = (266,0);
type = Corner;
},
{
name = _corner.universal;
place = (266,0);
type = Corner;
},
{
name = _corner.universal;
origin = (0,9);
type = Corner;
},
{
name = _corner.universal;
origin = (0,10);
type = Corner;
},
{
name = _corner.universal;
origin = (0,16);
type = Corner;
},
{
name = _corner.universal;
origin = (0,17);
type = Corner;
}
);
shapes = (
{
closed = 1;
nodes = (
(547,-24,o),
(650,145,o),
(650,347,cs),
(650,972,ls),
(650,1072,o),
(658,1097,o),
(685,1115,cs),
(711,1133,o),
(773,1134,o),
(830,1134,c),
(830,1212,l),
(697,1212,o),
(637,1204,o),
(566,1204,cs),
(468,1204,o),
(380,1212,o),
(266,1212,c),
(266,1134,l),
(357,1134,o),
(435,1131,o),
(456,1108,cs),
(470,1093,o),
(476,1049,o),
(476,968,cs),
(476,353,ls),
(476,190,o),
(437,56,o),
(287,56,cs),
(180,56,o),
(139,103,o),
(139,141,cs),
(139,187,o),
(212,157,o),
(261,206,cs),
(278,223,o),
(287,246,o),
(287,271,cs),
(287,329,o),
(248,380,o),
(171,380,cs),
(90,380,o),
(30,314,o),
(30,218,cs),
(30,93,o),
(117,-24,o),
(306,-24,cs)
);
}
);
};
backgroundImage = {
imagePath = "Mergenthaler docs/Microscope/Roman-33.tiff";
locked = 1;
pos = (-1671,-664);
scale = (5.12,5.12);
};
hints = (
{
name = _corner.universal;
origin = (0,9);
type = Corner;
},
{
name = _corner.universal;
origin = (0,10);
type = Corner;
},
{
name = _corner.universal;
origin = (0,16);
type = Corner;
},
{
name = _corner.universal;
origin = (0,17);
type = Corner;
}
);
layerId = "25879A17-30FE-49F5-8BDD-4D78448C8558";
shapes = (
{
closed = 1;
nodes = (
(547,-24,o),
(650,145,o),
(650,347,cs),
(650,972,ls),
(650,1072,o),
(658,1097,o),
(685,1115,cs),
(711,1133,o),
(773,1134,o),
(830,1134,c),
(830,1212,l),
(697,1212,o),
(637,1204,o),
(566,1204,cs),
(468,1204,o),
(380,1212,o),
(266,1212,c),
(266,1134,l),
(357,1134,o),
(435,1131,o),
(456,1108,cs),
(470,1093,o),
(476,1049,o),
(476,968,cs),
(476,353,ls),
(476,190,o),
(437,56,o),
(287,56,cs),
(180,56,o),
(139,103,o),
(139,141,cs),
(139,165,o),
(158,169,o),
(184,173,cs),
(245,183,o),
(287,211,o),
(287,271,cs),
(287,329,o),
(248,380,o),
(171,380,cs),
(90,380,o),
(30,314,o),
(30,218,cs),
(30,93,o),
(117,-24,o),
(306,-24,cs)
);
}
);
width = 850;
},
{
background = {
hints = (
{
name = _corner.universal;
origin = (0,9);
type = Corner;
},
{
name = _corner.universal;
origin = (0,10);
type = Corner;
},
{
name = _corner.universal;
origin = (0,16);
type = Corner;
},
{
name = _corner.universal;
origin = (0,17);
type = Corner;
}
);
shapes = (
{
closed = 1;
nodes = (
(389,-24,o),
(522,60,o),
(578,283,cs),
(751,974,ls),
(773,1063,o),
(798,1088,o),
(812,1102,cs),
(838,1128,o),
(872,1140,o),
(916,1144,c),
(916,1202,l),
(827,1201,o),
(765,1194,o),
(701,1194,cs),
(629,1194,o),
(538,1202,o),
(433,1202,c),
(433,1144,l),
(524,1143,o),
(569,1125,o),
(588,1098,cs),
(608,1072,o),
(606,1024,o),
(591,966,cs),
(413,254,ls),
(375,102,o),
(315,36,o),
(238,36,cs),
(216,36,o),
(188,44,o),
(188,73,cs),
(188,97,o),
(203,112,o),
(222,129,cs),
(242,147,o),
(263,166,o),
(263,200,cs),
(263,246,o),
(228,277,o),
(176,277,cs),
(118,277,o),
(65,223,o),
(65,142,cs),
(65,37,o),
(144,-24,o),
(247,-24,cs)
);
}
);
};
hints = (
{
name = _corner.universal;
origin = (0,9);
type = Corner;
},
{
name = _corner.universal;
origin = (0,10);
type = Corner;
},
{
name = _corner.universal;
origin = (0,16);
type = Corner;
},
{
name = _corner.universal;
origin = (0,17);
type = Corner;
}
);
layerId = master01;
shapes = (
{
closed = 1;
nodes = (
(389,-24,o),
(522,60,o),
(578,283,cs),
(753,984,ls),
(775,1073,o),
(800,1098,o),
(814,1112,cs),
(840,1138,o),
(874,1150,o),
(918,1154,c),
(918,1212,l),
(829,1212,o),
(767,1204,o),
(703,1204,cs),
(631,1204,o),
(540,1212,o),
(435,1212,c),
(435,1154,l),
(526,1153,o),
(570,1134,o),
(590,1108,cs),
(610,1082,o),
(607,1034,o),
(593,976,cs),
(413,254,ls),
(375,102,o),
(315,36,o),
(238,36,cs),
(216,36,o),
(188,44,o),
(188,73,cs),
(188,97,o),
(203,112,o),
(222,129,cs),
(242,147,o),
(263,166,o),
(263,200,cs),
(263,246,o),
(228,277,o),
(176,277,cs),
(118,277,o),
(65,223,o),
(65,142,cs),
(65,37,o),
(144,-24,o),
(247,-24,cs)
);
}
);
width = 850;
},
{
associatedMasterId = master01;
backgroundImage = {
imagePath = "Mergenthaler docs/Kursiv/uppercase.tif";
pos = (-13281,-435);
scale = (189.9767,189.9767);
};
hints = (
{
name = _corner.universal;
origin = (0,9);
type = Corner;
},
{
name = _corner.universal;
origin = (0,10);
type = Corner;
},
{
name = _corner.universal;
origin = (0,16);
type = Corner;
},
{
name = _corner.universal;
origin = (0,17);
type = Corner;
}
);
layerId = "B10E6485-97AD-4F9F-BB0B-5772BA0F167D";
name = "21. Aug. 21, 12:40";
shapes = (
{
closed = 1;
nodes = (
(406,-30,o),
(534,63,o),
(591,291,cs),
(761,972,ls),
(783,1062,o),
(808,1085,o),
(819,1096,cs),
(851,1128,o),
(890,1132,o),
(946,1135,c),
(946,1212,l),
(848,1212,o),
(782,1204,o),
(713,1204,cs),
(637,1204,o),
(541,1212,o),
(428,1212,c),
(428,1134,l),
(520,1134,o),
(562,1117,o),
(580,1092,cs),
(597,1069,o),
(595,1025,o),
(581,968,cs),
(406,266,ls),
(369,118,o),
(312,53,o),
(241,53,cs),
(221,53,o),
(202,57,o),
(186,66,c),
(190,94,l),
(235,114,o),
(262,154,o),
(262,195,cs),
(262,254,o),
(222,284,o),
(171,284,cs),
(102,284,o),
(44,227,o),
(44,135,cs),
(44,91,o),
(58,55,o),
(84,29,cs),
(120,-7,o),
(179,-30,o),
(250,-30,cs)
);
}
);
width = 850;
},
{
backgroundImage = {
angle = -0.5;
imagePath = "Mergenthaler docs/Microscope/Italic-30.tiff";
locked = 1;
pos = (-1278,-511);
scale = (5.12,5.12);
};
hints = (
{
name = _corner.universal;
origin = (0,9);
type = Corner;
},
{
name = _corner.universal;
origin = (0,10);
type = Corner;
},
{
name = _corner.universal;
origin = (0,16);
type = Corner;
},
{
name = _corner.universal;
origin = (0,17);
type = Corner;
}
);
layerId = m004;
shapes = (
{
closed = 1;
nodes = (
(396,-24,o),
(534,63,o),
(591,291,cs),
(761,972,ls),
(782,1058,o),
(805,1081,o),
(819,1095,cs),
(845,1121,o),
(879,1132,o),
(926,1135,c),
(926,1212,l),
(831,1212,o),
(767,1204,o),
(701,1204,cs),
(627,1204,o),
(533,1212,o),
(423,1212,c),
(423,1134,l),
(518,1134,o),
(562,1117,o),
(580,1092,cs),
(597,1069,o),
(595,1025,o),
(581,968,cs),
(406,266,ls),
(369,118,o),
(312,56,o),
(241,56,cs),
(221,56,o),
(201,62,o),
(201,83,cs),
(201,103,o),
(213,115,o),
(232,132,cs),
(252,150,o),
(276,172,o),
(276,210,cs),
(276,262,o),
(236,297,o),
(179,297,cs),
(115,297,o),
(58,239,o),
(58,152,cs),
(58,41,o),
(142,-24,o),
(250,-24,cs)
);
}
);
width = 850;
},
{
associatedMasterId = m004;
backgroundImage = {
imagePath = "Mergenthaler docs/Kursiv/uppercase.tif";
pos = (-13281,-435);
scale = (189.9767,189.9767);
};
hints = (
{
name = _corner.universal;
origin = (0,9);
type = Corner;
},
{
name = _corner.universal;
origin = (0,10);
type = Corner;
},
{
name = _corner.universal;
origin = (0,16);
type = Corner;
},
{
name = _corner.universal;
origin = (0,17);
type = Corner;
}
);
layerId = "C7F3F8E9-F537-47CB-BC6B-43617C8630F7";
name = "21. Aug. 21, 12:40";
shapes = (
{
closed = 1;
nodes = (
(406,-30,o),
(534,63,o),
(591,291,cs),
(761,972,ls),
(783,1062,o),
(808,1085,o),
(819,1096,cs),
(851,1128,o),
(890,1132,o),
(946,1135,c),
(946,1212,l),
(848,1212,o),
(782,1204,o),
(713,1204,cs),
(637,1204,o),
(541,1212,o),
(428,1212,c),
(428,1134,l),
(520,1134,o),
(562,1117,o),
(580,1092,cs),
(597,1069,o),
(595,1025,o),
(581,968,cs),
(406,266,ls),
(369,118,o),
(312,53,o),
(241,53,cs),
(221,53,o),
(202,57,o),
(186,66,c),
(190,94,l),
(235,114,o),
(262,154,o),
(262,195,cs),
(262,254,o),
(222,284,o),
(171,284,cs),
(102,284,o),
(44,227,o),
(44,135,cs),
(44,91,o),
(58,55,o),
(84,29,cs),
(120,-7,o),
(179,-30,o),
(250,-30,cs)
);
}
);
width = 850;
}
);
unicode = 74;
},
{
glyphname = K;
kernLeft = E;
kernRight = K;
lastChange = "2023-11-28 22:47:54 +0000";
layers = (
{
hints = (
{
name = _corner.universal;
origin = (0,26);
type = Corner;
},
{
name = _corner.universal;
origin = (0,27);
type = Corner;
},
{
name = _corner.universal;
origin = (0,40);
type = Corner;
},
{
name = _corner.universal;
origin = (0,41);
type = Corner;
},
{
name = _corner.universal;
origin = (0,5);
type = Corner;
},
{
name = _corner.universal;
origin = (0,6);
type = Corner;
},
{
name = _corner.universal;
origin = (1,6);
type = Corner;
},
{
name = _corner.universal;
origin = (1,7);
type = Corner;
},
{
name = _corner.universal;
origin = (1,13);
type = Corner;
},
{
name = _corner.universal;
origin = (1,14);
type = Corner;
},
{
name = _corner.universal;
origin = (0,19);
type = Corner;
},
{
name = _corner.universal;
origin = (0,20);
type = Corner;
},
{
name = _corner.universal;
origin = (2,5);
type = Corner;
},
{
name = _corner.universal;
origin = (2,6);
type = Corner;
},
{
name = _corner.universal;
origin = (2,18);
type = Corner;
},
{
name = _corner.universal;
origin = (2,19);
type = Corner;
}
);
layerId = "CA4EC710-46DE-40B5-AF89-3BCF48EEB297";
shapes = (
{
closed = 1;
nodes = (
(202,-2,o),
(261,6,o),
(331,6,cs),
(395,6,o),
(480,-2,o),
(589,-2,c),
(589,56,l),
(500,60,o),
(454,60,o),
(434,82,cs),
(414,104,o),
(411,150,o),
(411,208,cs),
(411,982,ls),
(411,1084,o),
(420,1113,o),
(450,1133,cs),
(477,1152,o),
(536,1154,o),
(591,1154,c),
(591,1212,l),
(466,1212,o),
(407,1204,o),
(337,1204,cs),
(273,1204,o),
(186,1212,o),
(77,1212,c),
(77,1154,l),
(160,1154,o),
(211,1150,o),
(234,1125,cs),
(251,1107,o),
(257,1060,o),
(257,978,cs),
(257,217,ls),
(257,125,o),
(247,102,o),
(217,82,cs),
(190,64,o),
(143,59,o),
(77,56,c),
(77,-2,l)
);
},
{
closed = 1;
nodes = (
(939,991,ls),
(1005,1056,o),
(1049,1090,o),
(1093,1114,cs),
(1139,1139,o),
(1198,1152,o),
(1252,1156,c),
(1252,1212,l),
(1160,1212,o),
(1088,1204,o),
(1018,1204,cs),
(953,1204,o),
(859,1212,o),
(778,1212,c),
(778,1154,l),
(857,1153,o),
(903,1147,o),
(910,1114,cs),
(917,1081,o),
(879,1033,o),
(829,985,cs),
(332,499,l),
(377,444,l)
);
},
{
closed = 1;
nodes = (
(879,-2,o),
(970,6,o),
(1058,6,cs),
(1128,6,o),
(1213,-2,o),
(1331,-2,c),
(1331,54,l),
(1217,61,o),
(1161,81,o),
(1084,199,cs),
(701,782,l),
(581,674,l),
(881,193,ls),
(910,146,o),
(919,110,o),
(899,88,cs),
(876,63,o),
(824,60,o),
(751,56,c),
(751,-2,l)
);
}
);
userData = {
com.typemytype.robofont.mark = (
0.656,
1,
0.6,
1
);
};
width = 1350;
},
{
background = {
shapes = (
{
ref = H;
}
);
};
backgroundImage = {
imagePath = "Mergenthaler docs/Microscope/Roman-33.tiff";
locked = 1;
pos = (-2819,-667);
scale = (5.12,5.12);
};
hints = (
{
name = _corner.universal;
origin = (0,26);
type = Corner;
},
{
name = _corner.universal;
origin = (0,27);
type = Corner;
},
{
name = _corner.universal;
origin = (0,40);
type = Corner;
},
{
name = _corner.universal;
origin = (0,41);
type = Corner;
},
{
name = _corner.universal;
origin = (0,5);
type = Corner;
},
{
name = _corner.universal;
origin = (0,6);
type = Corner;
},
{
name = _corner.universal;
origin = (1,7);
type = Corner;
},
{
name = _corner.universal;
origin = (1,13);
type = Corner;
},
{
name = _corner.universal;
origin = (1,14);
type = Corner;
},
{
name = _corner.universal;
origin = (0,19);
type = Corner;
},
{
name = _corner.universal;
origin = (0,20);
type = Corner;
},
{
name = _corner.universal;
origin = (1,6);
type = Corner;
},
{
name = _corner.universal;
origin = (2,5);
type = Corner;
},
{
name = _corner.universal;
origin = (2,6);
type = Corner;
},
{
name = _corner.universal;
origin = (2,18);
type = Corner;
},
{
name = _corner.universal;
origin = (2,19);
type = Corner;
}
);
layerId = "25879A17-30FE-49F5-8BDD-4D78448C8558";
shapes = (
{
closed = 1;
nodes = (
(200,-2,o),
(260,6,o),
(331,6,cs),
(396,6,o),
(485,-2,o),
(599,-2,c),
(599,75,l),
(504,80,o),
(458,80,o),
(441,99,cs),
(424,118,o),
(421,161,o),
(421,218,cs),
(421,972,ls),
(421,1072,o),
(429,1097,o),
(456,1115,cs),
(482,1133,o),
(544,1134,o),
(601,1134,c),
(601,1212,l),
(468,1212,o),
(408,1204,o),
(337,1204,cs),
(272,1204,o),
(181,1212,o),
(67,1212,c),
(67,1134,l),
(155,1134,o),
(206,1131,o),
(227,1108,cs),
(241,1093,o),
(247,1049,o),
(247,968,cs),
(247,227,ls),
(247,138,o),
(238,118,o),
(211,100,cs),
(185,83,o),
(138,79,o),
(67,75,c),
(67,-2,l)
);
},
{
closed = 1;
nodes = (
(931,972,ls),
(997,1037,o),
(1038,1072,o),
(1082,1095,cs),
(1130,1120,o),
(1190,1134,o),
(1246,1137,c),
(1246,1212,l),
(1152,1212,o),
(1080,1204,o),
(1011,1204,cs),
(938,1204,o),
(830,1212,o),
(740,1212,c),
(740,1134,l),
(831,1134,o),
(878,1128,o),
(884,1102,cs),
(890,1074,o),
(854,1031,o),
(805,983,cs),
(320,500,l),
(374,429,l)
);
},
{
closed = 1;
nodes = (
(863,-2,o),
(957,6,o),
(1048,6,cs),
(1119,6,o),
(1205,-2,o),
(1328,-2,c),
(1328,73,l),
(1208,80,o),
(1158,98,o),
(1079,215,cs),
(688,797,l),
(560,676,l),
(867,198,ls),
(895,155,o),
(900,125,o),
(881,105,cs),
(860,83,o),
(807,80,o),
(727,75,c),
(727,-2,l)
);
}
);
width = 1350;
},
{
background = {
hints = (
{
name = _corner.universal;
origin = (0,5);
type = Corner;
},
{
name = _corner.universal;
origin = (0,6);
type = Corner;
},
{
name = _corner.universal;
origin = (0,19);
type = Corner;
},
{
name = _corner.universal;
origin = (0,20);
type = Corner;
},
{
name = _corner.universal;
origin = (0,26);
type = Corner;
},
{
name = _corner.universal;
origin = (0,27);
type = Corner;
},
{
name = _corner.universal;
origin = (0,40);
type = Corner;
},
{
name = _corner.universal;
origin = (0,41);
type = Corner;
},
{
name = _corner.universal;
origin = (1,5);
type = Corner;
},
{
name = _corner.universal;
origin = (1,6);
type = Corner;
},
{
name = _corner.universal;
origin = (1,18);
type = Corner;
},
{
name = _corner.universal;
origin = (1,19);
type = Corner;
},
{
name = _corner.universal;
origin = (2,6);
type = Corner;
},
{
name = _corner.universal;
origin = (2,7);
type = Corner;
},
{
name = _corner.universal;
origin = (2,13);
type = Corner;
},
{
name = _corner.universal;
origin = (2,14);
type = Corner;
}
);
shapes = (
{
closed = 1;
nodes = (
(113,-1,o),
(197,6,o),
(263,6,cs),
(325,6,o),
(397,-2,o),
(500,-2,c),
(500,55,l),
(430,59,o),
(398,72,o),
(384,86,cs),
(360,110,o),
(366,152,o),
(381,210,cs),
(575,984,ls),
(598,1077,o),
(625,1102,o),
(636,1113,cs),
(668,1146,o),
(708,1151,o),
(760,1154,c),
(760,1212,l),
(668,1211,o),
(604,1204,o),
(537,1204,cs),
(474,1204,o),
(394,1211,o),
(302,1212,c),
(302,1154,l),
(378,1152,o),
(417,1135,o),
(428,1108,cs),
(441,1081,o),
(430,1037,o),
(415,976,cs),
(224,215,ls),
(210,160,o),
(194,124,o),
(171,101,cs),
(148,77,o),
(106,59,o),
(42,55,c),
(42,-2,l)
);
},
{
closed = 1;
nodes = (
(777,8,o),
(854,16,o),
(928,16,cs),
(995,16,o),
(1073,8,o),
(1184,8,c),
(1184,63,l),
(1050,70,o),
(1015,94,o),
(968,211,cs),
(744,758,l),
(618,672,l),
(784,228,ls),
(810,160,o),
(819,119,o),
(801,97,cs),
(784,75,o),
(750,70,o),
(669,66,c),
(669,8,l)
);
},
{
closed = 1;
nodes = (
(974,901,ls),
(1092,999,o),
(1134,1040,o),
(1177,1076,cs),
(1205,1099,o),
(1258,1131,o),
(1303,1145,c),
(1303,1202,l),
(1241,1201,o),
(1184,1194,o),
(1115,1194,cs),
(1058,1194,o),
(973,1201,o),
(891,1202,c),
(891,1144,l),
(987,1143,o),
(1021,1124,o),
(1021,1087,cs),
(1021,1052,o),
(986,1004,o),
(913,943,cs),
(338,461,l),
(369,398,l)
);
}
);
};
backgroundImage = {
imagePath = "Mergenthaler docs/Kursiv/uppercase.tif";
locked = 1;
pos = (-14522,-444);
scale = (189.9767,189.9767);
};
hints = (
{
name = _corner.universal;
origin = (1,6);
type = Corner;
},
{
name = _corner.universal;
origin = (1,7);
type = Corner;
},
{
name = _corner.universal;
origin = (1,13);
type = Corner;
},
{
name = _corner.universal;
origin = (1,14);
type = Corner;
},
{
name = _corner.universal;
origin = (0,5);
type = Corner;
},
{
name = _corner.universal;
origin = (0,6);
type = Corner;
},
{
name = _corner.universal;
origin = (0,19);
type = Corner;
},
{
name = _corner.universal;
origin = (0,20);
type = Corner;
},
{
name = _corner.universal;
origin = (0,26);
type = Corner;
},
{
name = _corner.universal;
origin = (0,27);
type = Corner;
},
{
name = _corner.universal;
origin = (0,40);
type = Corner;
},
{
name = _corner.universal;
origin = (0,41);
type = Corner;
},
{
name = _corner.universal;
origin = (2,5);
type = Corner;
},
{
name = _corner.universal;
origin = (2,6);
type = Corner;
},
{
name = _corner.universal;
origin = (2,18);
type = Corner;
},
{
name = _corner.universal;
origin = (2,19);
type = Corner;
}
);
layerId = master01;
shapes = (
{
closed = 1;
nodes = (
(113,-1,o),
(197,6,o),
(263,6,cs),
(325,6,o),
(397,-2,o),
(500,-2,c),
(500,55,l),
(430,59,o),
(398,72,o),
(384,86,cs),
(360,110,o),
(366,152,o),
(381,210,cs),
(575,984,ls),
(598,1077,o),
(625,1102,o),
(636,1113,cs),
(668,1146,o),
(708,1151,o),
(760,1154,c),
(760,1212,l),
(668,1211,o),
(604,1204,o),
(537,1204,cs),
(474,1204,o),
(394,1211,o),
(302,1212,c),
(302,1154,l),
(378,1152,o),
(417,1135,o),
(428,1108,cs),
(441,1081,o),
(430,1037,o),
(415,976,cs),
(224,215,ls),
(210,160,o),
(194,124,o),
(171,101,cs),
(148,77,o),
(106,59,o),
(42,55,c),
(42,-2,l)
);
},
{
closed = 1;
nodes = (
(975,911,ls),
(1093,1009,o),
(1135,1050,o),
(1178,1086,cs),
(1206,1109,o),
(1259,1141,o),
(1304,1155,c),
(1304,1212,l),
(1242,1211,o),
(1185,1204,o),
(1116,1204,cs),
(1059,1204,o),
(974,1211,o),
(892,1212,c),
(892,1154,l),
(988,1153,o),
(1022,1134,o),
(1022,1097,cs),
(1022,1062,o),
(987,1014,o),
(914,953,cs),
(327,461,l),
(358,398,l)
);
},
{
closed = 1;
nodes = (
(777,-2,o),
(854,6,o),
(928,6,cs),
(995,6,o),
(1073,-2,o),
(1184,-2,c),
(1184,53,l),
(1050,60,o),
(1016,84,o),
(968,201,cs),
(740,758,l),
(614,672,l),
(784,218,ls),
(809,150,o),
(819,109,o),
(801,87,cs),
(784,65,o),
(750,60,o),
(669,56,c),
(669,-2,l)
);
}
);
width = 1350;
},
{
background = {
shapes = (
{
ref = H;
}
);
};
backgroundImage = {
angle = -0.5;
imagePath = "Mergenthaler docs/Microscope/Italic-30.tiff";
locked = 1;
pos = (-2485,-512);
scale = (5.12,5.12);
};
hints = (
{
name = _corner.universal;
origin = (1,6);
type = Corner;
},
{
name = _corner.universal;
origin = (1,7);
type = Corner;
},
{
name = _corner.universal;
origin = (1,13);
type = Corner;
},
{
name = _corner.universal;
origin = (1,14);
type = Corner;
},
{
name = _corner.universal;
origin = (0,5);
type = Corner;
},
{
name = _corner.universal;
origin = (0,6);
type = Corner;
},
{
name = _corner.universal;
origin = (0,19);
type = Corner;
},
{
name = _corner.universal;
origin = (0,20);
type = Corner;
},
{
name = _corner.universal;
origin = (0,26);
type = Corner;
},
{
name = _corner.universal;
origin = (0,27);
type = Corner;
},
{
name = _corner.universal;
origin = (0,40);
type = Corner;
},
{
name = _corner.universal;
origin = (0,41);
type = Corner;
},
{
name = _corner.universal;
origin = (2,5);
type = Corner;
},
{
name = _corner.universal;
origin = (2,6);
type = Corner;
},
{
name = _corner.universal;
origin = (2,18);
type = Corner;
},
{
name = _corner.universal;
origin = (2,19);
type = Corner;
}
);
layerId = m004;
shapes = (
{
closed = 1;
nodes = (
(128,-2,o),
(210,6,o),
(275,6,cs),
(338,6,o),
(413,-2,o),
(522,-2,c),
(522,75,l),
(448,78,o),
(416,90,o),
(403,103,cs),
(383,123,o),
(389,161,o),
(403,218,cs),
(591,972,ls),
(613,1062,o),
(638,1085,o),
(649,1096,cs),
(681,1128,o),
(720,1132,o),
(776,1135,c),
(776,1212,l),
(678,1212,o),
(612,1204,o),
(543,1204,cs),
(475,1204,o),
(388,1212,o),
(286,1212,c),
(286,1134,l),
(372,1134,o),
(415,1117,o),
(425,1094,cs),
(436,1070,o),
(426,1029,o),
(411,968,cs),
(226,227,ls),
(213,173,o),
(198,140,o),
(176,118,cs),
(154,96,o),
(118,77,o),
(58,75,c),
(58,-2,l)
);
},
{
closed = 1;
nodes = (
(989,893,ls),
(1108,993,o),
(1150,1033,o),
(1192,1068,cs),
(1218,1090,o),
(1263,1125,o),
(1308,1132,c),
(1308,1212,l),
(1246,1212,o),
(1191,1204,o),
(1124,1204,cs),
(1060,1204,o),
(963,1212,o),
(870,1212,c),
(870,1134,l),
(981,1134,o),
(1016,1118,o),
(1016,1087,cs),
(1016,1056,o),
(985,1010,o),
(916,951,cs),
(339,464,l),
(379,382,l)
);
},
{
closed = 1;
nodes = (
(768,-2,o),
(848,6,o),
(926,6,cs),
(992,6,o),
(1072,-2,o),
(1186,-2,c),
(1186,73,l),
(1052,79,o),
(1018,100,o),
(972,215,cs),
(749,773,l),
(604,676,l),
(777,224,ls),
(802,158,o),
(806,121,o),
(791,103,cs),
(776,84,o),
(742,80,o),
(651,75,c),
(651,-2,l)
);
}
);
width = 1350;
}
);
unicode = 75;
},
{
glyphname = L;
kernLeft = E;
kernRight = L;
lastChange = "2023-11-28 22:50:25 +0000";
layers = (
{
hints = (
{
name = _corner.universal;
origin = (0,26);
type = Corner;
},
{
name = _corner.universal;
origin = (0,27);
type = Corner;
},
{
name = _corner.universal;
origin = (0,40);
type = Corner;
},
{
name = _corner.universal;
origin = (0,41);
type = Corner;
},
{
name = _corner.universal;
origin = (0,19);
type = Corner;
},
{
name = _corner.universal;
origin = (0,20);
type = Corner;
},
{
name = _corner.universal;
origin = (0,2);
type = Corner;
},
{
name = _corner.universal;
origin = (0,3);
type = Corner;
},
{
name = _corner.universal;
origin = (0,48);
type = Corner;
}
);
layerId = "CA4EC710-46DE-40B5-AF89-3BCF48EEB297";
shapes = (
{
closed = 1;
nodes = (
(1040,147,o),
(1055,319,o),
(1079,469,c),
(1021,476,l),
(927,146,o),
(880,60,o),
(596,60,cs),
(509,60,o),
(458,65,o),
(434,95,cs),
(413,121,o),
(411,160,o),
(411,291,cs),
(411,964,ls),
(411,1045,o),
(417,1099,o),
(450,1125,cs),
(475,1145,o),
(533,1152,o),
(627,1152,c),
(627,1212,l),
(500,1212,o),
(407,1204,o),
(337,1204,cs),
(273,1204,o),
(186,1212,o),
(77,1212,c),
(77,1154,l),
(160,1154,o),
(211,1150,o),
(234,1125,cs),
(251,1107,o),
(257,1060,o),
(257,978,cs),
(257,215,ls),
(257,123,o),
(247,100,o),
(217,80,cs),
(190,62,o),
(143,57,o),
(77,54,c),
(77,-4,l),
(197,-4,o),
(262,0,o),
(331,0,cs),
(624,0,ls),
(755,0,o),
(886,-3,o),
(1033,-8,c)
);
}
);
userData = {
com.typemytype.robofont.mark = (
0.656,
1,
0.6,
1
);
};
width = 1100;
},
{
background = {
shapes = (
{
closed = 1;
nodes = (
(421,1034,o),
(427,1084,o),
(456,1107,cs),
(480,1126,o),
(538,1132,o),
(621,1132,c),
(637,1148,l),
(637,1196,l),
(621,1212,l),
(504,1212,o),
(405,1204,o),
(337,1204,cs),
(275,1204,o),
(181,1212,o),
(83,1212,c),
(67,1196,l),
(67,1150,l),
(83,1134,l),
(161,1134,o),
(207,1130,o),
(227,1108,cs),
(241,1093,o),
(247,1049,o),
(247,968,cs),
(247,225,ls),
(247,136,o),
(238,116,o),
(211,98,cs),
(187,82,o),
(145,78,o),
(83,74,c),
(67,58,l),
(67,12,l),
(83,-4,l),
(200,-4,o),
(263,0,o),
(331,0,cs),
(624,0,ls),
(758,0,o),
(892,-4,o),
(1027,-8,c),
(1043,8,l),
(1047,153,o),
(1065,327,o),
(1088,473,c),
(1072,489,l),
(1024,489,l),
(1006,475,l),
(916,158,o),
(870,80,o),
(596,80,cs),
(510,80,o),
(463,85,o),
(442,111,cs),
(423,135,o),
(421,170,o),
(421,301,cs),
(421,954,ls)
);
}
);
};
backgroundImage = {
imagePath = "Mergenthaler docs/Microscope/Roman-32.tiff";
locked = 1;
pos = (-1294,-670);
scale = (5.12,5.12);
};
hints = (
{
name = _corner.universal;
origin = (0,26);
type = Corner;
},
{
name = _corner.universal;
origin = (0,27);
type = Corner;
},
{
name = _corner.universal;
origin = (0,40);
type = Corner;
},
{
name = _corner.universal;
origin = (0,41);
type = Corner;
},
{
name = _corner.universal;
origin = (0,19);
type = Corner;
},
{
name = _corner.universal;
origin = (0,20);
type = Corner;
},
{
name = _corner.universal;
origin = (0,2);
type = Corner;
},
{
name = _corner.universal;
origin = (0,3);
type = Corner;
},
{
name = _corner.universal;
origin = (0,48);
type = Corner;
}
);
layerId = "25879A17-30FE-49F5-8BDD-4D78448C8558";
shapes = (
{
closed = 1;
nodes = (
(1049,153,o),
(1065,334,o),
(1091,489,c),
(1014,500,l),
(920,162,o),
(877,80,o),
(596,80,cs),
(510,80,o),
(463,85,o),
(442,111,cs),
(423,135,o),
(421,170,o),
(421,301,cs),
(421,954,ls),
(421,1034,o),
(427,1084,o),
(456,1107,cs),
(480,1126,o),
(538,1132,o),
(637,1132,c),
(637,1212,l),
(504,1212,o),
(408,1204,o),
(337,1204,cs),
(272,1204,o),
(181,1212,o),
(67,1212,c),
(67,1134,l),
(155,1134,o),
(206,1131,o),
(227,1108,cs),
(241,1093,o),
(247,1049,o),
(247,968,cs),
(247,225,ls),
(247,136,o),
(238,116,o),
(211,98,cs),
(185,81,o),
(138,77,o),
(67,73,c),
(67,-4,l),
(194,-4,o),
(260,0,o),
(331,0,cs),
(624,0,ls),
(758,0,o),
(892,-3,o),
(1043,-8,c)
);
}
);
width = 1100;
},
{
backgroundImage = {
imagePath = "Mergenthaler docs/Kursiv/uppercase.tif";
locked = 1;
pos = (-16132,-444);
scale = (189.9767,189.9767);
};
hints = (
{
name = _corner.universal;
origin = (0,2);
type = Corner;
},
{
name = _corner.universal;
origin = (0,3);
type = Corner;
},
{
name = _corner.universal;
origin = (0,19);
type = Corner;
},
{
name = _corner.universal;
origin = (0,20);
type = Corner;
},
{
name = _corner.universal;
origin = (0,26);
type = Corner;
},
{
name = _corner.universal;
origin = (0,27);
type = Corner;
},
{
name = _corner.universal;
origin = (0,40);
type = Corner;
},
{
name = _corner.universal;
origin = (0,41);
type = Corner;
},
{
name = _corner.universal;
origin = (0,48);
type = Corner;
}
);
layerId = master01;
shapes = (
{
closed = 1;
nodes = (
(992,146,o),
(1031,286,o),
(1083,459,c),
(1023,476,l),
(889,152,o),
(786,60,o),
(527,60,cs),
(440,60,o),
(394,65,o),
(377,96,cs),
(362,124,o),
(369,161,o),
(402,293,cs),
(575,984,ls),
(596,1069,o),
(625,1102,o),
(636,1113,cs),
(669,1146,o),
(718,1152,o),
(796,1152,c),
(796,1212,l),
(679,1212,o),
(605,1204,o),
(535,1204,cs),
(473,1204,o),
(382,1212,o),
(267,1212,c),
(267,1154,l),
(371,1153,o),
(415,1138,o),
(428,1108,cs),
(440,1078,o),
(430,1035,o),
(415,976,cs),
(224,213,ls),
(211,160,o),
(194,124,o),
(171,101,cs),
(147,77,o),
(108,61,o),
(42,54,c),
(42,-4,l),
(128,-4,o),
(212,0,o),
(263,0,cs),
(519,0,ls),
(673,0,o),
(812,-3,o),
(963,-8,c)
);
}
);
width = 1100;
},
{
background = {
shapes = (
{
ref = E;
}
);
};
backgroundImage = {
angle = -0.5;
imagePath = "Mergenthaler docs/Microscope/Italic-30.tiff";
locked = 1;
pos = (-4057,-508);
scale = (5.12,5.12);
};
guides = (
{
pos = (-225,1183);
}
);
hints = (
{
name = _corner.universal;
origin = (0,2);
type = Corner;
},
{
name = _corner.universal;
origin = (0,3);
type = Corner;
},
{
name = _corner.universal;
origin = (0,19);
type = Corner;
},
{
name = _corner.universal;
origin = (0,20);
type = Corner;
},
{
name = _corner.universal;
origin = (0,26);
type = Corner;
},
{
name = _corner.universal;
origin = (0,27);
type = Corner;
},
{
name = _corner.universal;
origin = (0,40);
type = Corner;
},
{
name = _corner.universal;
origin = (0,41);
type = Corner;
},
{
name = _corner.universal;
origin = (0,48);
type = Corner;
}
);
layerId = m004;
shapes = (
{
closed = 1;
nodes = (
(983,151,o),
(1023,295,o),
(1078,476,c),
(999,498,l),
(871,170,o),
(742,80,o),
(526,80,cs),
(453,80,o),
(412,85,o),
(398,111,cs),
(385,135,o),
(391,170,o),
(424,301,cs),
(591,972,ls),
(611,1054,o),
(629,1078,o),
(645,1093,cs),
(676,1121,o),
(729,1130,o),
(812,1130,c),
(812,1212,l),
(689,1212,o),
(612,1204,o),
(541,1204,cs),
(478,1204,o),
(383,1212,o),
(263,1212,c),
(263,1134,l),
(371,1134,o),
(412,1120,o),
(423,1094,cs),
(434,1067,o),
(426,1027,o),
(411,968,cs),
(226,225,ls),
(213,173,o),
(198,140,o),
(176,118,cs),
(154,96,o),
(120,79,o),
(58,73,c),
(58,-4,l),
(142,-4,o),
(226,0,o),
(275,0,cs),
(531,0,ls),
(677,0,o),
(809,-3,o),
(953,-8,c)
);
}
);
width = 1100;
}
);
unicode = 76;
},
{
glyphname = M;
kernLeft = E;
kernRight = I;
lastChange = "2023-11-28 22:50:34 +0000";
layers = (
{
hints = (
{
name = _corner.universal;
origin = (0,33);
type = Corner;
},
{
name = _corner.universal;
origin = (0,34);
type = Corner;
},
{
name = _corner.universal;
origin = (0,19);
type = Corner;
},
{
name = _corner.universal;
origin = (0,20);
type = Corner;
},
{
name = _corner.universal;
origin = (0,12);
type = Corner;
},
{
name = _corner.universal;
origin = (0,13);
type = Corner;
},
{
name = _corner.universal;
origin = (0,0);
type = Corner;
},
{
name = _corner.universal;
origin = (0,85);
type = Corner;
},
{
name = _corner.universal;
origin = (0,72);
type = Corner;
},
{
name = _corner.universal;
origin = (0,73);
type = Corner;
},
{
name = _corner.universal;
origin = (0,65);
type = Corner;
},
{
name = _corner.universal;
origin = (0,66);
type = Corner;
},
{
name = _corner.universal;
origin = (0,51);
type = Corner;
},
{
name = _corner.universal;
origin = (0,52);
type = Corner;
},
{
name = _corner.universal;
origin = (0,47);
type = Corner;
},
{
name = _corner.universal;
origin = (0,38);
type = Corner;
}
);
layerId = "CA4EC710-46DE-40B5-AF89-3BCF48EEB297";
shapes = (
{
closed = 1;
nodes = (
(808,-10,l),
(823,93,o),
(852,200,o),
(892,317,cs),
(1194,1192,l),
(1189,1192,l),
(1189,217,ls),
(1189,125,o),
(1179,102,o),
(1149,82,cs),
(1122,64,o),
(1075,59,o),
(1009,56,c),
(1009,-2,l),
(1135,-2,o),
(1196,6,o),
(1263,6,cs),
(1324,6,o),
(1412,-2,o),
(1521,-2,c),
(1521,56,l),
(1432,60,o),
(1386,60,o),
(1366,82,cs),
(1346,103,o),
(1343,150,o),
(1343,208,cs),
(1343,982,ls),
(1343,1084,o),
(1352,1112,o),
(1382,1133,cs),
(1409,1152,o),
(1468,1154,o),
(1523,1154,c),
(1523,1212,l),
(1398,1212,o),
(1339,1204,o),
(1269,1204,cs),
(1117,1204,l),
(1090,1107,o),
(1067,1039,o),
(1038,955,cs),
(803,270,l),
(816,270,l),
(552,985,ls),
(525,1059,o),
(503,1123,o),
(481,1204,c),
(306,1204,ls),
(241,1204,o),
(166,1212,o),
(82,1212,c),
(82,1154,l),
(171,1154,o),
(221,1143,o),
(239,1120,cs),
(257,1098,o),
(262,1049,o),
(262,960,cs),
(262,306,ls),
(262,173,o),
(241,132,o),
(216,104,cs),
(194,79,o),
(157,63,o),
(82,56,c),
(82,-2,l),
(151,-2,o),
(213,6,o),
(295,6,cs),
(353,6,o),
(429,-2,o),
(502,-2,c),
(502,56,l),
(419,63,o),
(389,77,o),
(371,100,cs),
(349,128,o),
(332,163,o),
(332,298,cs),
(332,1168,l),
(315,1168,l),
(605,389,ls),
(659,245,o),
(701,120,o),
(728,-10,c)
);
},
{
closed = 1;
nodes = (
(384,1048,l),
(342,1186,l),
(300,1186,l),
(300,1048,l)
);
},
{
closed = 1;
nodes = (
(1208,1070,l),
(1208,1199,l),
(1166,1199,l),
(1124,1070,l)
);
}
);
userData = {
com.typemytype.robofont.guides = (
{
angle = 0;
isGlobal = 0;
magnetic = 5;
x = 0;
y = 1028;
}
);
com.typemytype.robofont.mark = (
0.656,
1,
0.6,
1
);
};
width = 1580;
},
{
background = {
shapes = (
{
closed = 1;
nodes = (
(1161,227,ls),
(1161,138,o),
(1152,118,o),
(1125,100,cs),
(1101,84,o),
(1059,80,o),
(997,76,c),
(981,60,l),
(981,14,l),
(997,-2,l),
(1114,-2,o),
(1177,6,o),
(1245,6,cs),
(1307,6,o),
(1399,-2,o),
(1497,-2,c),
(1513,14,l),
(1513,60,l),
(1497,76,l),
(1418,80,o),
(1372,80,o),
(1355,99,cs),
(1339,118,o),
(1335,161,o),
(1335,218,cs),
(1335,972,ls),
(1335,1072,o),
(1343,1097,o),
(1370,1115,cs),
(1394,1131,o),
(1447,1134,o),
(1499,1134,c),
(1515,1150,l),
(1515,1196,l),
(1499,1212,l),
(1382,1212,o),
(1319,1204,o),
(1251,1204,cs),
(1106,1204,l),
(1088,1192,l),
(1061,1097,o),
(1040,1029,o),
(1011,948,cs),
(771,270,l),
(812,270,l),
(543,979,ls),
(516,1050,o),
(493,1120,o),
(474,1191,c),
(455,1204,l),
(288,1204,ls),
(221,1204,o),
(141,1212,o),
(70,1212,c),
(54,1196,l),
(54,1150,l),
(70,1134,l),
(148,1134,o),
(197,1123,o),
(213,1104,cs),
(229,1084,o),
(234,1038,o),
(234,950,cs),
(234,316,ls),
(234,186,o),
(213,148,o),
(190,121,cs),
(171,99,o),
(133,82,o),
(70,76,c),
(54,60,l),
(54,14,l),
(70,-2,l),
(128,-2,o),
(199,6,o),
(277,6,cs),
(332,6,o),
(417,-2,o),
(478,-2,c),
(494,14,l),
(494,60,l),
(478,76,l),
(406,82,o),
(377,96,o),
(361,116,cs),
(340,143,o),
(324,176,o),
(324,308,cs),
(324,1168,l),
(282,1168,l),
(578,395,ls),
(631,255,o),
(672,132,o),
(699,6,c),
(715,-10,l),
(785,-10,l),
(801,6,l),
(816,106,o),
(843,210,o),
(883,324,cs),
(1190,1192,l),
(1161,1192,l)
);
},
{
closed = 1;
nodes = (
(272,1186,l),
(272,1028,l),
(380,1028,l),
(331,1186,l)
);
},
{
closed = 1;
nodes = (
(1200,1050,l),
(1200,1199,l),
(1141,1199,l),
(1092,1050,l)
);
}
);
};
backgroundImage = {
imagePath = "Mergenthaler docs/Microscope/Roman-32.tiff";
locked = 1;
pos = (-2643,-670);
scale = (5.12,5.12);
};
hints = (
{
name = _corner.universal;
origin = (0,33);
type = Corner;
},
{
name = _corner.universal;
origin = (0,34);
type = Corner;
},
{
name = _corner.universal;
origin = (0,51);
type = Corner;
},
{
name = _corner.universal;
origin = (0,52);
type = Corner;
},
{
name = _corner.universal;
origin = (0,47);
type = Corner;
},
{
name = _corner.universal;
origin = (0,38);
type = Corner;
},
{
name = _corner.universal;
origin = (0,65);
type = Corner;
},
{
name = _corner.universal;
origin = (0,66);
type = Corner;
},
{
name = _corner.universal;
origin = (0,72);
type = Corner;
},
{
name = _corner.universal;
origin = (0,73);
type = Corner;
},
{
name = _corner.universal;
origin = (0,0);
type = Corner;
},
{
name = _corner.universal;
origin = (0,85);
type = Corner;
},
{
name = _corner.universal;
origin = (0,12);
type = Corner;
},
{
name = _corner.universal;
origin = (0,13);
type = Corner;
},
{
name = _corner.universal;
origin = (0,19);
type = Corner;
},
{
name = _corner.universal;
origin = (0,20);
type = Corner;
}
);
layerId = "25879A17-30FE-49F5-8BDD-4D78448C8558";
shapes = (
{
closed = 1;
nodes = (
(807,-10,l),
(823,95,o),
(854,204,o),
(895,324,cs),
(1190,1192,l),
(1161,1192,l),
(1161,227,ls),
(1161,138,o),
(1152,118,o),
(1125,100,cs),
(1099,83,o),
(1052,79,o),
(981,75,c),
(981,-2,l),
(1114,-2,o),
(1177,6,o),
(1245,6,cs),
(1307,6,o),
(1399,-2,o),
(1513,-2,c),
(1513,75,l),
(1418,78,o),
(1373,80,o),
(1355,99,cs),
(1338,117,o),
(1335,161,o),
(1335,218,cs),
(1335,972,ls),
(1335,1072,o),
(1343,1097,o),
(1370,1115,cs),
(1395,1132,o),
(1451,1134,o),
(1503,1134,c),
(1503,1212,l),
(1376,1212,o),
(1319,1204,o),
(1251,1204,cs),
(1091,1204,l),
(1063,1103,o),
(1041,1032,o),
(1013,948,cs),
(787,270,l),
(824,270,l),
(555,979,ls),
(526,1054,o),
(505,1120,o),
(483,1204,c),
(300,1204,ls),
(233,1204,o),
(153,1212,o),
(66,1212,c),
(66,1134,l),
(160,1134,o),
(209,1124,o),
(225,1104,cs),
(241,1084,o),
(246,1038,o),
(246,950,cs),
(246,316,ls),
(246,186,o),
(228,147,o),
(206,121,cs),
(185,97,o),
(151,82,o),
(74,75,c),
(74,-2,l),
(147,-2,o),
(210,6,o),
(293,6,cs),
(352,6,o),
(430,-2,o),
(506,-2,c),
(506,75,l),
(419,82,o),
(393,95,o),
(376,116,cs),
(353,144,o),
(336,176,o),
(336,308,cs),
(336,1168,l),
(294,1168,l),
(590,395,ls),
(646,249,o),
(687,122,o),
(712,-10,c)
);
},
{
closed = 1;
nodes = (
(392,1024,l),
(343,1186,l),
(284,1186,l),
(284,1024,l)
);
},
{
closed = 1;
nodes = (
(1200,1066,l),
(1200,1199,l),
(1141,1199,l),
(1092,1066,l)
);
}
);
width = 1580;
},
{
backgroundImage = {
imagePath = "Mergenthaler docs/Kursiv/uppercase.tif";
locked = 1;
pos = (-17372,-444);
scale = (189.9767,189.9767);
};
color = 1;
guides = (
{
pos = (545,1008);
}
);
hints = (
{
name = _corner.universal;
origin = (0,33);
type = Corner;
},
{
name = _corner.universal;
origin = (0,34);
type = Corner;
},
{
name = _corner.universal;
origin = (0,51);
type = Corner;
},
{
name = _corner.universal;
origin = (0,52);
type = Corner;
},
{
name = _corner.universal;
origin = (0,47);
type = Corner;
},
{
name = _corner.universal;
origin = (0,38);
type = Corner;
},
{
name = _corner.universal;
origin = (0,65);
type = Corner;
},
{
name = _corner.universal;
origin = (0,66);
type = Corner;
},
{
name = _corner.universal;
origin = (0,72);
type = Corner;
},
{
name = _corner.universal;
origin = (0,73);
type = Corner;
},
{
name = _corner.universal;
origin = (0,0);
type = Corner;
},
{
name = _corner.universal;
origin = (0,85);
type = Corner;
},
{
name = _corner.universal;
origin = (0,12);
type = Corner;
},
{
name = _corner.universal;
origin = (0,13);
type = Corner;
},
{
name = _corner.universal;
origin = (0,19);
type = Corner;
},
{
name = _corner.universal;
origin = (0,20);
type = Corner;
}
);
layerId = master01;
shapes = (
{
closed = 1;
nodes = (
(712,-10,l),
(756,96,o),
(813,197,o),
(884,319,cs),
(1389,1192,l),
(1368,1192,l),
(1124,215,ls),
(1110,160,o),
(1094,124,o),
(1071,101,cs),
(1048,77,o),
(1006,59,o),
(942,55,c),
(942,-2,l),
(1013,-1,o),
(1097,6,o),
(1163,6,cs),
(1225,6,o),
(1297,-2,o),
(1400,-2,c),
(1400,55,l),
(1330,59,o),
(1298,72,o),
(1284,86,cs),
(1260,110,o),
(1266,152,o),
(1281,210,cs),
(1475,984,ls),
(1496,1067,o),
(1507,1101,o),
(1530,1124,cs),
(1551,1145,o),
(1585,1151,o),
(1620,1154,c),
(1620,1212,l),
(1545,1211,o),
(1491,1204,o),
(1398,1204,cs),
(1307,1204,l),
(1255,1105,o),
(1217,1038,o),
(1168,953,cs),
(776,270,l),
(790,270,l),
(730,988,ls),
(724,1060,o),
(719,1124,o),
(718,1204,c),
(581,1204,ls),
(497,1204,o),
(384,1211,o),
(317,1212,c),
(317,1154,l),
(385,1154,o),
(431,1150,o),
(452,1129,cs),
(487,1094,o),
(469,1022,o),
(452,957,cs),
(283,314,ls),
(256,213,o),
(232,143,o),
(190,101,cs),
(164,75,o),
(132,60,o),
(89,56,c),
(89,-2,l),
(144,-1,o),
(209,6,o),
(266,6,cs),
(321,6,o),
(382,-1,o),
(481,-2,c),
(481,56,l),
(392,63,o),
(361,82,o),
(345,112,cs),
(330,140,o),
(322,188,o),
(353,309,cs),
(573,1168,l),
(561,1168,l),
(628,386,ls),
(640,243,o),
(636,118,o),
(630,-10,c)
);
},
{
closed = 1;
nodes = (
(591,1028,l),
(584,1166,l),
(542,1166,l),
(507,1028,l)
);
},
{
closed = 1;
nodes = (
(1362,1022,l),
(1394,1151,l),
(1354,1151,l),
(1279,1022,l)
);
}
);
userData = {
com.typemytype.robofont.guides = (
{
angle = 0;
isGlobal = 0;
magnetic = 5;
x = 0;
y = 1028;
}
);
};
width = 1580;
},
{
background = {
hints = (
{
name = _corner.universal;
origin = (0,0);
type = Corner;
},
{
name = _corner.universal;
origin = (0,12);
type = Corner;
},
{
name = _corner.universal;
origin = (0,13);
type = Corner;
},
{
name = _corner.universal;
origin = (0,19);
type = Corner;
},
{
name = _corner.universal;
origin = (0,20);
type = Corner;
},
{
name = _corner.universal;
origin = (0,33);
type = Corner;
},
{
name = _corner.universal;
origin = (0,34);
type = Corner;
},
{
name = _corner.universal;
origin = (0,38);
type = Corner;
},
{
name = _corner.universal;
origin = (0,47);
type = Corner;
},
{
name = _corner.universal;
origin = (0,51);
type = Corner;
},
{
name = _corner.universal;
origin = (0,52);
type = Corner;
},
{
name = _corner.universal;
origin = (0,65);
type = Corner;
},
{
name = _corner.universal;
origin = (0,66);
type = Corner;
},
{
name = _corner.universal;
origin = (0,72);
type = Corner;
},
{
name = _corner.universal;
origin = (0,73);
type = Corner;
},
{
name = _corner.universal;
origin = (0,85);
type = Corner;
}
);
shapes = (
{
closed = 1;
nodes = (
(705,-10,l),
(747,95,o),
(803,204,o),
(874,324,cs),
(1389,1192,l),
(1360,1192,l),
(1120,227,ls),
(1098,138,o),
(1084,118,o),
(1052,100,cs),
(1022,83,o),
(974,79,o),
(902,75,c),
(883,-2,l),
(1016,-2,o),
(1081,6,o),
(1149,6,cs),
(1211,6,o),
(1301,-2,o),
(1415,-2,c),
(1434,75,l),
(1340,78,o),
(1295,80,o),
(1282,99,cs),
(1269,117,o),
(1277,161,o),
(1292,218,cs),
(1480,972,ls),
(1505,1072,o),
(1519,1097,o),
(1550,1115,cs),
(1580,1132,o),
(1636,1134,o),
(1688,1134,c),
(1707,1212,l),
(1580,1212,o),
(1521,1204,o),
(1453,1204,cs),
(1293,1204,l),
(1240,1103,o),
(1202,1032,o),
(1152,948,cs),
(753,270,l),
(794,270,l),
(701,979,ls),
(691,1054,o),
(687,1120,o),
(685,1204,c),
(502,1204,ls),
(435,1204,o),
(357,1212,o),
(270,1212,c),
(251,1134,l),
(345,1134,o),
(392,1124,o),
(403,1104,cs),
(414,1084,o),
(407,1038,o),
(385,950,cs),
(227,316,ls),
(195,186,o),
(167,147,o),
(138,121,cs),
(111,97,o),
(74,82,o),
(-5,75,c),
(-24,-2,l),
(49,-2,o),
(114,6,o),
(197,6,cs),
(256,6,o),
(332,-2,o),
(408,-2,c),
(427,75,l),
(342,82,o),
(319,95,o),
(307,116,cs),
(291,144,o),
(282,176,o),
(315,308,cs),
(529,1168,l),
(487,1168,l),
(591,395,ls),
(610,249,o),
(620,122,o),
(612,-10,c)
);
}
);
};
backgroundImage = {
imagePath = "Mergenthaler docs/Microscope/Italic-29.tiff";
locked = 1;
pos = (-747,-548);
scale = (5.12,5.12);
};
guides = (
{
pos = (545,1024);
}
);
hints = (
{
name = _corner.universal;
origin = (0,33);
type = Corner;
},
{
name = _corner.universal;
origin = (0,34);
type = Corner;
},
{
name = _corner.universal;
origin = (0,51);
type = Corner;
},
{
name = _corner.universal;
origin = (0,52);
type = Corner;
},
{
name = _corner.universal;
origin = (0,47);
type = Corner;
},
{
name = _corner.universal;
origin = (0,38);
type = Corner;
},
{
name = _corner.universal;
origin = (0,65);
type = Corner;
},
{
name = _corner.universal;
origin = (0,66);
type = Corner;
},
{
name = _corner.universal;
origin = (0,72);
type = Corner;
},
{
name = _corner.universal;
origin = (0,73);
type = Corner;
},
{
name = _corner.universal;
origin = (0,0);
type = Corner;
},
{
name = _corner.universal;
origin = (0,85);
type = Corner;
},
{
name = _corner.universal;
origin = (0,12);
type = Corner;
},
{
name = _corner.universal;
origin = (0,13);
type = Corner;
},
{
name = _corner.universal;
origin = (0,19);
type = Corner;
},
{
name = _corner.universal;
origin = (0,20);
type = Corner;
}
);
layerId = m004;
shapes = (
{
closed = 1;
nodes = (
(690,-10,l),
(734,98,o),
(788,200,o),
(860,324,cs),
(1366,1192,l),
(1325,1192,l),
(1085,227,ls),
(1072,173,o),
(1057,140,o),
(1035,118,cs),
(1012,95,o),
(970,77,o),
(903,75,c),
(903,-2,l),
(977,-2,o),
(1065,6,o),
(1134,6,cs),
(1201,6,o),
(1280,-2,o),
(1396,-2,c),
(1396,75,l),
(1313,78,o),
(1276,89,o),
(1262,103,cs),
(1242,123,o),
(1248,161,o),
(1262,218,cs),
(1450,972,ls),
(1470,1054,o),
(1481,1086,o),
(1502,1107,cs),
(1522,1127,o),
(1557,1132,o),
(1595,1135,c),
(1595,1212,l),
(1514,1212,o),
(1459,1204,o),
(1363,1204,cs),
(1264,1204,l),
(1211,1102,o),
(1172,1034,o),
(1122,948,cs),
(730,270,l),
(782,270,l),
(721,979,ls),
(715,1054,o),
(710,1120,o),
(709,1204,c),
(559,1204,ls),
(470,1204,o),
(348,1212,o),
(282,1212,c),
(282,1134,l),
(358,1134,o),
(407,1131,o),
(426,1112,cs),
(457,1081,o),
(440,1014,o),
(423,950,cs),
(260,327,ls),
(233,224,o),
(209,146,o),
(176,113,cs),
(152,89,o),
(120,78,o),
(78,75,c),
(78,-2,l),
(131,-2,o),
(197,6,o),
(253,6,cs),
(308,6,o),
(370,-2,o),
(474,-2,c),
(474,75,l),
(384,81,o),
(356,99,o),
(341,127,cs),
(327,153,o),
(320,198,o),
(350,317,cs),
(567,1168,l),
(531,1168,l),
(599,395,ls),
(612,249,o),
(609,122,o),
(595,-10,c)
);
},
{
closed = 1;
nodes = (
(583,1024,l),
(574,1166,l),
(515,1166,l),
(475,1024,l)
);
},
{
closed = 1;
nodes = (
(1339,1024,l),
(1372,1151,l),
(1313,1151,l),
(1231,1024,l)
);
}
);
userData = {
com.typemytype.robofont.guides = (
{
angle = 0;
isGlobal = 0;
magnetic = 5;
x = 0;
y = 1028;
}
);
};
width = 1580;
}
);
unicode = 77;
},
{
glyphname = N;
kernLeft = E;
kernRight = N;
lastChange = "2023-11-28 22:53:47 +0000";
layers = (
{
hints = (
{
name = _corner.universal;
origin = (0,45);
type = Corner;
},
{
name = _corner.universal;
origin = (0,46);
type = Corner;
},
{
name = _corner.universal;
origin = (0,52);
type = Corner;
},
{
name = _corner.universal;
origin = (0,53);
type = Corner;
},
{
name = _corner.universal;
origin = (0,0);
type = Corner;
},
{
name = _corner.universal;
origin = (0,65);
type = Corner;
},
{
name = _corner.universal;
origin = (0,17);
type = Corner;
},
{
name = _corner.universal;
origin = (0,18);
type = Corner;
},
{
name = _corner.universal;
origin = (0,10);
type = Corner;
},
{
name = _corner.universal;
origin = (0,11);
type = Corner;
},
{
name = _corner.universal;
origin = (0,34);
type = Corner;
},
{
name = _corner.universal;
origin = (0,35);
type = Corner;
},
{
name = _corner.universal;
origin = (0,30);
type = Corner;
}
);
layerId = "CA4EC710-46DE-40B5-AF89-3BCF48EEB297";
shapes = (
{
closed = 1;
nodes = (
(1138,-23,l),
(1135,49,o),
(1132,125,o),
(1132,209,cs),
(1132,902,ls),
(1132,1041,o),
(1157,1078,o),
(1177,1102,cs),
(1195,1124,o),
(1233,1149,o),
(1312,1154,c),
(1312,1212,l),
(1224,1212,o),
(1159,1204,o),
(1093,1204,cs),
(1017,1204,o),
(945,1212,o),
(862,1212,c),
(862,1154,l),
(958,1149,o),
(998,1131,o),
(1022,1099,cs),
(1043,1072,o),
(1062,1024,o),
(1062,903,cs),
(1062,160,l),
(1092,195,l),
(649,876,ls),
(566,1003,o),
(502,1101,o),
(438,1204,c),
(312,1204,ls),
(247,1204,o),
(171,1212,o),
(88,1212,c),
(88,1154,l),
(177,1153,o),
(226,1143,o),
(245,1120,cs),
(263,1098,o),
(268,1049,o),
(268,960,cs),
(268,317,ls),
(268,151,o),
(249,71,o),
(88,56,c),
(88,-2,l),
(164,-2,o),
(243,6,o),
(301,6,cs),
(369,6,o),
(433,-2,o),
(536,-2,c),
(536,56,l),
(442,61,o),
(401,81,o),
(378,111,cs),
(357,138,o),
(338,186,o),
(338,307,cs),
(338,1065,l),
(332,1065,l),
(785,372,ls),
(864,252,o),
(971,89,o),
(1028,-23,c)
);
}
);
userData = {
com.typemytype.robofont.mark = (
0.656,
1,
0.6,
1
);
};
width = 1375;
},
{
background = {
shapes = (
{
closed = 1;
nodes = (
(1093,204,l),
(645,872,ls),
(561,998,o),
(501,1093,o),
(438,1194,c),
(417,1204,l),
(300,1204,ls),
(233,1204,o),
(153,1212,o),
(82,1212,c),
(66,1196,l),
(66,1150,l),
(82,1134,l),
(160,1134,o),
(209,1123,o),
(225,1104,cs),
(241,1084,o),
(246,1038,o),
(246,950,cs),
(246,327,ls),
(246,166,o),
(229,92,o),
(82,76,c),
(66,60,l),
(66,14,l),
(82,-2,l),
(140,-2,o),
(229,6,o),
(289,6,cs),
(359,6,o),
(425,-2,o),
(518,-2,c),
(534,14,l),
(534,60,l),
(518,76,l),
(432,82,o),
(396,99,o),
(374,127,cs),
(353,152,o),
(336,198,o),
(336,317,cs),
(336,1065,l),
(301,1065,l),
(765,374,ls),
(843,257,o),
(946,101,o),
(1003,-10,c),
(1021,-23,l),
(1120,-23,l),
(1136,-7,l),
(1133,63,o),
(1130,137,o),
(1130,219,cs),
(1130,892,ls),
(1130,1027,o),
(1153,1063,o),
(1173,1085,cs),
(1190,1105,o),
(1223,1128,o),
(1294,1134,c),
(1310,1150,l),
(1310,1196,l),
(1294,1212,l),
(1216,1212,o),
(1149,1204,o),
(1081,1204,cs),
(1003,1204,o),
(928,1212,o),
(856,1212,c),
(840,1196,l),
(840,1150,l),
(856,1134,l),
(944,1128,o),
(980,1111,o),
(1002,1083,cs),
(1022,1057,o),
(1040,1012,o),
(1040,893,cs),
(1040,143,l)
);
}
);
};
backgroundImage = {
imagePath = "Mergenthaler docs/Microscope/Roman-31.tiff";
locked = 1;
pos = (-1554,-655);
scale = (5.12,5.12);
};
hints = (
{
name = _corner.universal;
origin = (0,45);
type = Corner;
},
{
name = _corner.universal;
origin = (0,46);
type = Corner;
},
{
name = _corner.universal;
origin = (0,52);
type = Corner;
},
{
name = _corner.universal;
origin = (0,53);
type = Corner;
},
{
name = _corner.universal;
origin = (0,0);
type = Corner;
},
{
name = _corner.universal;
origin = (0,65);
type = Corner;
},
{
name = _corner.universal;
origin = (0,17);
type = Corner;
},
{
name = _corner.universal;
origin = (0,18);
type = Corner;
},
{
name = _corner.universal;
origin = (0,10);
type = Corner;
},
{
name = _corner.universal;
origin = (0,11);
type = Corner;
},
{
name = _corner.universal;
origin = (0,34);
type = Corner;
},
{
name = _corner.universal;
origin = (0,35);
type = Corner;
},
{
name = _corner.universal;
origin = (0,30);
type = Corner;
}
);
layerId = "25879A17-30FE-49F5-8BDD-4D78448C8558";
shapes = (
{
closed = 1;
nodes = (
(1133,-23,l),
(1129,52,o),
(1126,131,o),
(1126,219,cs),
(1126,892,ls),
(1126,1027,o),
(1149,1062,o),
(1169,1085,cs),
(1186,1105,o),
(1220,1131,o),
(1296,1135,c),
(1296,1212,l),
(1204,1212,o),
(1138,1204,o),
(1072,1204,cs),
(990,1204,o),
(910,1212,o),
(818,1212,c),
(818,1135,l),
(929,1130,o),
(974,1114,o),
(998,1083,cs),
(1018,1057,o),
(1036,1012,o),
(1036,893,cs),
(1036,143,l),
(1093,204,l),
(645,872,ls),
(558,1002,o),
(497,1099,o),
(432,1204,c),
(300,1204,ls),
(233,1204,o),
(153,1212,o),
(66,1212,c),
(66,1134,l),
(160,1134,o),
(208,1124,o),
(225,1104,cs),
(241,1084,o),
(246,1038,o),
(246,950,cs),
(246,327,ls),
(246,160,o),
(228,87,o),
(70,75,c),
(70,-2,l),
(145,-2,o),
(234,6,o),
(294,6,cs),
(367,6,o),
(436,-2,o),
(550,-2,c),
(550,75,l),
(443,80,o),
(397,98,o),
(374,127,cs),
(354,153,o),
(336,198,o),
(336,317,cs),
(336,1065,l),
(301,1065,l),
(765,374,ls),
(847,252,o),
(954,89,o),
(1010,-23,c)
);
}
);
width = 1375;
},
{
backgroundImage = {
imagePath = "Mergenthaler docs/Kursiv/uppercase.tif";
locked = 1;
pos = (-19196,-421);
scale = (189.9767,189.9767);
};
hints = (
{
name = _corner.universal;
origin = (0,45);
type = Corner;
},
{
name = _corner.universal;
origin = (0,46);
type = Corner;
},
{
name = _corner.universal;
origin = (0,52);
type = Corner;
},
{
name = _corner.universal;
origin = (0,53);
type = Corner;
},
{
name = _corner.universal;
origin = (0,0);
type = Corner;
},
{
name = _corner.universal;
origin = (0,65);
type = Corner;
},
{
name = _corner.universal;
origin = (0,17);
type = Corner;
},
{
name = _corner.universal;
origin = (0,18);
type = Corner;
},
{
name = _corner.universal;
origin = (0,10);
type = Corner;
},
{
name = _corner.universal;
origin = (0,11);
type = Corner;
},
{
name = _corner.universal;
origin = (0,34);
type = Corner;
},
{
name = _corner.universal;
origin = (0,35);
type = Corner;
},
{
name = _corner.universal;
origin = (0,30);
type = Corner;
}
);
layerId = master01;
shapes = (
{
closed = 1;
nodes = (
(1015,-23,l),
(1027,52,o),
(1048,160,o),
(1071,251,cs),
(1234,904,ls),
(1268,1040,o),
(1280,1076,o),
(1299,1104,cs),
(1319,1134,o),
(1350,1150,o),
(1408,1154,c),
(1408,1212,l),
(1346,1211,o),
(1299,1204,o),
(1252,1204,cs),
(1174,1204,o),
(1102,1211,o),
(1016,1212,c),
(1016,1154,l),
(1108,1148,o),
(1137,1128,o),
(1157,1099,cs),
(1174,1073,o),
(1193,1023,o),
(1162,901,cs),
(976,161,l),
(1019,197,l),
(727,881,ls),
(681,989,o),
(637,1096,o),
(596,1204,c),
(468,1204,ls),
(409,1204,o),
(341,1211,o),
(267,1212,c),
(267,1154,l),
(361,1153,o),
(402,1134,o),
(426,1101,cs),
(447,1073,o),
(459,1025,o),
(442,958,cs),
(280,315,ls),
(239,152,o),
(205,69,o),
(89,56,c),
(89,-2,l),
(144,-1,o),
(209,6,o),
(266,6,cs),
(321,6,o),
(382,-1,o),
(481,-2,c),
(481,56,l),
(392,63,o),
(361,82,o),
(345,112,cs),
(330,140,o),
(320,188,o),
(350,309,cs),
(540,1065,l),
(472,1065,l),
(768,370,ls),
(824,239,o),
(880,108,o),
(931,-23,c)
);
}
);
width = 1375;
},
{
backgroundImage = {
imagePath = "Mergenthaler docs/Microscope/Italic-29.tiff";
locked = 1;
pos = (-2527,-543);
scale = (5.12,5.12);
};
hints = (
{
name = _corner.universal;
origin = (0,45);
type = Corner;
},
{
name = _corner.universal;
origin = (0,46);
type = Corner;
},
{
name = _corner.universal;
origin = (0,52);
type = Corner;
},
{
name = _corner.universal;
origin = (0,53);
type = Corner;
},
{
name = _corner.universal;
origin = (0,0);
type = Corner;
},
{
name = _corner.universal;
origin = (0,65);
type = Corner;
},
{
name = _corner.universal;
origin = (0,17);
type = Corner;
},
{
name = _corner.universal;
origin = (0,18);
type = Corner;
},
{
name = _corner.universal;
origin = (0,10);
type = Corner;
},
{
name = _corner.universal;
origin = (0,11);
type = Corner;
},
{
name = _corner.universal;
origin = (0,34);
type = Corner;
},
{
name = _corner.universal;
origin = (0,35);
type = Corner;
},
{
name = _corner.universal;
origin = (0,30);
type = Corner;
}
);
layerId = m004;
shapes = (
{
closed = 1;
nodes = (
(1013,-23,l),
(1024,52,o),
(1046,164,o),
(1070,259,cs),
(1227,892,ls),
(1261,1027,o),
(1272,1062,o),
(1290,1088,cs),
(1310,1117,o),
(1336,1132,o),
(1395,1135,c),
(1395,1212,l),
(1330,1212,o),
(1282,1204,o),
(1235,1204,cs),
(1154,1204,o),
(1077,1212,o),
(985,1212,c),
(985,1135,l),
(1084,1130,o),
(1113,1111,o),
(1132,1083,cs),
(1148,1059,o),
(1165,1012,o),
(1135,893,cs),
(948,143,l),
(1034,204,l),
(733,875,ls),
(684,985,o),
(640,1094,o),
(598,1204,c),
(465,1204,ls),
(404,1204,o),
(333,1212,o),
(254,1212,c),
(254,1134,l),
(352,1134,o),
(392,1116,o),
(415,1085,cs),
(434,1059,o),
(445,1014,o),
(429,950,cs),
(273,327,ls),
(232,162,o),
(201,84,o),
(87,75,c),
(87,-2,l),
(142,-2,o),
(211,6,o),
(269,6,cs),
(328,6,o),
(394,-2,o),
(506,-2,c),
(506,75,l),
(405,81,o),
(372,98,o),
(357,127,cs),
(343,153,o),
(333,198,o),
(363,317,cs),
(550,1065,l),
(454,1065,l),
(762,376,ls),
(821,243,o),
(879,110,o),
(930,-23,c)
);
}
);
width = 1375;
}
);
unicode = 78;
},
{
glyphname = O;
kernLeft = O;
kernRight = O;
lastChange = "2023-11-28 23:19:31 +0000";
layers = (
{
anchors = (
{
name = top;
pos = (600,1210);
}
);
background = {
shapes = (
{
closed = 1;
nodes = (
(85,238,o),
(316,-20,o),
(600,-20,cs),
(884,-20,o),
(1115,236,o),
(1115,605,cs),
(1115,975,o),
(884,1230,o),
(600,1230,cs),
(316,1230,o),
(85,975,o),
(85,604,cs)
);
},
{
closed = 1;
nodes = (
(266,913,o),
(336,1166,o),
(600,1166,cs),
(864,1166,o),
(934,913,o),
(934,605,cs),
(934,297,o),
(864,44,o),
(600,44,cs),
(336,44,o),
(266,297,o),
(266,605,cs)
);
}
);
};
layerId = "CA4EC710-46DE-40B5-AF89-3BCF48EEB297";
shapes = (
{
closed = 1;
nodes = (
(886,-30,o),
(1115,228,o),
(1115,605,cs),
(1115,983,o),
(886,1240,o),
(600,1240,cs),
(314,1240,o),
(85,983,o),
(85,604,cs),
(85,230,o),
(314,-30,o),
(600,-30,cs)
);
},
{
closed = 1;
nodes = (
(336,34,o),
(266,294,o),
(266,605,cs),
(266,916,o),
(336,1176,o),
(600,1176,cs),
(864,1176,o),
(934,916,o),
(934,605,cs),
(934,294,o),
(864,34,o),
(600,34,cs)
);
}
);
userData = {
com.typemytype.robofont.mark = (
0.656,
1,
0.6,
1
);
};
width = 1200;
},
{
anchors = (
{
name = top;
pos = (600,1210);
}
);
backgroundImage = {
imagePath = "Mergenthaler docs/Microscope/Roman-31.tiff";
locked = 1;
pos = (-3178,-656);
scale = (5.12,5.12);
};
layerId = "25879A17-30FE-49F5-8BDD-4D78448C8558";
shapes = (
{
closed = 1;
nodes = (
(890,-30,o),
(1125,230,o),
(1125,605,cs),
(1125,981,o),
(890,1240,o),
(600,1240,cs),
(310,1240,o),
(75,981,o),
(75,604,cs),
(75,232,o),
(310,-30,o),
(600,-30,cs)
);
},
{
closed = 1;
nodes = (
(344,54,o),
(276,302,o),
(276,605,cs),
(276,908,o),
(344,1156,o),
(600,1156,cs),
(856,1156,o),
(924,908,o),
(924,605,cs),
(924,302,o),
(856,54,o),
(600,54,cs)
);
}
);
width = 1200;
},
{
anchors = (
{
name = top;
pos = (799,1210);
}
);
layerId = master01;
shapes = (
{
closed = 1;
nodes = (
(918,-30,o),
(1192,408,o),
(1192,785,cs),
(1192,1062,o),
(1032,1240,o),
(782,1240,cs),
(384,1240,o),
(110,806,o),
(110,426,cs),
(110,149,o),
(269,-30,o),
(520,-30,cs)
);
},
{
closed = 1;
nodes = (
(350,34,o),
(278,164,o),
(278,349,cs),
(278,553,o),
(422,1176,o),
(786,1176,cs),
(952,1176,o),
(1016,1046,o),
(1016,859,cs),
(1016,587,o),
(878,34,o),
(515,34,cs)
);
}
);
width = 1200;
},
{
anchors = (
{
name = top;
pos = (799,1210);
}
);
background = {
shapes = (
{
closed = 1;
nodes = (
(831,-30,o),
(1097,229,o),
(1181,605,cs),
(1265,981,o),
(1090,1240,o),
(779,1240,cs),
(471,1240,o),
(204,980,o),
(121,604,cs),
(38,230,o),
(212,-30,o),
(523,-30,cs)
);
},
{
closed = 1;
nodes = (
(287,54,o),
(243,304,o),
(327,605,cs),
(412,908,o),
(542,1156,o),
(783,1156,cs),
(1014,1156,o),
(1041,910,o),
(975,605,cs),
(909,302,o),
(759,54,o),
(518,54,cs)
);
}
);
};
backgroundImage = {
imagePath = "Mergenthaler docs/Microscope/Italic-28.tiff";
locked = 1;
pos = (-1438,-528);
scale = (5.12,5.12);
};
layerId = m004;
shapes = (
{
closed = 1;
nodes = (
(920,-30,o),
(1192,408,o),
(1192,785,cs),
(1192,1061,o),
(1031,1240,o),
(779,1240,cs),
(383,1240,o),
(111,806,o),
(111,426,cs),
(111,150,o),
(271,-30,o),
(523,-30,cs)
);
},
{
closed = 1;
nodes = (
(361,54,o),
(293,174,o),
(293,349,cs),
(293,549,o),
(434,1156,o),
(783,1156,cs),
(941,1156,o),
(1002,1036,o),
(1002,859,cs),
(1002,592,o),
(867,54,o),
(518,54,cs)
);
}
);
width = 1200;
}
);
unicode = 79;
},
{
glyphname = P;
kernLeft = E;
lastChange = "2023-11-28 23:03:57 +0000";
layers = (
{
background = {
hints = (
{
name = _corner.universal;
origin = (0,0);
type = Corner;
},
{
name = _corner.universal;
origin = (0,34);
type = Corner;
},
{
name = _corner.universal;
origin = (0,35);
type = Corner;
},
{
name = _corner.universal;
origin = (0,48);
type = Corner;
},
{
name = _corner.universal;
origin = (0,49);
type = Corner;
},
{
name = _corner.universal;
origin = (0,55);
type = Corner;
}
);
shapes = (
{
closed = 1;
nodes = (
(649,56,l),
(521,59,o),
(463,68,o),
(441,86,cs),
(418,105,o),
(411,150,o),
(411,208,cs),
(411,879,ls),
(411,955,o),
(411,1065,o),
(432,1108,cs),
(454,1153,o),
(532,1158,o),
(598,1158,cs),
(809,1158,o),
(887,1050,o),
(887,890,cs),
(887,739,o),
(820,613,o),
(601,613,cs),
(372,613,l),
(372,553,l),
(617,553,ls),
(890,553,o),
(1057,685,o),
(1057,891,cs),
(1057,1090,o),
(913,1218,o),
(647,1218,cs),
(535,1218,o),
(425,1204,o),
(340,1204,cs),
(267,1204,o),
(185,1216,o),
(77,1216,c),
(77,1158,l),
(160,1158,o),
(211,1154,o),
(234,1129,cs),
(251,1111,o),
(257,1062,o),
(257,977,cs),
(257,226,ls),
(257,130,o),
(247,102,o),
(217,82,cs),
(190,64,o),
(143,59,o),
(77,56,c),
(77,-2,l),
(203,-2,o),
(264,6,o),
(344,6,cs),
(420,6,o),
(528,-4,o),
(649,-4,c)
);
}
);
};
hints = (
{
name = _corner.universal;
origin = (0,5);
type = Corner;
},
{
name = _corner.universal;
origin = (0,6);
type = Corner;
},
{
name = _corner.universal;
origin = (0,12);
type = Corner;
},
{
name = _corner.universal;
origin = (0,13);
type = Corner;
},
{
name = _corner.universal;
origin = (0,53);
type = Corner;
},
{
name = _corner.universal;
origin = (0,54);
type = Corner;
}
);
layerId = "CA4EC710-46DE-40B5-AF89-3BCF48EEB297";
shapes = (
{
closed = 1;
nodes = (
(257,130,o),
(247,102,o),
(217,82,cs),
(190,64,o),
(143,59,o),
(77,56,c),
(77,-2,l),
(203,-2,o),
(264,6,o),
(344,6,cs),
(420,6,o),
(528,-3,o),
(649,-4,c),
(649,56,l),
(521,59,o),
(463,68,o),
(441,86,cs),
(418,105,o),
(411,150,o),
(411,208,cs),
(411,884,ls),
(411,1062,o),
(416,1104,o),
(440,1127,cs),
(470,1155,o),
(529,1158,o),
(579,1158,cs),
(799,1158,o),
(875,1039,o),
(875,895,cs),
(875,818,o),
(851,743,o),
(801,693,cs),
(755,647,o),
(673,619,o),
(579,619,cs),
(372,619,l),
(372,559,l),
(587,559,ls),
(758,559,o),
(878,599,o),
(958,679,cs),
(1008,729,o),
(1045,800,o),
(1045,896,cs),
(1045,1074,o),
(908,1218,o),
(619,1218,cs),
(531,1218,o),
(423,1204,o),
(340,1204,cs),
(267,1204,o),
(185,1215,o),
(77,1216,c),
(77,1158,l),
(160,1158,o),
(211,1154,o),
(234,1129,cs),
(251,1111,o),
(257,1064,o),
(257,982,cs),
(257,226,ls)
);
}
);
userData = {
com.typemytype.robofont.mark = (
0.656,
1,
0.6,
1
);
};
width = 1150;
},
{
background = {
hints = (
{
name = _corner.universal;
origin = (0,0);
type = Corner;
},
{
name = _corner.universal;
origin = (0,37);
type = Corner;
},
{
name = _corner.universal;
origin = (0,38);
type = Corner;
},
{
name = _corner.universal;
origin = (0,51);
type = Corner;
},
{
name = _corner.universal;
origin = (0,52);
type = Corner;
},
{
name = _corner.universal;
origin = (0,58);
type = Corner;
}
);
shapes = (
{
closed = 1;
nodes = (
(659,76,l),
(525,79,o),
(467,87,o),
(447,104,cs),
(428,120,o),
(421,161,o),
(421,218,cs),
(421,874,ls),
(421,1051,o),
(426,1090,o),
(447,1110,cs),
(474,1135,o),
(529,1138,o),
(579,1138,cs),
(793,1138,o),
(865,1032,o),
(865,890,cs),
(865,817,o),
(842,748,o),
(794,700,cs),
(750,656,o),
(671,629,o),
(579,629,cs),
(362,629,l),
(362,549,l),
(611,549,ls),
(880,549,o),
(1055,690,o),
(1055,891,cs),
(1055,1076,o),
(912,1218,o),
(619,1218,cs),
(530,1218,o),
(422,1204,o),
(340,1204,cs),
(265,1204,o),
(181,1216,o),
(67,1216,c),
(67,1138,l),
(155,1138,o),
(206,1135,o),
(227,1112,cs),
(241,1097,o),
(247,1053,o),
(247,972,cs),
(247,236,ls),
(247,143,o),
(238,118,o),
(211,100,cs),
(185,83,o),
(138,79,o),
(67,75,c),
(67,-2,l),
(200,-2,o),
(263,6,o),
(344,6,cs),
(422,6,o),
(533,-4,o),
(659,-4,c)
);
}
);
};
backgroundImage = {
imagePath = "Mergenthaler docs/Microscope/Roman-30.tiff";
locked = 1;
pos = (-1850,-679);
scale = (5.12,5.12);
};
hints = (
{
name = _corner.universal;
origin = (0,5);
type = Corner;
},
{
name = _corner.universal;
origin = (0,6);
type = Corner;
},
{
name = _corner.universal;
origin = (0,13);
type = Corner;
},
{
name = _corner.universal;
origin = (0,12);
type = Corner;
},
{
name = _corner.universal;
origin = (0,53);
type = Corner;
},
{
name = _corner.universal;
origin = (0,54);
type = Corner;
}
);
layerId = "25879A17-30FE-49F5-8BDD-4D78448C8558";
shapes = (
{
closed = 1;
nodes = (
(247,143,o),
(238,118,o),
(211,100,cs),
(185,83,o),
(138,79,o),
(67,75,c),
(67,-2,l),
(200,-2,o),
(263,6,o),
(344,6,cs),
(422,6,o),
(533,-4,o),
(659,-4,c),
(659,76,l),
(525,79,o),
(467,87,o),
(447,104,cs),
(428,120,o),
(421,161,o),
(421,218,cs),
(421,874,ls),
(421,1051,o),
(426,1090,o),
(447,1110,cs),
(474,1135,o),
(529,1138,o),
(579,1138,cs),
(793,1138,o),
(865,1032,o),
(865,890,cs),
(865,817,o),
(842,748,o),
(794,700,cs),
(750,656,o),
(671,629,o),
(579,629,cs),
(362,629,l),
(362,549,l),
(587,549,ls),
(760,549,o),
(883,590,o),
(965,672,cs),
(1016,723,o),
(1055,795,o),
(1055,891,cs),
(1055,1076,o),
(912,1218,o),
(619,1218,cs),
(530,1218,o),
(422,1204,o),
(340,1204,cs),
(265,1204,o),
(181,1216,o),
(67,1216,c),
(67,1138,l),
(155,1138,o),
(206,1135,o),
(227,1112,cs),
(241,1097,o),
(247,1053,o),
(247,972,cs),
(247,236,ls)
);
}
);
width = 1150;
},
{
background = {
hints = (
{
name = _corner.universal;
origin = (0,5);
type = Corner;
},
{
name = _corner.universal;
origin = (0,6);
type = Corner;
},
{
name = _corner.universal;
origin = (0,12);
type = Corner;
},
{
name = _corner.universal;
origin = (0,13);
type = Corner;
},
{
name = _corner.universal;
origin = (0,53);
type = Corner;
},
{
name = _corner.universal;
origin = (0,54);
type = Corner;
}
);
shapes = (
{
closed = 1;
nodes = (
(223,172,o),
(206,134,o),
(183,111,cs),
(164,92,o),
(137,73,o),
(68,66,c),
(68,8,l),
(135,9,o),
(213,16,o),
(275,16,cs),
(361,16,o),
(464,7,o),
(581,6,c),
(582,66,l),
(453,70,o),
(416,79,o),
(400,96,cs),
(378,119,o),
(379,161,o),
(393,220,cs),
(557,876,ls),
(601,1053,o),
(613,1096,o),
(642,1122,cs),
(670,1147,o),
(716,1148,o),
(753,1148,cs),
(901,1148,o),
(961,1055,o),
(961,939,cs),
(961,854,o),
(935,758,o),
(869,692,cs),
(825,648,o),
(755,619,o),
(649,619,cs),
(450,619,l),
(435,559,l),
(654,559,ls),
(809,559,o),
(935,600,o),
(1027,692,cs),
(1088,753,o),
(1126,837,o),
(1126,930,cs),
(1126,1066,o),
(1042,1208,o),
(782,1208,cs),
(703,1208,o),
(623,1194,o),
(563,1194,cs),
(471,1194,o),
(406,1205,o),
(296,1206,c),
(296,1148,l),
(383,1143,o),
(423,1127,o),
(434,1098,cs),
(446,1068,o),
(436,1025,o),
(422,970,cs),
(239,234,ls)
);
}
);
};
backgroundImage = {
imagePath = "Mergenthaler docs/Kursiv/uppercase.tif";
locked = 1;
pos = (-22390,-444);
scale = (189.9767,189.9767);
};
hints = (
{
name = _corner.universal;
origin = (0,5);
type = Corner;
},
{
name = _corner.universal;
origin = (0,6);
type = Corner;
},
{
name = _corner.universal;
origin = (0,12);
type = Corner;
},
{
name = _corner.universal;
origin = (0,13);
type = Corner;
},
{
name = _corner.universal;
origin = (0,53);
type = Corner;
},
{
name = _corner.universal;
origin = (0,54);
type = Corner;
}
);
layerId = master01;
shapes = (
{
closed = 1;
nodes = (
(221,162,o),
(203,124,o),
(180,101,cs),
(161,82,o),
(134,63,o),
(65,56,c),
(65,-2,l),
(132,-1,o),
(210,6,o),
(272,6,cs),
(358,6,o),
(461,-3,o),
(578,-4,c),
(579,56,l),
(450,60,o),
(413,69,o),
(397,86,cs),
(375,109,o),
(375,151,o),
(390,210,cs),
(560,886,ls),
(604,1063,o),
(616,1106,o),
(645,1132,cs),
(673,1157,o),
(719,1158,o),
(756,1158,cs),
(905,1158,o),
(962,1058,o),
(962,944,cs),
(962,858,o),
(936,759,o),
(869,692,cs),
(825,648,o),
(755,619,o),
(649,619,cs),
(450,619,l),
(435,559,l),
(654,559,ls),
(809,559,o),
(935,600,o),
(1027,692,cs),
(1089,754,o),
(1127,840,o),
(1127,935,cs),
(1127,1069,o),
(1046,1218,o),
(785,1218,cs),
(706,1218,o),
(626,1204,o),
(566,1204,cs),
(474,1204,o),
(409,1215,o),
(299,1216,c),
(299,1158,l),
(386,1153,o),
(426,1137,o),
(437,1108,cs),
(449,1078,o),
(439,1035,o),
(425,980,cs),
(236,224,ls)
);
}
);
width = 1150;
},
{
background = {
hints = (
{
name = _corner.universal;
place = (513,0);
type = Corner;
},
{
name = _corner.universal;
place = (513,0);
type = Corner;
},
{
name = _corner.universal;
place = (767,0);
type = Corner;
},
{
name = _corner.universal;
place = (767,0);
type = Corner;
},
{
name = _corner.universal;
place = (289,0);
type = Corner;
},
{
name = _corner.universal;
place = (289,0);
type = Corner;
},
{
name = _corner.universal;
place = (35,0);
type = Corner;
},
{
name = _corner.universal;
place = (35,0);
type = Corner;
},
{
name = _corner.universal;
place = (553,0);
type = Corner;
},
{
name = _corner.universal;
place = (259,0);
type = Corner;
},
{
name = _corner.universal;
place = (259,0);
type = Corner;
},
{
name = _corner.universal;
place = (35,0);
type = Corner;
},
{
name = _corner.universal;
place = (35,0);
type = Corner;
},
{
name = _corner.universal;
place = (552,0);
type = Corner;
},
{
name = _corner.universal;
origin = (0,0);
type = Corner;
},
{
name = _corner.universal;
origin = (0,37);
type = Corner;
},
{
name = _corner.universal;
origin = (0,38);
type = Corner;
},
{
name = _corner.universal;
origin = (0,51);
type = Corner;
},
{
name = _corner.universal;
origin = (0,52);
type = Corner;
},
{
name = _corner.universal;
origin = (0,58);
type = Corner;
}
);
shapes = (
{
closed = 1;
nodes = (
(592,76,l),
(457,79,o),
(421,88,o),
(407,103,cs),
(389,122,o),
(389,161,o),
(403,218,cs),
(567,874,ls),
(611,1050,o),
(622,1091,o),
(649,1115,cs),
(674,1137,o),
(716,1138,o),
(753,1138,cs),
(894,1138,o),
(951,1051,o),
(951,939,cs),
(951,856,o),
(926,763,o),
(862,699,cs),
(820,657,o),
(753,629,o),
(649,629,cs),
(442,629,l),
(422,549,l),
(672,549,ls),
(956,549,o),
(1136,726,o),
(1136,930,cs),
(1136,1069,o),
(1048,1218,o),
(782,1218,cs),
(702,1218,o),
(622,1204,o),
(563,1204,cs),
(469,1204,o),
(403,1216,o),
(286,1216,c),
(286,1138,l),
(377,1134,o),
(415,1119,o),
(425,1094,cs),
(436,1067,o),
(426,1027,o),
(412,972,cs),
(229,236,ls),
(214,175,o),
(198,140,o),
(176,118,cs),
(157,99,o),
(131,81,o),
(58,75,c),
(58,-2,l),
(128,-2,o),
(210,6,o),
(275,6,cs),
(363,6,o),
(469,-4,o),
(591,-4,c)
);
}
);
};
backgroundImage = {
imagePath = "Mergenthaler docs/Microscope/Italic-28.tiff";
locked = 1;
pos = (-2937,-532);
scale = (5.12,5.12);
};
hints = (
{
name = _corner.universal;
origin = (0,5);
type = Corner;
},
{
name = _corner.universal;
origin = (0,6);
type = Corner;
},
{
name = _corner.universal;
origin = (0,13);
type = Corner;
},
{
name = _corner.universal;
origin = (0,12);
type = Corner;
},
{
name = _corner.universal;
origin = (0,53);
type = Corner;
},
{
name = _corner.universal;
origin = (0,54);
type = Corner;
}
);
layerId = m004;
shapes = (
{
closed = 1;
nodes = (
(214,175,o),
(198,140,o),
(176,118,cs),
(157,99,o),
(131,81,o),
(58,75,c),
(58,-2,l),
(128,-2,o),
(210,6,o),
(275,6,cs),
(363,6,o),
(469,-4,o),
(591,-4,c),
(592,76,l),
(457,79,o),
(421,88,o),
(407,103,cs),
(389,122,o),
(389,161,o),
(403,218,cs),
(567,874,ls),
(611,1050,o),
(622,1091,o),
(649,1115,cs),
(674,1137,o),
(716,1138,o),
(753,1138,cs),
(894,1138,o),
(951,1051,o),
(951,939,cs),
(951,856,o),
(926,763,o),
(862,699,cs),
(820,657,o),
(753,629,o),
(649,629,cs),
(442,629,l),
(422,549,l),
(654,549,ls),
(811,549,o),
(940,591,o),
(1034,685,cs),
(1096,747,o),
(1136,835,o),
(1136,930,cs),
(1136,1069,o),
(1048,1218,o),
(782,1218,cs),
(702,1218,o),
(622,1204,o),
(563,1204,cs),
(469,1204,o),
(403,1216,o),
(286,1216,c),
(286,1138,l),
(377,1134,o),
(415,1119,o),
(425,1094,cs),
(436,1067,o),
(426,1027,o),
(412,972,cs),
(229,236,ls)
);
}
);
width = 1150;
}
);
unicode = 80;
},
{
color = 7;
glyphname = Q;
kernLeft = O;
kernRight = O;
lastChange = "2023-11-28 23:22:00 +0000";
layers = (
{
background = {
hints = (
{
name = _corner.universal;
place = (1161,0);
type = Corner;
},
{
name = _corner.universal;
place = (1102,0);
type = Corner;
},
{
name = _corner.universal;
origin = (0,14);
type = Corner;
},
{
name = _corner.universal;
origin = (0,15);
type = Corner;
}
);
shapes = (
{
closed = 1;
nodes = (
(509,34,o),
(454,83,o),
(454,161,cs),
(454,230,o),
(495,278,o),
(557,278,cs),
(694,278,o),
(648,103,o),
(668,-64,cs),
(687,-221,o),
(779,-287,o),
(902,-287,cs),
(1030,-287,o),
(1163,-207,o),
(1161,38,c),
(1102,38,l),
(1099,-117,o),
(1036,-199,o),
(945,-199,cs),
(863,-199,o),
(808,-140,o),
(797,45,cs),
(786,225,o),
(721,336,o),
(577,336,cs),
(399,336,o),
(347,175,o),
(446,34,c),
(600,34,l)
);
}
);
};
hints = (
{
name = _corner.universal;
origin = (1,15);
type = Corner;
},
{
name = _corner.universal;
origin = (1,14);
type = Corner;
}
);
layerId = "CA4EC710-46DE-40B5-AF89-3BCF48EEB297";
shapes = (
{
ref = O;
},
{
closed = 1;
nodes = (
(489,34,o),
(460,107,o),
(460,172,cs),
(460,232,o),
(487,282,o),
(552,282,cs),
(674,282,o),
(648,124,o),
(661,-41,cs),
(675,-214,o),
(774,-264,o),
(895,-264,cs),
(1030,-264,o),
(1156,-187,o),
(1150,65,c),
(1091,65,l),
(1089,-97,o),
(1018,-176,o),
(931,-176,cs),
(849,-176,o),
(803,-117,o),
(791,59,c),
(779,59,l),
(759,262,o),
(689,344,o),
(564,344,cs),
(462,344,o),
(393,277,o),
(393,186,cs),
(393,148,o),
(399,95,o),
(460,34,c),
(600,34,l)
);
}
);
userData = {
com.typemytype.robofont.guides = (
{
angle = 90;
isGlobal = 0;
magnetic = 5;
x = 600;
y = 0;
}
);
com.typemytype.robofont.mark = (
0.6,
0.609,
1,
1
);
};
width = 1200;
},
{
background = {
shapes = (
{
closed = 1;
nodes = (
(505,54,o),
(464,90,o),
(464,161,cs),
(464,224,o),
(501,268,o),
(557,268,cs),
(678,268,o),
(638,109,o),
(658,-65,cs),
(677,-234,o),
(772,-297,o),
(902,-297,cs),
(1035,-297,o),
(1174,-214,o),
(1171,32,c),
(1155,48,l),
(1108,48,l),
(1092,32,l),
(1090,-112,o),
(1031,-189,o),
(945,-189,cs),
(869,-189,o),
(818,-132,o),
(807,46,cs),
(796,232,o),
(727,346,o),
(577,346,cs),
(430,346,o),
(335,232,o),
(415,40,c),
(600,54,l)
);
}
);
};
backgroundImage = {
imagePath = "Mergenthaler docs/Microscope/Roman-30.tiff";
locked = 1;
pos = (-3227,-649);
scale = (5.12,5.12);
};
color = 4;
hints = (
{
name = _corner.universal;
origin = (1,14);
type = Corner;
},
{
name = _corner.universal;
origin = (1,15);
type = Corner;
}
);
layerId = "25879A17-30FE-49F5-8BDD-4D78448C8558";
shapes = (
{
ref = O;
},
{
closed = 1;
nodes = (
(505,54,o),
(470,107,o),
(470,173,cs),
(470,229,o),
(496,276,o),
(555,276,cs),
(662,276,o),
(638,124,o),
(651,-42,cs),
(666,-220,o),
(772,-274,o),
(895,-274,cs),
(1035,-274,o),
(1169,-190,o),
(1160,75,c),
(1081,75,l),
(1082,-88,o),
(1013,-166,o),
(931,-166,cs),
(854,-166,o),
(811,-109,o),
(800,69,c),
(788,69,l),
(769,266,o),
(700,354,o),
(573,354,cs),
(472,354,o),
(392,289,o),
(392,180,cs),
(392,139,o),
(403,92,o),
(428,40,c),
(600,54,l)
);
}
);
width = 1200;
},
{
background = {
hints = (
{
name = _corner.universal;
place = (1084,0);
type = Corner;
},
{
name = _corner.universal;
place = (1025,0);
type = Corner;
},
{
name = _corner.universal;
origin = (0,14);
type = Corner;
},
{
name = _corner.universal;
origin = (0,15);
type = Corner;
}
);
shapes = (
{
closed = 1;
nodes = (
(511,20,o),
(403,50,o),
(403,148,cs),
(403,205,o),
(443,249,o),
(502,249,cs),
(574,249,o),
(639,196,o),
(557,-22,cs),
(487,-211,o),
(564,-310,o),
(707,-310,cs),
(899,-310,o),
(1016,-172,o),
(1082,47,c),
(1023,65,l),
(956,-99,o),
(879,-211,o),
(780,-211,cs),
(704,-211,o),
(671,-138,o),
(692,10,cs),
(729,219,o),
(657,307,o),
(524,307,cs),
(424,307,o),
(360,246,o),
(360,156,cs),
(360,128,o),
(366,97,o),
(380,64,c),
(586,64,l)
);
}
);
};
hints = (
{
name = _corner.universal;
origin = (1,15);
type = Corner;
},
{
name = _corner.universal;
origin = (1,14);
type = Corner;
}
);
layerId = master01;
shapes = (
{
ref = O;
},
{
closed = 1;
nodes = (
(451,34,o),
(409,81,o),
(409,143,cs),
(409,205,o),
(447,249,o),
(509,249,cs),
(574,249,o),
(639,196,o),
(557,-22,cs),
(487,-211,o),
(564,-310,o),
(707,-310,cs),
(899,-310,o),
(1016,-172,o),
(1082,47,c),
(1023,65,l),
(953,-114,o),
(879,-211,o),
(780,-211,cs),
(704,-211,o),
(671,-138,o),
(692,10,c),
(692,10,l),
(729,219,o),
(649,309,o),
(517,309,cs),
(418,309,o),
(352,245,o),
(352,163,cs),
(352,115,o),
(370,76,o),
(411,34,c),
(515,34,l)
);
}
);
userData = {
com.typemytype.robofont.guides = (
{
angle = 90;
isGlobal = 0;
magnetic = 5;
x = 600;
y = 0;
}
);
com.typemytype.robofont.mark = (
0.6,
0.609,
1,
1
);
};
width = 1200;
},
{
background = {
shapes = (
{
closed = 1;
nodes = (
(418,54,o),
(386,90,o),
(404,161,cs),
(420,224,o),
(468,268,o),
(524,268,cs),
(645,268,o),
(565,109,o),
(542,-65,cs),
(519,-234,o),
(598,-297,o),
(728,-297,cs),
(861,-297,o),
(1021,-214,o),
(1079,32,c),
(1067,48,l),
(1020,48,l),
(1000,32,l),
(962,-112,o),
(884,-189,o),
(798,-189,cs),
(722,-189,o),
(685,-132,o),
(718,46,cs),
(754,232,o),
(713,346,o),
(563,346,cs),
(416,346,o),
(293,232,o),
(325,40,c),
(513,54,l)
);
}
);
};
backgroundImage = {
imagePath = "Mergenthaler docs/Microscope/Italic-27.tiff";
locked = 1;
pos = (-893,-568);
scale = (5.12,5.12);
};
hints = (
{
name = _corner.universal;
origin = (1,14);
type = Corner;
},
{
name = _corner.universal;
origin = (1,15);
type = Corner;
}
);
layerId = m004;
shapes = (
{
ref = O;
},
{
closed = 1;
nodes = (
(460,54,o),
(413,86,o),
(413,148,cs),
(413,200,o),
(449,239,o),
(502,239,cs),
(568,239,o),
(626,191,o),
(548,-19,cs),
(476,-213,o),
(559,-320,o),
(707,-320,cs),
(906,-320,o),
(1028,-173,o),
(1094,54,c),
(1017,77,l),
(950,-90,o),
(875,-201,o),
(780,-201,cs),
(712,-201,o),
(682,-134,o),
(702,9,c),
(702,9,l),
(740,222,o),
(662,317,o),
(524,317,cs),
(420,317,o),
(350,250,o),
(350,156,cs),
(350,125,o),
(357,90,o),
(374,54,c),
(513,54,l)
);
}
);
userData = {
com.typemytype.robofont.guides = (
{
angle = 90;
isGlobal = 0;
magnetic = 5;
x = 600;
y = 0;
}
);
com.typemytype.robofont.mark = (
0.6,
0.609,
1,
1
);
};
width = 1200;
}
);
metricLeft = O;
metricWidth = O;
unicode = 81;
},
{
glyphname = R;
kernLeft = E;
kernRight = R;
lastChange = "2023-11-28 23:28:52 +0000";
layers = (
{
hints = (
{
name = _corner.universal;
origin = (0,44);
type = Corner;
},
{
name = _corner.universal;
origin = (0,45);
type = Corner;
},
{
name = _corner.universal;
origin = (0,51);
type = Corner;
},
{
name = _corner.universal;
origin = (0,52);
type = Corner;
},
{
name = _corner.universal;
origin = (0,2);
type = Corner;
},
{
name = _corner.universal;
origin = (0,3);
type = Corner;
},
{
name = _corner.universal;
origin = (0,30);
type = Corner;
},
{
name = _corner.universal;
origin = (0,31);
type = Corner;
}
);
layerId = "CA4EC710-46DE-40B5-AF89-3BCF48EEB297";
shapes = (
{
closed = 1;
nodes = (
(1130,-22,o),
(1202,61,o),
(1196,274,c),
(1137,274,l),
(1135,123,o),
(1112,74,o),
(1055,74,cs),
(1020,74,o),
(998,102,o),
(988,166,cs),
(977,239,o),
(984,311,o),
(973,379,cs),
(941,580,o),
(800,655,o),
(620,655,cs),
(600,655,l),
(600,634,l),
(625,634,ls),
(889,634,o),
(1058,742,o),
(1058,923,cs),
(1058,1093,o),
(928,1218,o),
(647,1218,cs),
(535,1218,o),
(425,1204,o),
(340,1204,cs),
(267,1204,o),
(185,1216,o),
(77,1216,c),
(77,1158,l),
(160,1158,o),
(211,1154,o),
(234,1129,cs),
(251,1111,o),
(257,1064,o),
(257,982,cs),
(257,217,ls),
(257,125,o),
(247,102,o),
(217,82,cs),
(190,64,o),
(143,59,o),
(77,56,c),
(77,-2,l),
(202,-2,o),
(261,6,o),
(331,6,cs),
(395,6,o),
(481,-2,o),
(599,-2,c),
(599,56,l),
(507,58,o),
(453,59,o),
(433,83,cs),
(415,104,o),
(411,150,o),
(411,208,cs),
(411,884,ls),
(411,958,o),
(411,1066,o),
(432,1108,cs),
(454,1153,o),
(532,1158,o),
(598,1158,cs),
(809,1158,o),
(883,1037,o),
(883,920,cs),
(883,796,o),
(807,675,o),
(582,675,cs),
(372,675,l),
(372,615,l),
(534,615,ls),
(713,615,o),
(786,566,o),
(806,416,cs),
(818,328,o),
(810,217,o),
(823,130,cs),
(839,24,o),
(914,-22,o),
(1007,-22,cs)
);
}
);
userData = {
com.typemytype.robofont.mark = (
0.656,
1,
0.6,
1
);
};
width = 1250;
},
{
background = {
shapes = (
{
closed = 1;
nodes = (
(830,29,o),
(911,-22,o),
(1007,-22,cs),
(1134,-22,o),
(1210,66,o),
(1206,278,c),
(1190,294,l),
(1143,294,l),
(1127,278,l),
(1124,137,o),
(1103,94,o),
(1055,94,cs),
(1026,94,o),
(1007,116,o),
(998,172,cs),
(987,246,o),
(994,313,o),
(983,381,cs),
(950,593,o),
(784,657,o),
(588,657,c),
(622,633,l),
(890,633,o),
(1068,739,o),
(1068,918,cs),
(1068,1089,o),
(932,1218,o),
(647,1218,cs),
(534,1218,o),
(424,1204,o),
(340,1204,cs),
(265,1204,o),
(181,1216,o),
(83,1216,c),
(67,1200,l),
(67,1154,l),
(83,1138,l),
(161,1138,o),
(207,1134,o),
(227,1112,cs),
(241,1097,o),
(247,1053,o),
(247,972,cs),
(247,227,ls),
(247,138,o),
(238,118,o),
(211,100,cs),
(187,84,o),
(145,80,o),
(83,76,c),
(67,60,l),
(67,14,l),
(83,-2,l),
(200,-2,o),
(263,6,o),
(331,6,cs),
(393,6,o),
(485,-2,o),
(593,-2,c),
(609,14,l),
(609,60,l),
(593,76,l),
(511,78,o),
(458,80,o),
(441,99,cs),
(425,118,o),
(421,161,o),
(421,218,cs),
(421,874,ls),
(421,948,o),
(421,1054,o),
(441,1094,cs),
(460,1133,o),
(533,1138,o),
(598,1138,cs),
(802,1138,o),
(873,1025,o),
(873,915,cs),
(873,798,o),
(800,685,o),
(582,685,cs),
(362,685,l),
(362,605,l),
(534,605,ls),
(709,605,o),
(777,559,o),
(796,415,cs),
(807,329,o),
(799,224,o),
(813,133,cs)
);
}
);
};
backgroundImage = {
crop = (313.086,49.023,244.141,329.102);
imagePath = "Mergenthaler docs/Microscope/Roman-29.tiff";
locked = 1;
pos = (-1603,-661);
scale = (5.12,5.12);
};
hints = (
{
name = _corner.universal;
origin = (0,44);
type = Corner;
},
{
name = _corner.universal;
origin = (0,45);
type = Corner;
},
{
name = _corner.universal;
origin = (0,51);
type = Corner;
},
{
name = _corner.universal;
origin = (0,52);
type = Corner;
},
{
name = _corner.universal;
origin = (0,2);
type = Corner;
},
{
name = _corner.universal;
origin = (0,3);
type = Corner;
},
{
name = _corner.universal;
origin = (0,30);
type = Corner;
},
{
name = _corner.universal;
origin = (0,31);
type = Corner;
}
);
layerId = "25879A17-30FE-49F5-8BDD-4D78448C8558";
shapes = (
{
closed = 1;
nodes = (
(1137,-22,o),
(1214,70,o),
(1206,294,c),
(1127,294,l),
(1126,140,o),
(1105,94,o),
(1055,94,cs),
(1026,94,o),
(1006,116,o),
(998,172,cs),
(987,246,o),
(994,313,o),
(983,381,cs),
(950,593,o),
(784,657,o),
(588,657,cs),
(576,657,l),
(576,633,l),
(634,633,ls),
(887,633,o),
(1056,749,o),
(1056,922,cs),
(1056,1079,o),
(924,1218,o),
(640,1218,cs),
(534,1218,o),
(424,1204,o),
(340,1204,cs),
(265,1204,o),
(181,1216,o),
(67,1216,c),
(67,1138,l),
(155,1138,o),
(206,1135,o),
(227,1112,cs),
(241,1097,o),
(247,1053,o),
(247,972,cs),
(247,227,ls),
(247,138,o),
(238,118,o),
(211,100,cs),
(185,83,o),
(138,79,o),
(67,75,c),
(67,-2,l),
(200,-2,o),
(260,6,o),
(331,6,cs),
(397,6,o),
(488,-2,o),
(614,-2,c),
(614,76,l),
(513,78,o),
(458,78,o),
(441,99,cs),
(425,118,o),
(421,161,o),
(421,218,cs),
(421,874,ls),
(421,1037,o),
(425,1081,o),
(451,1104,cs),
(478,1128,o),
(529,1138,o),
(595,1138,cs),
(781,1138,o),
(861,1028,o),
(861,915,cs),
(861,798,o),
(784,685,o),
(607,685,cs),
(362,685,l),
(362,605,l),
(534,605,ls),
(709,605,o),
(777,559,o),
(796,415,cs),
(807,329,o),
(799,224,o),
(813,133,cs),
(829,29,o),
(911,-22,o),
(1007,-22,cs)
);
}
);
width = 1250;
},
{
background = {
hints = (
{
name = _corner.universal;
origin = (0,2);
type = Corner;
},
{
name = _corner.universal;
origin = (0,3);
type = Corner;
},
{
name = _corner.universal;
origin = (0,30);
type = Corner;
},
{
name = _corner.universal;
origin = (0,31);
type = Corner;
},
{
name = _corner.universal;
origin = (0,44);
type = Corner;
},
{
name = _corner.universal;
origin = (0,45);
type = Corner;
},
{
name = _corner.universal;
origin = (0,51);
type = Corner;
},
{
name = _corner.universal;
origin = (0,52);
type = Corner;
}
);
shapes = (
{
closed = 1;
nodes = (
(1036,-22,o),
(1116,55,o),
(1160,259,c),
(1108,272,l),
(1067,123,o),
(1030,74,o),
(980,74,cs),
(938,74,o),
(920,108,o),
(920,143,cs),
(920,202,o),
(972,297,o),
(972,391,cs),
(972,566,o),
(837,633,o),
(695,645,c),
(678,645,l),
(678,643,l),
(698,643,l),
(985,644,o),
(1175,750,o),
(1175,948,cs),
(1175,1076,o),
(1082,1218,o),
(817,1218,cs),
(730,1218,o),
(631,1204,o),
(557,1204,cs),
(477,1204,o),
(383,1215,o),
(271,1216,c),
(271,1158,l),
(346,1156,o),
(385,1133,o),
(403,1110,cs),
(417,1092,o),
(435,1057,o),
(416,980,cs),
(225,215,ls),
(206,137,o),
(186,104,o),
(152,84,cs),
(127,71,o),
(97,60,o),
(42,56,c),
(42,-2,l),
(149,-2,o),
(201,6,o),
(262,6,cs),
(319,6,o),
(395,-2,o),
(500,-2,c),
(500,56,l),
(430,59,o),
(398,72,o),
(384,86,cs),
(360,110,o),
(367,156,o),
(381,210,cs),
(551,886,ls),
(570,961,o),
(599,1077,o),
(631,1113,cs),
(664,1151,o),
(733,1158,o),
(789,1158,cs),
(932,1158,o),
(1001,1068,o),
(1001,940,cs),
(1001,770,o),
(889,675,o),
(667,675,cs),
(455,675,l),
(440,615,l),
(640,615,ls),
(770,615,o),
(831,560,o),
(831,479,cs),
(831,372,o),
(753,231,o),
(753,131,cs),
(753,34,o),
(814,-22,o),
(913,-22,cs)
);
}
);
};
hints = (
{
name = _corner.universal;
origin = (0,44);
type = Corner;
},
{
name = _corner.universal;
origin = (0,45);
type = Corner;
},
{
name = _corner.universal;
origin = (0,51);
type = Corner;
},
{
name = _corner.universal;
origin = (0,52);
type = Corner;
},
{
name = _corner.universal;
origin = (0,2);
type = Corner;
},
{
name = _corner.universal;
origin = (0,3);
type = Corner;
},
{
name = _corner.universal;
origin = (0,30);
type = Corner;
},
{
name = _corner.universal;
origin = (0,31);
type = Corner;
}
);
layerId = master01;
shapes = (
{
closed = 1;
nodes = (
(1036,-22,o),
(1116,55,o),
(1160,259,c),
(1108,272,l),
(1067,123,o),
(1030,74,o),
(980,74,cs),
(938,74,o),
(920,108,o),
(920,143,cs),
(920,202,o),
(972,297,o),
(972,391,cs),
(972,584,o),
(806,645,o),
(662,645,cs),
(628,645,l),
(628,643,l),
(687,643,ls),
(988,643,o),
(1175,750,o),
(1175,948,cs),
(1175,1076,o),
(1082,1218,o),
(817,1218,cs),
(730,1218,o),
(631,1204,o),
(557,1204,cs),
(477,1204,o),
(383,1215,o),
(271,1216,c),
(271,1158,l),
(346,1156,o),
(385,1133,o),
(403,1110,cs),
(417,1092,o),
(435,1057,o),
(416,980,cs),
(225,215,ls),
(206,137,o),
(186,104,o),
(152,84,cs),
(127,71,o),
(97,60,o),
(42,56,c),
(42,-2,l),
(149,-2,o),
(201,6,o),
(262,6,cs),
(319,6,o),
(395,-2,o),
(500,-2,c),
(500,56,l),
(430,59,o),
(398,72,o),
(384,86,cs),
(360,110,o),
(367,156,o),
(381,210,cs),
(551,886,ls),
(570,961,o),
(599,1077,o),
(631,1113,cs),
(664,1151,o),
(733,1158,o),
(789,1158,cs),
(932,1158,o),
(1001,1068,o),
(1001,940,cs),
(1001,770,o),
(889,675,o),
(667,675,cs),
(455,675,l),
(440,615,l),
(640,615,ls),
(770,615,o),
(831,560,o),
(831,479,cs),
(831,372,o),
(753,231,o),
(753,131,cs),
(753,34,o),
(814,-22,o),
(913,-22,cs)
);
}
);
width = 1250;
},
{
background = {
hints = (
{
name = _corner.universal;
place = (513,0);
type = Corner;
},
{
name = _corner.universal;
place = (513,0);
type = Corner;
},
{
name = _corner.universal;
place = (767,0);
type = Corner;
},
{
name = _corner.universal;
place = (767,0);
type = Corner;
},
{
name = _corner.universal;
place = (289,0);
type = Corner;
},
{
name = _corner.universal;
place = (289,0);
type = Corner;
},
{
name = _corner.universal;
place = (35,0);
type = Corner;
},
{
name = _corner.universal;
place = (35,0);
type = Corner;
},
{
name = _corner.universal;
origin = (0,2);
type = Corner;
},
{
name = _corner.universal;
origin = (0,3);
type = Corner;
},
{
name = _corner.universal;
origin = (0,31);
type = Corner;
},
{
name = _corner.universal;
origin = (0,32);
type = Corner;
},
{
name = _corner.universal;
origin = (0,45);
type = Corner;
},
{
name = _corner.universal;
origin = (0,46);
type = Corner;
},
{
name = _corner.universal;
origin = (0,52);
type = Corner;
},
{
name = _corner.universal;
origin = (0,53);
type = Corner;
}
);
shapes = (
{
closed = 1;
nodes = (
(1042,-22,o),
(1138,65,o),
(1185,276,c),
(1114,294,l),
(1072,140,o),
(1037,94,o),
(983,94,cs),
(948,94,o),
(933,122,o),
(933,153,cs),
(933,209,o),
(982,298,o),
(982,391,cs),
(982,586,o),
(821,652,o),
(666,657,c),
(694,633,l),
(942,633,o),
(1136,716,o),
(1173,861,cs),
(1180,889,o),
(1184,917,o),
(1184,943,cs),
(1184,1101,o),
(1062,1218,o),
(824,1218,cs),
(726,1218,o),
(627,1204,o),
(554,1204,cs),
(472,1204,o),
(375,1216,o),
(258,1216,c),
(258,1138,l),
(336,1138,o),
(375,1116,o),
(392,1094,cs),
(405,1077,o),
(421,1045,o),
(403,972,cs),
(218,227,ls),
(199,151,o),
(181,121,o),
(150,103,cs),
(125,89,o),
(95,79,o),
(35,75,c),
(35,-2,l),
(150,-2,o),
(203,6,o),
(265,6,cs),
(323,6,o),
(402,-2,o),
(513,-2,c),
(513,76,l),
(439,78,o),
(407,90,o),
(394,103,cs),
(374,123,o),
(381,165,o),
(394,218,cs),
(558,874,ls),
(576,948,o),
(605,1062,o),
(635,1096,cs),
(666,1131,o),
(731,1138,o),
(786,1138,cs),
(929,1138,o),
(987,1045,o),
(987,939,cs),
(987,912,o),
(984,885,o),
(977,858,cs),
(955,769,o),
(861,685,o),
(667,685,cs),
(447,685,l),
(427,605,l),
(651,605,ls),
(779,605,o),
(818,554,o),
(818,497,cs),
(818,397,o),
(746,244,o),
(746,154,cs),
(746,38,o),
(812,-22,o),
(916,-22,cs)
);
}
);
};
backgroundImage = {
imagePath = "Mergenthaler docs/Microscope/Italic-27.tiff";
pos = (-2436,-548);
scale = (5.12,5.12);
};
hints = (
{
name = _corner.universal;
origin = (0,44);
type = Corner;
},
{
name = _corner.universal;
origin = (0,45);
type = Corner;
},
{
name = _corner.universal;
origin = (0,51);
type = Corner;
},
{
name = _corner.universal;
origin = (0,52);
type = Corner;
},
{
name = _corner.universal;
origin = (0,2);
type = Corner;
},
{
name = _corner.universal;
origin = (0,3);
type = Corner;
},
{
name = _corner.universal;
origin = (0,30);
type = Corner;
},
{
name = _corner.universal;
origin = (0,31);
type = Corner;
}
);
layerId = m004;
shapes = (
{
closed = 1;
nodes = (
(1046,-22,o),
(1130,61,o),
(1175,276,c),
(1104,294,l),
(1062,140,o),
(1027,94,o),
(983,94,cs),
(948,94,o),
(933,122,o),
(933,153,cs),
(933,209,o),
(982,298,o),
(982,391,cs),
(982,586,o),
(821,657,o),
(666,657,cs),
(643,657,l),
(643,633,l),
(694,633,ls),
(987,633,o),
(1184,740,o),
(1184,943,cs),
(1184,1073,o),
(1087,1218,o),
(814,1218,cs),
(726,1218,o),
(627,1204,o),
(554,1204,cs),
(472,1204,o),
(375,1216,o),
(258,1216,c),
(258,1138,l),
(336,1138,o),
(375,1116,o),
(392,1094,cs),
(405,1077,o),
(421,1045,o),
(403,972,cs),
(218,227,ls),
(199,151,o),
(181,121,o),
(150,103,cs),
(125,89,o),
(95,79,o),
(35,75,c),
(35,-2,l),
(150,-2,o),
(203,6,o),
(265,6,cs),
(323,6,o),
(402,-2,o),
(513,-2,c),
(513,76,l),
(439,78,o),
(407,90,o),
(394,103,cs),
(374,123,o),
(381,165,o),
(394,218,cs),
(558,874,ls),
(576,948,o),
(605,1062,o),
(635,1096,cs),
(666,1131,o),
(731,1138,o),
(786,1138,cs),
(924,1138,o),
(990,1055,o),
(990,935,cs),
(990,774,o),
(883,685,o),
(667,685,cs),
(447,685,l),
(427,605,l),
(640,605,ls),
(765,605,o),
(821,554,o),
(821,479,cs),
(821,378,o),
(746,244,o),
(746,141,cs),
(746,38,o),
(812,-22,o),
(916,-22,cs)
);
}
);
width = 1250;
}
);
unicode = 82;
},
{
glyphname = S;
kernLeft = S;
kernRight = S;
lastChange = "2023-11-28 20:50:19 +0000";
layers = (
{
background = {
hints = (
{
name = _corner.universal;
origin = (0,15);
type = Corner;
},
{
name = _corner.universal;
origin = (0,16);
type = Corner;
},
{
name = _corner.universal;
origin = (0,19);
type = Corner;
},
{
name = _corner.universal;
origin = (0,20);
type = Corner;
},
{
name = _corner.universal;
origin = (0,41);
type = Corner;
},
{
name = _corner.universal;
origin = (0,42);
type = Corner;
},
{
name = _corner.universal;
origin = (0,45);
type = Corner;
},
{
name = _corner.universal;
origin = (0,46);
type = Corner;
}
);
shapes = (
{
closed = 1;
nodes = (
(772,-30,o),
(946,131,o),
(946,340,cs),
(946,504,o),
(839,617,o),
(695,664,cs),
(438,748,ls),
(327,784,o),
(271,855,o),
(271,957,cs),
(271,1064,o),
(346,1171,o),
(512,1171,cs),
(668,1171,o),
(790,1035,o),
(826,817,c),
(886,817,l),
(883,953,o),
(886,1090,o),
(892,1226,c),
(837,1226,l),
(769,1076,l),
(824,1080,l),
(747,1178,o),
(635,1241,o),
(491,1241,cs),
(288,1241,o),
(137,1120,o),
(137,917,cs),
(137,761,o),
(235,639,o),
(373,591,cs),
(641,498,ls),
(760,457,o),
(802,356,o),
(802,279,cs),
(802,148,o),
(706,40,o),
(551,40,cs),
(366,40,o),
(248,163,o),
(188,445,c),
(127,445,l),
(130,292,o),
(128,139,o),
(121,-14,c),
(176,-14,l),
(243,134,l),
(203,128,l),
(292,38,o),
(400,-30,o),
(550,-30,cs)
);
}
);
};
hints = (
{
name = _corner.universal;
origin = (0,17);
type = Corner;
},
{
name = _corner.universal;
origin = (0,18);
type = Corner;
},
{
name = _corner.universal;
origin = (0,21);
type = Corner;
},
{
name = _corner.universal;
origin = (0,22);
type = Corner;
},
{
name = _corner.universal;
origin = (0,45);
type = Corner;
},
{
name = _corner.universal;
origin = (0,46);
type = Corner;
},
{
name = _corner.universal;
origin = (0,49);
type = Corner;
},
{
name = _corner.universal;
origin = (0,50);
type = Corner;
}
);
layerId = "CA4EC710-46DE-40B5-AF89-3BCF48EEB297";
shapes = (
{
closed = 1;
nodes = (
(772,-30,o),
(946,131,o),
(946,340,cs),
(946,433,o),
(913,509,o),
(859,563,cs),
(721,700,o),
(430,711,o),
(322,818,cs),
(289,851,o),
(271,899,o),
(271,957,cs),
(271,1064,o),
(346,1171,o),
(512,1171,cs),
(668,1171,o),
(790,1035,o),
(826,817,c),
(886,817,l),
(883,953,o),
(886,1090,o),
(892,1226,c),
(837,1226,l),
(769,1076,l),
(824,1080,l),
(747,1178,o),
(635,1241,o),
(491,1241,cs),
(288,1241,o),
(137,1120,o),
(137,917,cs),
(137,822,o),
(169,745,o),
(231,683,cs),
(363,552,o),
(636,539,o),
(740,435,cs),
(783,392,o),
(802,331,o),
(802,279,cs),
(802,148,o),
(706,40,o),
(551,40,cs),
(366,40,o),
(248,163,o),
(188,445,c),
(127,445,l),
(130,292,o),
(128,139,o),
(121,-14,c),
(176,-14,l),
(243,134,l),
(203,128,l),
(292,38,o),
(400,-30,o),
(550,-30,cs)
);
}
);
userData = {
com.typemytype.robofont.mark = (
0.967,
0.6,
1,
1
);
};
width = 1050;
},
{
background = {
hints = (
{
name = _corner.universal;
origin = (0,15);
type = Corner;
},
{
name = _corner.universal;
origin = (0,16);
type = Corner;
},
{
name = _corner.universal;
origin = (0,19);
type = Corner;
},
{
name = _corner.universal;
origin = (0,20);
type = Corner;
},
{
name = _corner.universal;
origin = (0,41);
type = Corner;
},
{
name = _corner.universal;
origin = (0,42);
type = Corner;
},
{
name = _corner.universal;
origin = (0,45);
type = Corner;
},
{
name = _corner.universal;
origin = (0,46);
type = Corner;
}
);
shapes = (
{
closed = 1;
nodes = (
(776,-30,o),
(956,134,o),
(956,345,cs),
(956,511,o),
(844,626,o),
(698,674,cs),
(441,758,ls),
(334,793,o),
(281,857,o),
(281,952,cs),
(281,1052,o),
(352,1151,o),
(512,1151,cs),
(664,1151,o),
(784,1016,o),
(817,797,c),
(896,797,l),
(893,940,o),
(896,1083,o),
(902,1226,c),
(831,1226,l),
(753,1055,l),
(843,1061,l),
(765,1169,o),
(645,1241,o),
(491,1241,cs),
(285,1241,o),
(127,1117,o),
(127,912,cs),
(127,755,o),
(229,631,o),
(370,582,cs),
(638,489,ls),
(751,450,o),
(792,358,o),
(792,284,cs),
(792,161,o),
(700,60,o),
(551,60,cs),
(370,60,o),
(255,181,o),
(196,465,c),
(117,465,l),
(120,305,o),
(118,146,o),
(111,-14,c),
(182,-14,l),
(260,157,l),
(182,145,l),
(275,47,o),
(389,-30,o),
(550,-30,cs)
);
}
);
};
backgroundImage = {
imagePath = "Mergenthaler docs/Microscope/Roman-29.tiff";
locked = 1;
pos = (-3036,-661);
scale = (5.12,5.12);
};
hints = (
{
name = _corner.universal;
origin = (0,17);
type = Corner;
},
{
name = _corner.universal;
origin = (0,18);
type = Corner;
},
{
name = _corner.universal;
origin = (0,21);
type = Corner;
},
{
name = _corner.universal;
origin = (0,22);
type = Corner;
},
{
name = _corner.universal;
origin = (0,45);
type = Corner;
},
{
name = _corner.universal;
origin = (0,46);
type = Corner;
},
{
name = _corner.universal;
origin = (0,49);
type = Corner;
},
{
name = _corner.universal;
origin = (0,50);
type = Corner;
}
);
layerId = "25879A17-30FE-49F5-8BDD-4D78448C8558";
shapes = (
{
closed = 1;
nodes = (
(776,-30,o),
(956,134,o),
(956,345,cs),
(956,439,o),
(921,517,o),
(866,572,cs),
(727,711,o),
(433,720,o),
(329,823,cs),
(298,854,o),
(281,898,o),
(281,952,cs),
(281,1052,o),
(352,1151,o),
(512,1151,cs),
(664,1151,o),
(784,1016,o),
(817,797,c),
(896,797,l),
(893,940,o),
(896,1083,o),
(902,1226,c),
(831,1226,l),
(753,1055,l),
(843,1061,l),
(765,1169,o),
(645,1241,o),
(491,1241,cs),
(285,1241,o),
(127,1117,o),
(127,912,cs),
(127,816,o),
(161,737,o),
(224,674,cs),
(357,541,o),
(633,530,o),
(733,430,cs),
(774,389,o),
(792,333,o),
(792,284,cs),
(792,161,o),
(700,60,o),
(551,60,cs),
(370,60,o),
(255,181,o),
(196,465,c),
(117,465,l),
(120,305,o),
(118,146,o),
(111,-14,c),
(182,-14,l),
(260,157,l),
(182,145,l),
(275,47,o),
(389,-30,o),
(550,-30,cs)
);
}
);
width = 1050;
},
{
backgroundImage = {
imagePath = "Mergenthaler docs/Kursiv/uppercase.tif";
locked = 1;
pos = (-26808,-426);
scale = (189.9767,189.9767);
};
hints = (
{
name = _corner.universal;
origin = (0,21);
type = Corner;
},
{
name = _corner.universal;
origin = (0,22);
type = Corner;
},
{
name = _corner.universal;
origin = (0,17);
type = Corner;
},
{
name = _corner.universal;
origin = (0,18);
type = Corner;
},
{
name = _corner.universal;
origin = (0,45);
type = Corner;
},
{
name = _corner.universal;
origin = (0,46);
type = Corner;
},
{
name = _corner.universal;
origin = (0,49);
type = Corner;
},
{
name = _corner.universal;
origin = (0,50);
type = Corner;
}
);
layerId = master01;
shapes = (
{
closed = 1;
nodes = (
(770,-30,o),
(921,125,o),
(921,316,cs),
(921,412,o),
(884,484,o),
(828,540,cs),
(729,639,o),
(547,710,o),
(455,802,cs),
(414,843,o),
(389,893,o),
(389,959,cs),
(389,1061,o),
(461,1171,o),
(628,1171,cs),
(804,1171,o),
(892,1045,o),
(870,817,c),
(930,817,l),
(955,949,o),
(986,1081,o),
(1031,1213,c),
(980,1229,l),
(884,1078,l),
(935,1084,l),
(879,1172,o),
(776,1241,o),
(631,1241,cs),
(398,1241,o),
(249,1084,o),
(249,899,cs),
(249,800,o),
(287,728,o),
(345,670,cs),
(456,559,o),
(619,502,o),
(711,409,cs),
(752,368,o),
(777,317,o),
(777,252,cs),
(777,122,o),
(688,40,o),
(533,40,cs),
(311,40,o),
(201,175,o),
(232,485,c),
(169,485,l),
(150,327,o),
(112,173,o),
(65,14,c),
(114,-6,l),
(217,140,l),
(167,133,l),
(259,36,o),
(368,-30,o),
(546,-30,cs)
);
}
);
width = 1050;
},
{
associatedMasterId = "25879A17-30FE-49F5-8BDD-4D78448C8558";
background = {
shapes = (
{
closed = 1;
nodes = (
(837,1226,l),
(819,1212,l),
(753,1055,l),
(843,1061,l),
(765,1169,o),
(645,1241,o),
(491,1241,cs),
(285,1241,o),
(127,1117,o),
(127,912,cs),
(127,755,o),
(229,631,o),
(370,582,cs),
(638,489,ls),
(751,450,o),
(792,357,o),
(792,282,cs),
(792,157,o),
(700,55,o),
(551,55,cs),
(373,55,o),
(259,173,o),
(199,449,c),
(183,465,l),
(133,465,l),
(117,449,l),
(117,2,l),
(133,-14,l),
(176,-14,l),
(194,0,l),
(260,157,l),
(182,145,l),
(275,44,o),
(389,-35,o),
(550,-35,cs),
(776,-35,o),
(956,130,o),
(956,343,cs),
(956,510,o),
(844,626,o),
(698,674,cs),
(441,758,ls),
(334,793,o),
(281,857,o),
(281,952,cs),
(281,1052,o),
(352,1151,o),
(512,1151,cs),
(660,1151,o),
(777,1023,o),
(814,815,c),
(830,797,l),
(881,797,l),
(896,813,l),
(896,1210,l),
(881,1226,l)
);
}
);
};
layerId = "B2F6C313-A820-4437-8AAF-43B7DF57E68B";
name = "23. Jan. 21, 17:00";
shapes = (
{
closed = 1;
nodes = (
(776,-35,o),
(956,130,o),
(956,343,cs),
(956,510,o),
(844,626,o),
(698,674,cs),
(441,758,ls),
(334,793,o),
(281,857,o),
(281,952,cs),
(281,1052,o),
(352,1151,o),
(512,1151,cs),
(664,1151,o),
(784,1016,o),
(817,797,c),
(896,797,l),
(896,1226,l),
(825,1226,l),
(753,1055,l),
(843,1061,l),
(765,1169,o),
(645,1241,o),
(491,1241,cs),
(285,1241,o),
(127,1117,o),
(127,912,cs),
(127,755,o),
(229,631,o),
(370,582,cs),
(638,489,ls),
(751,450,o),
(792,357,o),
(792,282,cs),
(792,157,o),
(700,55,o),
(551,55,cs),
(370,55,o),
(255,178,o),
(196,465,c),
(117,465,l),
(117,-14,l),
(188,-14,l),
(260,157,l),
(182,145,l),
(275,44,o),
(389,-35,o),
(550,-35,cs)
);
}
);
width = 1050;
},
{
associatedMasterId = "25879A17-30FE-49F5-8BDD-4D78448C8558";
background = {
hints = (
{
name = _corner.universal;
origin = (0,15);
type = Corner;
},
{
name = _corner.universal;
origin = (0,16);
type = Corner;
},
{
name = _corner.universal;
origin = (0,19);
type = Corner;
},
{
name = _corner.universal;
origin = (0,20);
type = Corner;
},
{
name = _corner.universal;
origin = (0,41);
type = Corner;
},
{
name = _corner.universal;
origin = (0,42);
type = Corner;
},
{
name = _corner.universal;
origin = (0,45);
type = Corner;
},
{
name = _corner.universal;
origin = (0,46);
type = Corner;
}
);
shapes = (
{
closed = 1;
nodes = (
(776,-30,o),
(956,134,o),
(956,345,cs),
(956,511,o),
(844,626,o),
(698,674,cs),
(441,758,ls),
(334,793,o),
(281,857,o),
(281,952,cs),
(281,1052,o),
(352,1151,o),
(512,1151,cs),
(664,1151,o),
(784,1016,o),
(817,797,c),
(896,797,l),
(893,940,o),
(896,1083,o),
(902,1226,c),
(831,1226,l),
(753,1055,l),
(843,1061,l),
(765,1169,o),
(645,1241,o),
(491,1241,cs),
(285,1241,o),
(127,1117,o),
(127,912,cs),
(127,755,o),
(229,631,o),
(370,582,cs),
(638,489,ls),
(751,450,o),
(792,358,o),
(792,284,cs),
(792,161,o),
(700,60,o),
(551,60,cs),
(370,60,o),
(255,181,o),
(196,465,c),
(117,465,l),
(120,305,o),
(118,146,o),
(111,-14,c),
(182,-14,l),
(260,157,l),
(182,145,l),
(275,47,o),
(389,-30,o),
(550,-30,cs)
);
}
);
};
hints = (
{
name = _corner.universal;
origin = (0,15);
type = Corner;
},
{
name = _corner.universal;
origin = (0,16);
type = Corner;
},
{
name = _corner.universal;
origin = (0,19);
type = Corner;
},
{
name = _corner.universal;
origin = (0,20);
type = Corner;
},
{
name = _corner.universal;
origin = (0,41);
type = Corner;
},
{
name = _corner.universal;
origin = (0,42);
type = Corner;
},
{
name = _corner.universal;
origin = (0,45);
type = Corner;
},
{
name = _corner.universal;
origin = (0,46);
type = Corner;
}
);
layerId = "53C69489-8C59-4990-9BFE-156D5596B044";
name = "8. Mai 21, 17:54";
shapes = (
{
closed = 1;
nodes = (
(776,-30,o),
(956,134,o),
(956,345,cs),
(956,511,o),
(844,626,o),
(698,674,cs),
(441,758,ls),
(334,793,o),
(281,857,o),
(281,952,cs),
(281,1052,o),
(352,1151,o),
(512,1151,cs),
(664,1151,o),
(784,1016,o),
(817,797,c),
(896,797,l),
(893,940,o),
(896,1083,o),
(902,1226,c),
(831,1226,l),
(753,1055,l),
(843,1061,l),
(765,1169,o),
(645,1241,o),
(491,1241,cs),
(285,1241,o),
(127,1117,o),
(127,912,cs),
(127,755,o),
(229,631,o),
(370,582,cs),
(638,489,ls),
(751,450,o),
(792,358,o),
(792,284,cs),
(792,161,o),
(700,60,o),
(551,60,cs),
(370,60,o),
(255,181,o),
(196,465,c),
(117,465,l),
(120,305,o),
(118,146,o),
(111,-14,c),
(182,-14,l),
(260,157,l),
(182,145,l),
(275,47,o),
(389,-30,o),
(550,-30,cs)
);
}
);
width = 1050;
},
{
associatedMasterId = "CA4EC710-46DE-40B5-AF89-3BCF48EEB297";
hints = (
{
name = _corner.universal;
origin = (0,19);
type = Corner;
},
{
name = _corner.universal;
origin = (0,20);
type = Corner;
},
{
name = _corner.universal;
origin = (0,15);
type = Corner;
},
{
name = _corner.universal;
origin = (0,16);
type = Corner;
},
{
name = _corner.universal;
origin = (0,41);
type = Corner;
},
{
name = _corner.universal;
origin = (0,42);
type = Corner;
},
{
name = _corner.universal;
origin = (0,45);
type = Corner;
},
{
name = _corner.universal;
origin = (0,46);
type = Corner;
}
);
layerId = "76324844-0578-4719-B0F4-5612D6E0991B";
name = "8. Mai 21, 17:58";
shapes = (
{
closed = 1;
nodes = (
(772,-30,o),
(946,131,o),
(946,340,cs),
(946,504,o),
(839,617,o),
(695,664,cs),
(438,748,ls),
(327,784,o),
(271,855,o),
(271,957,cs),
(271,1064,o),
(346,1171,o),
(512,1171,cs),
(668,1171,o),
(790,1035,o),
(826,817,c),
(886,817,l),
(883,953,o),
(886,1090,o),
(892,1226,c),
(837,1226,l),
(769,1076,l),
(824,1080,l),
(747,1178,o),
(635,1241,o),
(491,1241,cs),
(288,1241,o),
(137,1120,o),
(137,917,cs),
(137,761,o),
(235,639,o),
(373,591,cs),
(641,498,ls),
(760,457,o),
(802,356,o),
(802,279,cs),
(802,148,o),
(706,40,o),
(551,40,cs),
(366,40,o),
(248,163,o),
(188,445,c),
(127,445,l),
(130,292,o),
(128,139,o),
(121,-14,c),
(176,-14,l),
(243,134,l),
(203,128,l),
(292,38,o),
(400,-30,o),
(550,-30,cs)
);
}
);
userData = {
com.typemytype.robofont.mark = (
0.967,
0.6,
1,
1
);
};
width = 1050;
},
{
background = {
hints = (
{
name = _corner.universal;
origin = (0,14);
type = Corner;
},
{
name = _corner.universal;
origin = (0,15);
type = Corner;
},
{
name = _corner.universal;
origin = (0,18);
type = Corner;
},
{
name = _corner.universal;
origin = (0,19);
type = Corner;
},
{
name = _corner.universal;
origin = (0,39);
type = Corner;
},
{
name = _corner.universal;
origin = (0,40);
type = Corner;
},
{
name = _corner.universal;
origin = (0,43);
type = Corner;
},
{
name = _corner.universal;
origin = (0,44);
type = Corner;
}
);
shapes = (
{
closed = 1;
nodes = (
(777,-30,o),
(932,127,o),
(932,321,cs),
(932,512,o),
(778,601,o),
(644,684,cs),
(522,760,o),
(398,817,o),
(398,954,cs),
(398,1048,o),
(465,1151,o),
(625,1151,cs),
(797,1151,o),
(881,1027,o),
(856,797,c),
(935,797,l),
(961,935,o),
(993,1072,o),
(1041,1209,c),
(973,1231,l),
(861,1055,l),
(948,1066,l),
(893,1162,o),
(784,1241,o),
(628,1241,cs),
(390,1241,o),
(238,1082,o),
(238,894,cs),
(238,707,o),
(382,615,o),
(523,528,cs),
(645,453,o),
(768,389,o),
(768,257,cs),
(768,136,o),
(684,60,o),
(536,60,cs),
(318,60,o),
(212,193,o),
(246,505,c),
(163,505,l),
(144,342,o),
(105,183,o),
(56,18,c),
(121,-8,l),
(241,163,l),
(150,151,l),
(245,45,o),
(359,-30,o),
(549,-30,cs)
);
}
);
};
backgroundImage = {
imagePath = "Mergenthaler docs/Microscope/Italic-27.tiff";
pos = (-3880,-541);
scale = (5.12,5.12);
};
hints = (
{
name = _corner.universal;
origin = (0,21);
type = Corner;
},
{
name = _corner.universal;
origin = (0,22);
type = Corner;
},
{
name = _corner.universal;
origin = (0,17);
type = Corner;
},
{
name = _corner.universal;
origin = (0,18);
type = Corner;
},
{
name = _corner.universal;
origin = (0,45);
type = Corner;
},
{
name = _corner.universal;
origin = (0,46);
type = Corner;
},
{
name = _corner.universal;
origin = (0,49);
type = Corner;
},
{
name = _corner.universal;
origin = (0,50);
type = Corner;
}
);
layerId = m004;
shapes = (
{
closed = 1;
nodes = (
(777,-30,o),
(932,127,o),
(932,321,cs),
(932,418,o),
(892,490,o),
(835,547,cs),
(735,648,o),
(553,719,o),
(462,809,cs),
(423,848,o),
(398,893,o),
(398,954,cs),
(398,1048,o),
(465,1151,o),
(625,1151,cs),
(797,1151,o),
(881,1027,o),
(856,797,c),
(935,797,l),
(961,935,o),
(993,1072,o),
(1041,1209,c),
(973,1231,l),
(861,1055,l),
(948,1066,l),
(893,1162,o),
(784,1241,o),
(628,1241,cs),
(390,1241,o),
(238,1082,o),
(238,894,cs),
(238,794,o),
(279,722,o),
(338,663,cs),
(451,550,o),
(614,493,o),
(704,402,cs),
(743,363,o),
(768,317,o),
(768,257,cs),
(768,136,o),
(684,60,o),
(536,60,cs),
(318,60,o),
(212,193,o),
(246,505,c),
(163,505,l),
(144,342,o),
(105,183,o),
(56,18,c),
(121,-8,l),
(241,163,l),
(150,151,l),
(245,45,o),
(359,-30,o),
(549,-30,cs)
);
}
);
width = 1050;
}
);
unicode = 83;
},
{
glyphname = T;
kernLeft = T;
kernRight = T;
lastChange = "2023-11-28 20:50:48 +0000";
layers = (
{
hints = (
{
name = _corner.universal;
origin = (0,22);
type = Corner;
},
{
name = _corner.universal;
origin = (0,23);
type = Corner;
},
{
name = _corner.universal;
origin = (0,35);
type = Corner;
},
{
name = _corner.universal;
origin = (0,36);
type = Corner;
},
{
name = _corner.universal;
origin = (0,52);
type = Corner;
},
{
name = _corner.universal;
origin = (0,53);
type = Corner;
},
{
name = _corner.universal;
origin = (0,5);
type = Corner;
},
{
name = _corner.universal;
origin = (0,6);
type = Corner;
},
{
name = _corner.universal;
origin = (0,26);
type = Corner;
},
{
name = _corner.universal;
origin = (0,32);
type = Corner;
}
);
layerId = "CA4EC710-46DE-40B5-AF89-3BCF48EEB297";
shapes = (
{
closed = 1;
nodes = (
(397,-2,o),
(477,6,o),
(547,6,cs),
(618,6,o),
(706,-2,o),
(835,-2,c),
(835,56,l),
(722,57,o),
(670,60,o),
(650,82,cs),
(630,103,o),
(627,150,o),
(627,208,cs),
(627,968,ls),
(627,1029,o),
(629,1090,o),
(646,1115,cs),
(663,1140,o),
(698,1148,o),
(732,1148,cs),
(907,1148,o),
(952,1054,o),
(990,835,c),
(1056,835,l),
(1043,961,o),
(1035,1090,o),
(1034,1219,c),
(869,1208,o),
(746,1204,o),
(553,1204,cs),
(373,1204,o),
(241,1208,o),
(66,1219,c),
(65,1091,o),
(55,963,o),
(45,835,c),
(110,835,l),
(149,1060,o),
(193,1148,o),
(363,1148,cs),
(402,1148,o),
(435,1139,o),
(452,1120,cs),
(471,1099,o),
(473,1053,o),
(473,1001,cs),
(473,217,ls),
(473,125,o),
(463,102,o),
(433,82,cs),
(406,64,o),
(353,58,o),
(263,55,c),
(263,-2,l)
);
}
);
userData = {
com.typemytype.robofont.guides = (
{
angle = 0;
isGlobal = 0;
magnetic = 5;
x = 0;
y = 1204;
}
);
com.typemytype.robofont.mark = (
0.967,
0.6,
1,
1
);
};
width = 1100;
},
{
background = {
shapes = (
{
closed = 1;
nodes = (
(637,1019,o),
(639,1077,o),
(654,1100,cs),
(668,1122,o),
(699,1128,o),
(732,1128,cs),
(898,1128,o),
(942,1042,o),
(979,830,c),
(997,815,l),
(1050,815,l),
(1065,831,l),
(1053,953,o),
(1046,1078,o),
(1044,1203,c),
(1027,1219,l),
(866,1208,o),
(743,1204,o),
(553,1204,cs),
(375,1204,o),
(244,1208,o),
(72,1219,c),
(56,1204,l),
(54,1079,o),
(46,955,o),
(35,830,c),
(50,815,l),
(103,815,l),
(121,830,l),
(159,1048,o),
(202,1128,o),
(363,1128,cs),
(400,1128,o),
(430,1120,o),
(445,1103,cs),
(461,1085,o),
(463,1043,o),
(463,991,cs),
(463,227,ls),
(463,138,o),
(454,118,o),
(427,100,cs),
(403,84,o),
(354,79,o),
(269,76,c),
(253,60,l),
(253,14,l),
(269,-2,l),
(394,-2,o),
(476,6,o),
(547,6,cs),
(619,6,o),
(710,-2,o),
(829,-2,c),
(845,14,l),
(845,60,l),
(829,76,l),
(721,77,o),
(674,80,o),
(657,99,cs),
(641,118,o),
(637,161,o),
(637,218,cs),
(637,958,ls)
);
}
);
};
backgroundImage = {
imagePath = "Mergenthaler docs/Microscope/Roman-27.tiff";
locked = 1;
pos = (-1434,-660);
scale = (5.12,5.12);
};
hints = (
{
name = _corner.universal;
origin = (0,22);
type = Corner;
},
{
name = _corner.universal;
origin = (0,23);
type = Corner;
},
{
name = _corner.universal;
origin = (0,35);
type = Corner;
},
{
name = _corner.universal;
origin = (0,36);
type = Corner;
},
{
name = _corner.universal;
origin = (0,52);
type = Corner;
},
{
name = _corner.universal;
origin = (0,53);
type = Corner;
},
{
name = _corner.universal;
origin = (0,5);
type = Corner;
},
{
name = _corner.universal;
origin = (0,6);
type = Corner;
},
{
name = _corner.universal;
origin = (0,26);
type = Corner;
},
{
name = _corner.universal;
origin = (0,32);
type = Corner;
}
);
layerId = "25879A17-30FE-49F5-8BDD-4D78448C8558";
shapes = (
{
closed = 1;
nodes = (
(394,-2,o),
(476,6,o),
(547,6,cs),
(619,6,o),
(710,-2,o),
(845,-2,c),
(845,76,l),
(726,77,o),
(675,79,o),
(657,99,cs),
(640,117,o),
(637,161,o),
(637,218,cs),
(637,958,ls),
(637,1019,o),
(639,1077,o),
(654,1100,cs),
(668,1122,o),
(699,1128,o),
(732,1128,cs),
(902,1128,o),
(944,1038,o),
(982,815,c),
(1067,815,l),
(1053,948,o),
(1045,1084,o),
(1044,1220,c),
(874,1208,o),
(750,1204,o),
(553,1204,cs),
(370,1204,o),
(236,1208,o),
(56,1220,c),
(55,1085,o),
(45,950,o),
(34,815,c),
(118,815,l),
(157,1044,o),
(198,1128,o),
(363,1128,cs),
(400,1128,o),
(430,1120,o),
(445,1103,cs),
(461,1085,o),
(463,1043,o),
(463,991,cs),
(463,227,ls),
(463,138,o),
(454,118,o),
(427,100,cs),
(402,83,o),
(348,78,o),
(253,75,c),
(253,-2,l)
);
}
);
width = 1100;
},
{
backgroundImage = {
imagePath = "Mergenthaler docs/Kursiv/uppercase.tif";
locked = 1;
pos = (-28064,-454);
scale = (189.9767,189.9767);
};
hints = (
{
name = _corner.universal;
origin = (0,22);
type = Corner;
},
{
name = _corner.universal;
origin = (0,23);
type = Corner;
},
{
name = _corner.universal;
origin = (0,35);
type = Corner;
},
{
name = _corner.universal;
origin = (0,36);
type = Corner;
},
{
name = _corner.universal;
origin = (0,52);
type = Corner;
},
{
name = _corner.universal;
origin = (0,53);
type = Corner;
},
{
name = _corner.universal;
origin = (0,5);
type = Corner;
},
{
name = _corner.universal;
origin = (0,6);
type = Corner;
},
{
name = _corner.universal;
origin = (0,26);
type = Corner;
},
{
name = _corner.universal;
origin = (0,32);
type = Corner;
}
);
layerId = master01;
shapes = (
{
closed = 1;
nodes = (
(274,-1,o),
(374,6,o),
(445,6,cs),
(509,6,o),
(601,-2,o),
(719,-2,c),
(719,56,l),
(622,59,o),
(588,83,o),
(575,102,cs),
(561,124,o),
(562,166,o),
(573,210,cs),
(770,971,ls),
(785,1031,o),
(802,1100,o),
(826,1124,cs),
(845,1144,o),
(877,1148,o),
(904,1148,cs),
(1034,1148,o),
(1072,1033,o),
(1051,780,c),
(1115,780,l),
(1130,933,o),
(1163,1073,o),
(1203,1219,c),
(1046,1209,o),
(909,1204,o),
(751,1204,cs),
(542,1204,o),
(386,1211,o),
(273,1219,c),
(242,1079,o),
(194,938,o),
(139,798,c),
(201,776,l),
(312,1018,o),
(411,1148,o),
(554,1148,cs),
(587,1148,o),
(607,1142,o),
(619,1130,cs),
(641,1108,o),
(631,1050,o),
(618,998,cs),
(416,215,ls),
(397,140,o),
(377,108,o),
(343,88,cs),
(316,72,o),
(265,59,o),
(182,55,c),
(182,-2,l)
);
}
);
userData = {
com.typemytype.robofont.guides = (
{
angle = 0;
isGlobal = 0;
magnetic = 5;
x = 0;
y = 1204;
}
);
};
width = 1100;
},
{
backgroundImage = {
imagePath = "Mergenthaler docs/Microscope/Italic-26.tiff";
pos = (-1352,-566);
scale = (5.12,5.12);
};
hints = (
{
name = _corner.universal;
origin = (0,22);
type = Corner;
},
{
name = _corner.universal;
origin = (0,23);
type = Corner;
},
{
name = _corner.universal;
origin = (0,35);
type = Corner;
},
{
name = _corner.universal;
origin = (0,36);
type = Corner;
},
{
name = _corner.universal;
origin = (0,52);
type = Corner;
},
{
name = _corner.universal;
origin = (0,53);
type = Corner;
},
{
name = _corner.universal;
origin = (0,5);
type = Corner;
},
{
name = _corner.universal;
origin = (0,6);
type = Corner;
},
{
name = _corner.universal;
origin = (0,26);
type = Corner;
},
{
name = _corner.universal;
origin = (0,32);
type = Corner;
}
);
layerId = m004;
shapes = (
{
closed = 1;
nodes = (
(270,-2,o),
(375,6,o),
(448,6,cs),
(513,6,o),
(609,-2,o),
(732,-2,c),
(732,76,l),
(631,77,o),
(598,100,o),
(586,118,cs),
(574,136,o),
(575,175,o),
(586,218,cs),
(777,958,ls),
(793,1019,o),
(808,1085,o),
(830,1107,cs),
(847,1124,o),
(875,1128,o),
(901,1128,cs),
(1025,1128,o),
(1060,1016,o),
(1037,760,c),
(1121,760,l),
(1136,921,o),
(1171,1066,o),
(1213,1220,c),
(1051,1209,o),
(911,1204,o),
(748,1204,cs),
(534,1204,o),
(376,1211,o),
(262,1220,c),
(231,1074,o),
(181,928,o),
(123,782,c),
(203,754,l),
(315,999,o),
(412,1128,o),
(551,1128,cs),
(582,1128,o),
(599,1123,o),
(609,1113,cs),
(627,1095,o),
(618,1041,o),
(605,991,cs),
(409,227,ls),
(391,155,o),
(372,125,o),
(341,107,cs),
(314,91,o),
(263,78,o),
(175,75,c),
(175,-2,l)
);
}
);
userData = {
com.typemytype.robofont.guides = (
{
angle = 0;
isGlobal = 0;
magnetic = 5;
x = 0;
y = 1204;
}
);
};
width = 1100;
}
);
unicode = 84;
},
